<svg xmlns="http://www.w3.org/2000/svg" width="55" height="56" fill="none"><g clip-path="url(#a)"><path fill="#fff" d="M0 .333h55v55H0z"/><mask id="b" width="37" height="38" x="9" y="9" maskUnits="userSpaceOnUse" style="mask-type:luminance"><path fill="#fff" d="M45.405 24.721H27.913v7.253H37.98c-.938 4.608-4.863 7.253-10.068 7.253A11.07 11.07 0 0 1 16.82 28.134a11.07 11.07 0 0 1 11.093-11.093c2.645 0 5.034.94 6.911 2.475l5.461-5.461c-3.327-2.901-7.594-4.693-12.372-4.693A18.718 18.718 0 0 0 9.14 28.134a18.718 18.718 0 0 0 18.772 18.772c9.386 0 17.919-6.826 17.919-18.772 0-1.11-.171-2.304-.427-3.413Z"/></mask><g mask="url(#b)"><path fill="#FBBC05" d="M7.465 39.232V17.047l14.506 11.092L7.465 39.232Z"/></g><mask id="c" width="37" height="38" x="9" y="9" maskUnits="userSpaceOnUse" style="mask-type:luminance"><path fill="#fff" d="M45.405 24.721H27.913v7.253H37.98c-.938 4.608-4.863 7.253-10.068 7.253A11.07 11.07 0 0 1 16.82 28.134a11.07 11.07 0 0 1 11.093-11.093c2.645 0 5.034.94 6.911 2.475l5.461-5.461c-3.327-2.901-7.594-4.693-12.372-4.693A18.718 18.718 0 0 0 9.14 28.134a18.718 18.718 0 0 0 18.772 18.772c9.386 0 17.919-6.826 17.919-18.772 0-1.11-.171-2.304-.427-3.413Z"/></mask><g mask="url(#c)"><path fill="#EA4335" d="m7.465 17.047 14.506 11.092 5.973-5.205 20.479-3.327V7.66H7.465v9.386Z"/></g><mask id="d" width="37" height="38" x="9" y="9" maskUnits="userSpaceOnUse" style="mask-type:luminance"><path fill="#fff" d="M45.373 24.716H27.881v7.253H37.95c-.939 4.608-4.864 7.253-10.069 7.253A11.07 11.07 0 0 1 16.79 28.129a11.07 11.07 0 0 1 11.09-11.093c2.645 0 5.035.94 6.912 2.475l5.46-5.461c-3.327-2.901-7.593-4.693-12.372-4.693A18.718 18.718 0 0 0 9.11 28.129a18.718 18.718 0 0 0 18.772 18.772c9.386 0 17.92-6.826 17.92-18.772 0-1.11-.172-2.304-.428-3.413Z"/></mask><g mask="url(#d)"><path fill="#34A853" d="M7.434 39.227 33.032 19.6l6.74.854 8.619-12.8v40.958H7.434v-9.386Z"/></g><mask id="e" width="37" height="38" x="9" y="9" maskUnits="userSpaceOnUse" style="mask-type:luminance"><path fill="#fff" d="M45.373 24.716H27.881v7.253H37.95c-.939 4.608-4.864 7.253-10.069 7.253A11.07 11.07 0 0 1 16.79 28.129a11.07 11.07 0 0 1 11.09-11.093c2.645 0 5.035.94 6.912 2.475l5.46-5.461c-3.327-2.901-7.593-4.693-12.372-4.693A18.718 18.718 0 0 0 9.11 28.129a18.718 18.718 0 0 0 18.772 18.772c9.386 0 17.92-6.826 17.92-18.772 0-1.11-.172-2.304-.428-3.413Z"/></mask><g mask="url(#e)"><path fill="#4285F4" d="M48.391 48.613 21.94 28.134l-3.413-2.56 29.864-8.533v31.572Z"/></g></g><defs><clipPath id="a"><path fill="#fff" d="M0 .333h55v55H0z"/></clipPath></defs></svg>