<svg xmlns="http://www.w3.org/2000/svg" width="107" height="34" fill="none"><path fill="#130738" d="M89.19.644c8.892 0 16.104 7.211 16.104 16.104 0 8.894-7.212 16.104-16.105 16.104-8.894 0-16.104-7.21-16.104-16.104 0-8.893 7.21-16.104 16.105-16.104Zm0 1.776c-7.901 0-14.33 6.427-14.33 14.328s6.429 14.328 14.33 14.328c7.9 0 14.328-6.427 14.328-14.328 0-7.9-6.428-14.328-14.329-14.328ZM35.3 4.17c6.636 0 12.017 5.381 12.017 12.017 0 6.638-5.381 12.018-12.017 12.018-6.637 0-12.018-5.38-12.018-12.017S28.662 4.17 35.3 4.17ZM21.53 27.428h-3.878V22.59H8.355l-3.16 4.838H.5L15.254 4.946h6.276v22.482ZM53.12 15.61l9.556-10.664h5.181l-8.789 9.817 9.785 12.665H63.53l-7.24-9.562-3.166 3.535.006 6.027h-3.9V4.946h3.88l.01 10.664ZM89.19 5.117c2.435 2.435 3.682 3.335 3.682 5.208 0 1.776-1.23 3.182-2.804 3.572v5.274l2.19-1.264c-.438-1.552.158-3.306 1.688-4.19a3.29 3.29 0 0 1 1.714-.464c1.126 0 2.474.47 4.637 1.05-.894 3.34-1.042 4.854-2.668 5.793a3.683 3.683 0 0 1-1.84.49 3.667 3.667 0 0 1-2.623-1.097l-3.098 1.79v2.585h7.574v1.764h-16.91v-1.765h7.573v-2.585l-3.097-1.788a3.669 3.669 0 0 1-2.622 1.097 3.68 3.68 0 0 1-1.84-.491c-1.627-.939-1.774-2.454-2.67-5.793 2.164-.58 3.513-1.05 4.638-1.05a3.28 3.28 0 0 1 1.714.465c1.53.884 2.125 2.637 1.688 4.19l2.189 1.263v-5.273a3.69 3.69 0 0 1-2.797-3.573c0-1.877 1.237-2.763 3.681-5.208ZM35.3 8.11c-4.416 0-7.995 3.618-7.995 8.079 0 4.46 3.579 8.079 7.995 8.079 4.415 0 7.996-3.619 7.996-8.08 0-4.46-3.58-8.078-7.996-8.078ZM10.653 19.072h7l-.003-10.71-6.997 10.71Zm72.06-4.054c-.574 0-1.39.214-2.492.522.55 2.133.757 2.653 1.406 3.028.289.167.621.254.959.254.694 0 1.316-.357 1.661-.957a1.92 1.92 0 0 0-.702-2.62 1.521 1.521 0 0 0-.831-.227Zm12.947 0c-.316 0-.548.064-.83.227-.452.261-.77.678-.898 1.177a1.948 1.948 0 0 0 .194 1.443c.346.6.968.957 1.662.957.338 0 .67-.087.96-.255.647-.374.855-.894 1.405-3.027-1.103-.308-1.918-.522-2.493-.522Zm-6.47-7.425c-1.572 1.543-1.918 1.983-1.918 2.732a1.92 1.92 0 0 0 1.917 1.918 1.92 1.92 0 0 0 1.918-1.918c0-.746-.346-1.187-1.918-2.732Z"/></svg>