<svg xmlns="http://www.w3.org/2000/svg" width="44" height="44" fill="none"><path fill="#130738" d="M30.98 40.61c-.976-.857-3.405-3.534-3.592-3.984-.748-1.756-1.163-3.683-.395-6.274-.02.022-.062.043-.083.065-.477.792-1.225 1.605-2.367 2.612.208-.792.478-1.542.81-2.291-.935-3.705-.374-10.129-.499-13.405a4.227 4.227 0 0 1-2.118.236 8.163 8.163 0 0 0 2.098-.985c1.765-9.015.83-14.325-.769-15.824-2.803-.793-8.493-.322-11.463 9.464.665 3.298 1.952 4.797 4.361 6.574-2.575-.428-4.07-2.377-5.108-5.053-.873 3.147-1.08 8.864 1.308 13.275a14.686 14.686 0 0 0 5.524 1.435 9.456 9.456 0 0 1-5.005-.193c2.97 6.489 7.787 9.315 11.027 10.835.374.193.748.429 1.08.707a26.042 26.042 0 0 1-1.475-1.927 26.631 26.631 0 0 1-4.153-8.844 33.14 33.14 0 0 1-.997-9.379 54.37 54.37 0 0 1 1.122-8.972c.104-.47.54-.792 1.017-.685.063.022.104.022.146.043.54.193.872.728.789 1.306v.043a54.524 54.524 0 0 0-1.267 8.587 30.774 30.774 0 0 0 .768 8.822 25.26 25.26 0 0 0 3.718 8.308c1.744 2.57 3.904 4.84 6.271 6.895.27.214.332.62.145.9a.516.516 0 0 1-.56.17c.747.45 1.225.429 1.225.429s1.06-.6-1.557-2.89Z"/></svg>