<svg xmlns="http://www.w3.org/2000/svg" width="55" height="56" fill="none"><path fill="#fff" d="M0 .333h55v55H0z"/><path fill="url(#a)" d="M37.86 28.438c-4.405 0-7.975 3.54-7.975 7.908 0 4.367 3.57 7.908 7.974 7.908s7.974-3.541 7.974-7.908c0-4.367-3.57-7.908-7.974-7.908Zm-20.719 0c-4.404.001-7.974 3.54-7.974 7.908 0 4.367 3.57 7.908 7.974 7.908s7.975-3.541 7.975-7.908c0-4.368-3.57-7.907-7.975-7.907Zm18.334-9.884c0 4.367-3.57 7.908-7.975 7.908-4.404 0-7.974-3.541-7.974-7.908 0-4.367 3.57-7.908 7.974-7.908s7.974 3.54 7.974 7.908Z"/><defs><radialGradient id="a" cx="0" cy="0" r="1" gradientTransform="matrix(24.31 0 0 22.2821 27.505 29.034)" gradientUnits="userSpaceOnUse"><stop stop-color="#FFB900"/><stop offset=".6" stop-color="#F95D8F"/><stop offset=".999" stop-color="#F95353"/></radialGradient></defs></svg>