<svg xmlns="http://www.w3.org/2000/svg" width="104" height="33" fill="none"><g fill="#130738" clip-path="url(#a)"><path d="M73.328 15.13h-8.135v4.918h8.135v-4.917Z"/><path d="M65.194.752H59.01v14.38h6.184V.752Zm-29.26 0v4.307h1.777c1.692 0 2.644.425 2.644 1.72 0 1.266-.898 1.875-2.644 1.875h-1.777v3.49h2.755c1.585 0 2.46.555 2.46 1.722 0 1.189-.663 1.874-2.46 1.874h-2.755v4.308h3.837c4.336 0 7.087-2.008 7.087-5.473 0-2.218-1.692-4.2-3.912-4.518 1.664-.635 2.906-2.195 2.906-4.125 0-3.252-2.668-5.18-6.715-5.18h-3.203Zm0 4.307h-6.027v3.596h6.027V5.059Zm0 7.086h-6.027v3.596h6.027v-3.596Zm12.076-3.49v3.494h2.779V8.655H48.01Zm6.274 0v3.494h2.778V8.655h-2.778Z"/><path d="M50.787 12.149v2.779h3.496v-2.78h-3.496Zm3.495-6.143h-3.495v2.649h3.495V6.006Z"/><path d="M65.194 15.132H59.01v4.917h6.184v-4.917Zm-29.26-6.478h-6.027v3.49h6.027v-3.49Zm0 7.086h-6.027v4.308h6.027v-4.307Zm0-14.988h-6.027V5.06h6.027V.752Zm18.35 7.902h-3.496v3.495h3.496V8.654Z" opacity=".5"/></g><g fill="#130738" clip-path="url(#b)"><path d="M50.91 32.397v-2.748h-1.982v2.748h-2.63v-7.868h2.63v2.9h1.982V24.53h2.63v7.867h-2.63Zm-10.092.129c-2.392 0-4.106-1.681-4.106-4.03 0-2.35 1.78-4.095 4.15-4.095 1.26 0 2.101.54 2.78 1.121l-1.293 1.756c-.442-.431-.862-.733-1.541-.733-.873 0-1.52.755-1.52 1.886 0 1.132.626 1.95 1.672 1.95.58 0 1.12-.258 1.583-.69l1.261 1.714c-.755.658-1.606 1.12-2.985 1.12m-9.38 0c-1.28 0-2.39-.462-3.124-1.099l1.046-1.67c.732.583 1.368.854 2.047.854.377 0 .647-.164.647-.434 0-.377-.302-.516-1.26-.808-1.434-.44-2.157-1.056-2.157-2.349-.001-1.703 1.336-2.618 3.243-2.618 1.024 0 2.026.377 2.554.797l-1.033 1.713c-.539-.387-1.035-.591-1.617-.591-.495 0-.679.215-.679.44 0 .249.184.4 1.218.701 1.422.41 2.198.959 2.198 2.435 0 1.574-1.185 2.629-3.082 2.629Zm-9.206 0c-2.178 0-3.814-1.12-3.814-3.749v-4.247h2.628v4.518c0 .849.454 1.388 1.186 1.388s1.185-.539 1.185-1.388V24.53h2.63v4.247c0 2.63-1.64 3.749-3.815 3.749Zm-8.26-.129-.42-1.433h-2.306l-.42 1.434H8.316l2.726-7.868h2.845l2.726 7.868h-2.64ZM12.4 27.071l-.592 1.995h1.185l-.593-1.995Zm-8.61 5.326H.095v-7.868H3.53c1.649 0 2.737.787 2.737 2.114 0 .787-.506 1.423-1.185 1.68a1.884 1.884 0 0 1 1.595 1.843c0 1.411-1.121 2.232-2.888 2.232m-.84-6.111h-.4v1.466h.4c.71 0 1.077-.248 1.077-.766 0-.528-.388-.7-1.078-.7Zm.398 2.888H2.55v1.467h.797c.733 0 1.002-.281 1.002-.765 0-.477-.356-.702-1.002-.702Zm96.906 3.222h-3.697v-7.868h3.44c1.649 0 2.738.787 2.738 2.113 0 .787-.508 1.423-1.187 1.681a1.883 1.883 0 0 1 1.594 1.842c0 1.412-1.118 2.232-2.888 2.232Zm-.84-6.11h-.398v1.466h.398c.713 0 1.079-.249 1.079-.767 0-.528-.388-.7-1.08-.7Zm.4 2.888h-.798v1.466h.798c.733 0 1.002-.28 1.002-.765 0-.476-.356-.701-1.002-.701Zm-8.373 3.222V28.56l-1.218 2.284h-1.197l-1.25-2.284v3.836h-2.478v-7.868h2.552l1.79 3.139 1.66-3.139h2.77v7.868h-2.63Zm-12.314.129c-2.47 0-4.226-1.703-4.226-4.052 0-2.349 1.779-4.073 4.247-4.073s4.225 1.703 4.225 4.052c0 2.349-1.78 4.072-4.246 4.072m0-6.034c-.96 0-1.65.83-1.65 1.962 0 1.13.712 1.982 1.671 1.982.959 0 1.649-.83 1.649-1.96 0-1.133-.712-1.984-1.67-1.984Zm-10.772 5.906v-7.868h2.522v5.864h2.576v2.004h-5.098Zm-8.678.001h2.542V29.74h-2.542v2.657Zm0-5.211h2.542V24.53h-2.542v2.657Z"/><path d="M62.217 29.74h2.657v-2.554h-2.657v2.554Zm-2.54 0h-2.67v-2.554h2.67v2.554Z"/></g><defs><clipPath id="a"><path fill="#fff" d="M29.907.75h43.421v19.298h-43.42z"/></clipPath><clipPath id="b"><path fill="#fff" d="M.094 24.176h103.048v8.574H.094z"/></clipPath></defs></svg>