<svg xmlns="http://www.w3.org/2000/svg" width="619" height="495" fill="none"><g clip-path="url(#a)"><path fill="#683BFF" d="M618.667 495h-618V0h618z"/><path fill="#000" fill-opacity=".1" d="M0 0h618v495H0z" style="mix-blend-mode:saturation" transform="rotate(180 309.334 247.5)"/><path fill="#000" fill-opacity=".2" d="M0 0h618v495H0z" style="mix-blend-mode:luminosity" transform="rotate(180 309.334 247.5)"/><g opacity=".5" style="mix-blend-mode:luminosity"><mask id="b" width="1313" height="738" x="-316" y="-205" maskUnits="userSpaceOnUse" style="mask-type:luminance"><path fill="#fff" d="M984.667-205h-1288c-6.627 0-12 5.373-12 12v714c0 6.627 5.373 12 12 12h1288c6.627 0 12-5.373 12-12v-714c0-6.627-5.373-12-12-12Z"/></mask><g mask="url(#b)"><path fill="#043944" d="M984.667-205h-1288c-6.627 0-12 5.373-12 12v714c0 6.627 5.373 12 12 12h1288c6.627 0 12-5.373 12-12v-714c0-6.627-5.373-12-12-12Z"/><path fill="url(#c)" d="M856.84 607.837c382.4-179.02 575.36-574.124 431-882.49S716.457-687.874 334.06-508.854C-48.338-329.835-241.304 65.269-96.942 373.635 47.42 682.001 474.443 786.857 856.84 607.837Z"/><path fill="url(#d)" d="M31.822 1248.67C461.417 1047.56 678.2 603.688 516.02 257.262 353.84-89.164-125.888-206.962-555.483-5.846c-429.595 201.115-646.377 644.985-484.197 991.411C-877.501 1331.99-397.773 1449.79 31.822 1248.67Z" opacity=".7"/><g filter="url(#e)"><path fill="url(#f)" d="M1016.67-226 .667 361V-813L1016.67-226Z"/></g><g filter="url(#g)"><path fill="url(#h)" d="M677.57 365.214c-213.679 0-386.9-173.221-386.9-386.9 0-213.679 173.221-386.9 386.9-386.9 213.677 0 386.9 173.221 386.9 386.9 0 213.679-173.223 386.9-386.9 386.9Z"/></g><g filter="url(#i)"><path fill="url(#j)" d="M-52.263 1036.77-331.334 553.4l671.003-387.403L618.74 649.362-52.263 1036.77Z"/></g></g></g><g filter="url(#k)" opacity=".9"><ellipse cx="299.5" cy="-35" fill="url(#l)" rx="284.5" ry="142"/></g><g filter="url(#m)" opacity=".3"><ellipse cx="299.167" cy="518" fill="#130738" rx="271.5" ry="130"/></g><g filter="url(#n)" opacity=".8"><ellipse cx="-76.833" cy="360" fill="#2759FF" rx="148.5" ry="90"/></g><g filter="url(#o)" opacity=".8"><ellipse cx="695.167" cy="360" fill="#2759FF" rx="148.5" ry="90"/></g><g filter="url(#p)" opacity=".8"><ellipse cx="-71.833" cy="118" fill="#2759FF" rx="148.5" ry="90"/></g><g filter="url(#q)" opacity=".8"><ellipse cx="700.167" cy="118" fill="#2759FF" rx="148.5" ry="90"/></g></g><defs><filter id="e" width="1076" height="1234" x="-29.333" y="-843" color-interpolation-filters="sRGB" filterUnits="userSpaceOnUse"><feFlood flood-opacity="0" result="BackgroundImageFix"/><feBlend in="SourceGraphic" in2="BackgroundImageFix" result="shape"/><feGaussianBlur result="effect1_foregroundBlur_447_3709" stdDeviation="15"/></filter><filter id="g" width="873.797" height="873.8" x="240.67" y="-458.586" color-interpolation-filters="sRGB" filterUnits="userSpaceOnUse"><feFlood flood-opacity="0" result="BackgroundImageFix"/><feBlend in="SourceGraphic" in2="BackgroundImageFix" result="shape"/><feGaussianBlur result="effect1_foregroundBlur_447_3709" stdDeviation="25"/></filter><filter id="i" width="990.073" height="910.773" x="-351.334" y="145.997" color-interpolation-filters="sRGB" filterUnits="userSpaceOnUse"><feFlood flood-opacity="0" result="BackgroundImageFix"/><feBlend in="SourceGraphic" in2="BackgroundImageFix" result="shape"/><feGaussianBlur result="effect1_foregroundBlur_447_3709" stdDeviation="10"/></filter><filter id="k" width="717" height="432" x="-59" y="-251" color-interpolation-filters="sRGB" filterUnits="userSpaceOnUse"><feFlood flood-opacity="0" result="BackgroundImageFix"/><feBlend in="SourceGraphic" in2="BackgroundImageFix" result="shape"/><feGaussianBlur result="effect1_foregroundBlur_447_3709" stdDeviation="37"/></filter><filter id="m" width="691" height="408" x="-46.333" y="314" color-interpolation-filters="sRGB" filterUnits="userSpaceOnUse"><feFlood flood-opacity="0" result="BackgroundImageFix"/><feBlend in="SourceGraphic" in2="BackgroundImageFix" result="shape"/><feGaussianBlur result="effect1_foregroundBlur_447_3709" stdDeviation="37"/></filter><filter id="n" width="399" height="282" x="-276.333" y="219" color-interpolation-filters="sRGB" filterUnits="userSpaceOnUse"><feFlood flood-opacity="0" result="BackgroundImageFix"/><feBlend in="SourceGraphic" in2="BackgroundImageFix" result="shape"/><feGaussianBlur result="effect1_foregroundBlur_447_3709" stdDeviation="25.5"/></filter><filter id="o" width="399" height="282" x="495.667" y="219" color-interpolation-filters="sRGB" filterUnits="userSpaceOnUse"><feFlood flood-opacity="0" result="BackgroundImageFix"/><feBlend in="SourceGraphic" in2="BackgroundImageFix" result="shape"/><feGaussianBlur result="effect1_foregroundBlur_447_3709" stdDeviation="25.5"/></filter><filter id="p" width="399" height="282" x="-271.333" y="-23" color-interpolation-filters="sRGB" filterUnits="userSpaceOnUse"><feFlood flood-opacity="0" result="BackgroundImageFix"/><feBlend in="SourceGraphic" in2="BackgroundImageFix" result="shape"/><feGaussianBlur result="effect1_foregroundBlur_447_3709" stdDeviation="25.5"/></filter><filter id="q" width="399" height="282" x="500.667" y="-23" color-interpolation-filters="sRGB" filterUnits="userSpaceOnUse"><feFlood flood-opacity="0" result="BackgroundImageFix"/><feBlend in="SourceGraphic" in2="BackgroundImageFix" result="shape"/><feGaussianBlur result="effect1_foregroundBlur_447_3709" stdDeviation="25.5"/></filter><radialGradient id="c" cx="0" cy="0" r="1" gradientTransform="matrix(662.34489 -44.84058 42.60646 629.34443 655.288 162.837)" gradientUnits="userSpaceOnUse"><stop stop-color="#4B0039"/><stop offset="1" stop-color="#80F" stop-opacity="0"/></radialGradient><radialGradient id="d" cx="0" cy="0" r="1" gradientTransform="matrix(642.59942 -399.93935 380.01297 610.58288 -273.944 568.061)" gradientUnits="userSpaceOnUse"><stop stop-color="#24FFED"/><stop offset=".64" stop-color="#043944" stop-opacity="0"/></radialGradient><radialGradient id="f" cx="0" cy="0" r="1" gradientTransform="matrix(-94.21355 -551.2936 683.7099 -116.84288 527.402 46.791)" gradientUnits="userSpaceOnUse"><stop stop-color="#00FFF7"/><stop offset="1" stop-color="#33FF74" stop-opacity="0"/></radialGradient><linearGradient id="h" x1="1046.37" x2="352.746" y1="343.493" y2="-129.492" gradientUnits="userSpaceOnUse"><stop stop-color="#DC3FFF"/><stop offset="1" stop-color="#00E6FF" stop-opacity="0"/></linearGradient><linearGradient id="j" x1="-138.333" x2="309.41" y1="673.997" y2="511.486" gradientUnits="userSpaceOnUse"><stop stop-color="#29E9FB"/><stop offset="1" stop-color="#3C80FF" stop-opacity="0"/></linearGradient><linearGradient id="l" x1="299.5" x2="299.5" y1="-177" y2="107" gradientUnits="userSpaceOnUse"><stop offset=".5" stop-color="#09DE9F" stop-opacity="0"/><stop offset=".875" stop-color="#09DE9F"/></linearGradient><clipPath id="a"><path fill="#fff" d="M618.667 495h-618V0h618z"/></clipPath></defs></svg>