<svg xmlns="http://www.w3.org/2000/svg" width="55" height="56" fill="none"><path fill="#fff" d="M0 .333h55v55H0z"/><path fill="#000" d="M15.49 15.056c1.188.966 1.634.892 3.867.743l21.046-1.264c.446 0 .075-.445-.073-.52l-3.496-2.526c-.67-.52-1.562-1.116-3.272-.966l-20.38 1.486c-.742.074-.89.445-.595.743l2.902 2.304Zm1.263 4.905v22.144c0 1.19.595 1.635 1.933 1.562l23.13-1.339c1.34-.073 1.489-.892 1.489-1.859V18.474c0-.966-.371-1.486-1.191-1.412l-24.171 1.412c-.892.074-1.19.52-1.19 1.486Zm22.834 1.187c.148.67 0 1.339-.67 1.414l-1.115.222v16.348c-.968.52-1.86.818-2.604.818-1.19 0-1.488-.372-2.38-1.486l-7.29-11.444v11.072l2.307.52s0 1.338-1.86 1.338l-5.132.297c-.148-.297 0-1.04.52-1.189l1.34-.37v-14.64l-1.86-.15c-.148-.669.223-1.634 1.265-1.709l5.504-.37 7.586 11.592V23.156l-1.934-.222c-.148-.819.446-1.413 1.19-1.487l5.133-.299ZM11.472 10.002l21.197-1.56c2.604-.224 3.273-.074 4.91 1.114l6.766 4.756c1.116.818 1.488 1.04 1.488 1.932v26.084c0 1.635-.595 2.602-2.677 2.75l-24.617 1.486c-1.563.075-2.307-.148-3.125-1.19L10.43 38.91c-.893-1.19-1.264-2.08-1.264-3.122V12.603c0-1.337.595-2.452 2.305-2.6Z"/></svg>