<svg xmlns="http://www.w3.org/2000/svg" width="111" height="23" fill="none"><path fill="#130738" d="M103.721.756c1.12.04 2.63.014 4.825.317v5.17c-2.46-.573-3.614-.564-4.883-.406-1.419.175-2.057.91-2.027 1.693.014.398.411.833.901 1.028l4.5 1.61c2.996 1.183 3.632 3.583 3.604 5.65-.066 4.793-3.892 6.59-6.941 6.85-3.467.294-6.15-.287-7.053-.434v-5.216c2.744.834 5.938.8 7.016.38.816-.318 1.435-.804 1.386-1.441-.027-.346-.061-.786-1.092-1.227l-4.15-1.505c-2.665-.96-3.693-3.49-3.582-5.744.225-4.553 3.863-6.858 7.496-6.725ZM25.572 8.998h5.905l-.001-7.845h5.483V22.24h-5.482v-8.466h-5.905v8.466h-5.49V1.153h5.49v7.845ZM47.61 22.24h-5.487V1.153h5.487V22.24Zm10.653-4.788h5.657v4.786l-11.146.002V1.153h5.489v16.299Zm13.866 4.788H66.64V1.153h5.488V22.24ZM.533 1.134c6.075-.092 6.32-.172 8.33-.12 3.085.078 4.946.959 6.285 2.314 1.29 1.306 2.313 3.298 2.266 6.19-.029 1.664-1.057 7.79-8.503 8.171-.626.056-1.803.036-2.889.032l.002 4.515H.534V1.133Zm76.813 0c6.073-.092 6.32-.172 8.328-.12 3.086.077 4.947.959 6.286 2.314 1.29 1.306 2.313 3.298 2.266 6.19-.028 1.664-1.056 7.79-8.502 8.171-.618.055-1.804.037-2.895.033v4.514h-5.483V1.133ZM11.434 9.469C11.57 6.334 8.79 5.339 6.02 5.83l.001 7.118.001-.002c2.951.246 5.29-.685 5.412-3.477Zm76.812 0c.136-3.135-2.642-4.13-5.414-3.639l-.003-.001v7.124l.002-.007c2.95.246 5.29-.685 5.415-3.477Z"/></svg>