<svg xmlns="http://www.w3.org/2000/svg" width="22" height="10" fill="none"><path fill="#000" fill-rule="evenodd" d="M9.406 7.271V4.738H7.509v2.533H5.512V.8h1.997v2.276h1.885V.8h2.009v6.471H9.406ZM0 .8v6.471h1.953V5.017H4.64v-1.54H1.953V2.34h2.912V.8H0Zm14.538 1.015H12.53v2.042h2.008V1.815Zm0 5.289c0 .915-.212 1.606-1.038 2.254l-.903-.76c.468-.445.624-.78.636-1.327h-.726V5.218h2.03v1.886ZM15.676.8v6.471h1.986v-2.03h.982c1.004 0 1.595-.157 2.042-.48.524-.38.814-1.027.814-1.774 0-.804-.279-1.417-.848-1.797-.39-.256-.937-.39-2.21-.39h-2.766Zm3.57 2.756c-.156.123-.435.178-.825.178h-.76V2.351h.793c.413 0 .647.044.792.178.145.134.201.313.201.514 0 .212-.056.39-.2.513Z" clip-rule="evenodd"/></svg>