<svg xmlns="http://www.w3.org/2000/svg" width="44" height="45" fill="none"><path fill="#130738" d="M17.953 8.334c1.846 0 3.308.504 4.195 1.319.936.887 1.032 1.918 1.032 3.356v4.134c-.002 2.28-.014 3.448-.035 3.503-.026.07-.56.082-1.048.084h-.428c-1.39 0-2.325-.648-2.757-1.895-1.175 1.343-2.47 2.015-3.932 2.015-1.79 0-3.03-1.039-3.213-2.515l-.004-.033-.05.058c-1.356 1.54-3.686 2.461-5.629 2.49h-.09C2.494 20.85 0 18.428 0 14.736c0-1.87.767-3.621 2.134-4.844a6.215 6.215 0 0 1 4.124-1.558c2.733 0 4.603 1.558 4.603 3.5 0 1.103-.814 1.966-1.941 1.966-1.007 0-1.727-.815-1.727-1.822 0-1.798-.12-2.758-1.39-2.758-1.175 0-1.8 1.032-1.8 3.022 0 3.716 1.913 6.046 4.21 6.046 1.799 0 2.887-.825 4.073-1.794l.007-.006c.316-.274.648-.536.955-.768l.165-.124c.566-.42 1.016-.716 1.074-.757l.076-.053c.956-.674 2.268-1.381 4.133-2.334v-.713c0-1.679-.383-2.446-1.438-2.447-.84 0-1.439.576-1.439 1.295 0 .504.048.911.048 1.175 0 1.175-.72 1.895-1.726 1.895-.96 0-1.583-.648-1.583-1.631 0-2.014 2.062-3.692 5.395-3.692Zm19.478 0c1.846 0 3.308.504 4.195 1.319.935.887 1.031 1.918 1.031 3.356-.128 1.217-.128 2.328 0 3.333.188 1.473 1.022 3.061 1.323 3.134l.02.002v.227c-.623.79-1.655 1.025-2.853 1.025-1.391 0-2.326-.648-2.757-1.895-1.175 1.343-2.47 2.015-3.933 2.015-1.942 0-3.237-1.223-3.237-2.901 0-2.34 2.212-3.538 6.752-5.293l.202-.078v-.84c0-1.677-.384-2.099-1.439-2.099-.532 0-1.492.282-1.74.635-.143.2-.538-1.353-.222-1.516.712-.364 1.648-.424 2.658-.424Zm-5.403 0c1.151 0 1.918.743 1.918 1.87 0 .983-.623 1.63-1.606 1.63-1.127 0-1.534-1.055-2.014-1.055-.575 0-.72.768-.72 2.35v5.71c0 .537.316 1.102.751 1.425.079.058.149.187.149.248s.014.155-.094.17a2.27 2.27 0 0 1-.248.01l-.15.002-.072-.001h-4.885l-.141-.001-.146-.002c-.19-.003-.369-.008-.44-.008-.115 0-.138-.056-.138-.134 0-.077.065-.148.27-.316.184-.15.597-.694.635-1.305l.003-.088v-5.462c0-.628-.02-1.427-.381-1.89a7.99 7.99 0 0 0-.604-.82c-.02-.026-.16-.167-.154-.368.006-.2.602-.32.92-.437.318-.117 4.256-1.365 4.414-1.244.208.158.208.718 0 1.681.767-1.294 1.678-1.965 2.733-1.965ZM18.696 13.44c-1.39.551-2.158 1.774-2.158 3.549 0 1.03.456 1.63 1.08 1.63 1.031 0 1.077-.918 1.078-2.82v-2.36Zm19.478 0c-1.39.551-2.158 1.774-2.158 3.549 0 1.03.456 1.63 1.079 1.63 1.032 0 1.077-.918 1.079-2.82v-2.36Z"/><path fill="#130738" fill-rule="evenodd" stroke="#130738" stroke-width=".4" d="M6.52 24.761c1.272-.016 2.385.308 3.34.973.954.665 1.431 1.359 1.431 2.081 0 .591-.326.879-.979.862-.31-.016-.6-.184-.868-.505a5.987 5.987 0 0 1-.71-1.059c-.204-.386-.53-.743-.979-1.071-.449-.328-.99-.493-1.627-.493-1.012 0-1.843.415-2.496 1.244-.652.83-.979 1.86-.979 3.091 0 1.707.433 3.074 1.297 4.1.865 1.027 1.982 1.54 3.352 1.54.8 0 1.49-.218 2.068-.653a4.287 4.287 0 0 0 1.334-1.662c.098-.197.253-.271.465-.222.212.05.293.189.244.419-.195 1.001-.713 1.863-1.553 2.586-.84.722-1.921 1.083-3.243 1.083-1.713 0-3.16-.595-4.343-1.785C1.091 34.1.5 32.618.5 30.845c0-1.807.575-3.268 1.725-4.384 1.15-1.117 2.582-1.683 4.294-1.7Zm11.256 0c1.587 0 2.844.616 3.77 1.847v-1.33c0-.197.07-.337.21-.419.141-.082.328-.082.559 0l1.463.444c.197.052.372.206.372.42v.057c0 .127-.173.293-.285.417-.111.124-.41.634-.41 1.076v7.832c0 .328.154.616.46.862.306.246.347.419.347.517v.074c0 .18-.116.271-.347.271h-1.997c-.264 0-.397-.131-.397-.394v-1.38a3.916 3.916 0 0 1-1.624 1.503c-.686.345-1.674.517-2.468.517-1.571 0-2.67-.574-3.795-1.724s-1.687-2.635-1.687-4.458c0-1.79.554-3.259 1.662-4.408 1.108-1.15 2.497-1.724 4.167-1.724Zm21.425 0c1.309-.016 2.384.267 3.225.85.841.583 1.262 1.392 1.262 2.426 0 .837-.366 1.58-1.096 2.229-.731.648-1.7 1.087-2.907 1.317-1.19.214-2.626.255-4.308.123.289 1.166.824 2.09 1.606 2.771.782.681 1.725 1.022 2.83 1.022.918 0 1.691-.197 2.32-.59.4-.244.66-.408.865-.367.204.04.288.088.404.334.117.246-.171.623-.734 1.103-.796.64-2.014 1.096-3.442 1.096-1.784 0-3.25-.578-4.397-1.736-1.148-1.157-1.721-2.664-1.721-4.52 0-1.772.57-3.221 1.708-4.346 1.139-1.125 2.6-1.695 4.385-1.712Zm-8.27 0c.732 0 1.307.181 1.724.545.418.363.626.817.626 1.363 0 .776-.34 1.164-1.021 1.164-.29 0-.52-.09-.69-.272a1.423 1.423 0 0 1-.345-.595 1.248 1.248 0 0 0-.396-.595c-.204-.181-.419-.272-.843-.272-.526 0-.848.326-1.231.979-.384.652-.575 1.465-.575 2.44v5.65c0 .33.179.607.536.83.358.223.47.392.47.508v.099c0 .198-.06.297-.32.297h-3.292c-.34 0-.445-.1-.445-.297v-.1c0-.115.092-.285.407-.508.315-.222.473-.5.473-.83V27.56c0-.315-.006-.587-.321-.816-.34-.248-.43-.43-.43-.545v-.05c0-.165.047-.314.302-.446l1.751-.842c.443-.198.665-.083.665.347v1.982c.578-1.619 1.66-2.428 2.955-2.428Zm-13.222.694c-1.077 0-1.955.424-2.634 1.273-.68.848-1.028 1.965-1.044 3.35-.033 1.713.34 3.16 1.118 4.338.78 1.178 1.781 1.776 3.008 1.792.795 0 1.52-.317 2.175-.952.654-.634.982-1.504.982-2.608v-3.733l-.002-.072c-.02-.798-.38-1.556-1.08-2.276-.72-.742-1.562-1.113-2.523-1.113Zm21.165.173c-1.082 0-1.967.413-2.654 1.237-.687.825-1.03 1.836-1.03 3.033 0 .195.016.486.05.874 1.684.113 3.042.065 4.073-.146 1.546-.307 2.31-1.173 2.293-2.596-.017-.712-.279-1.29-.786-1.735-.507-.445-1.155-.667-1.946-.667Z" clip-rule="evenodd"/></svg>