<svg xmlns="http://www.w3.org/2000/svg" width="286" height="207" fill="none"><mask id="a" fill="#fff"><path d="M187.117 18.167c46.73 0 84.613 37.883 84.613 84.613 0 17.684-5.426 34.1-14.703 47.676-.434.635-.695 1.371-.697 2.141-.014 5.639 1.483 15.012 10.244 22.145 3.213 2.616 2.555 8.929-1.58 9.181-16.462 1.004-27.923-2.833-34.619-6.208a4.325 4.325 0 0 0-3.959.016c-11.743 6.17-25.113 9.662-39.299 9.662-46.73 0-84.612-37.883-84.612-84.613s37.882-84.612 84.612-84.613Z"/></mask><path fill="#DADADA" d="M187.117 18.167v-4 4Zm84.613 84.613h4-4Zm-84.613 84.613v4-4Zm-84.612-84.613h-4 4Zm127.87 74.935-1.8 3.572 1.8-3.572Zm-3.959.016-1.861-3.541 1.861 3.541Zm40.158-2.989-2.525 3.102 2.525-3.102Zm-1.58 9.181.243 3.993-.243-3.993Zm-7.967-33.467-3.303-2.257 3.303 2.257Zm-.697 2.141-4-.01 4 .01Zm-69.213-134.43v4c44.521 0 80.613 36.092 80.613 80.613h8c0-48.94-39.674-88.613-88.613-88.613v4Zm84.613 84.613h-4c0 16.853-5.169 32.486-14.006 45.419l3.303 2.257 3.303 2.257c9.716-14.22 15.4-31.419 15.4-49.933h-4Zm-15.4 49.817-4-.01c-.015 6.293 1.664 17.071 11.719 25.257l2.525-3.102 2.526-3.102c-7.468-6.08-8.782-14.048-8.77-19.033l-4-.01Zm8.664 31.326-.244-3.992c-15.692.957-26.452-2.702-32.575-5.788l-1.8 3.572-1.8 3.572c7.269 3.664 19.431 7.68 36.662 6.629l-.243-3.993Zm-38.578-6.192-1.861-3.541c-11.183 5.876-23.916 9.203-37.438 9.203v8c14.85 0 28.856-3.657 41.159-10.121l-1.86-3.541Zm-39.299 9.662v-4c-44.521 0-80.612-36.092-80.612-80.613h-8c0 48.939 39.673 88.613 88.612 88.613v-4Zm-84.612-84.613h4c0-44.521 36.091-80.612 80.612-80.613v-8c-48.939 0-88.612 39.673-88.612 88.613h4Zm127.87 74.935 1.8-3.572a8.324 8.324 0 0 0-7.62.047l1.861 3.541 1.86 3.541c.06-.031.169-.05.299.015l1.8-3.572Zm36.199-2.973-2.525 3.102c.135.11.304.322.426.681.123.365.156.773.106 1.122-.053.361-.163.479-.136.448a.557.557 0 0 1 .16-.115c.088-.044.149-.049.145-.049l.244 3.992.243 3.993c4.609-.281 6.816-4.039 7.261-7.125.439-3.036-.491-6.784-3.398-9.151l-2.526 3.102Zm-9.547-24.286-3.303-2.257c-.82 1.201-1.389 2.708-1.394 4.388l4 .01 4 .01a.413.413 0 0 1-.018.132c-.006.017-.005.006.018-.026l-3.303-2.257Z" mask="url(#a)"/><mask id="b" fill="#fff"><path d="M98.384 19.442c-46.73 0-84.613 37.882-84.614 84.612 0 17.684 5.427 34.1 14.704 47.676.434.635.695 1.372.697 2.141.014 5.639-1.483 15.012-10.244 22.145-3.213 2.616-2.555 8.93 1.58 9.182 16.462 1.004 27.923-2.833 34.619-6.208a4.322 4.322 0 0 1 3.96.016c11.742 6.169 25.112 9.661 39.298 9.661 46.73 0 84.612-37.883 84.612-84.613s-37.882-84.612-84.612-84.612Z"/></mask><path fill="#DADADA" d="M98.384 19.442v-4 4ZM13.77 104.054h-4 4Zm84.614 84.613v4-4Zm84.612-84.613h4-4ZM55.126 178.99l-1.8-3.572 1.8 3.572Zm3.96.016 1.86-3.541-1.86 3.541Zm-40.16-2.99 2.526 3.102-2.525-3.102Zm1.581 9.182.244-3.993-.244 3.993Zm7.967-33.468 3.303-2.256-3.303 2.256Zm.697 2.141-4 .01 4-.01Zm69.213-134.43v4c-44.521 0-80.613 36.092-80.614 80.613h-8c0-48.94 39.674-88.612 88.614-88.612v4ZM13.77 104.055h4c0 16.853 5.17 32.487 14.007 45.42l-3.303 2.256-3.303 2.257c-9.716-14.22-15.4-31.418-15.4-49.933h4Zm15.4 49.817 4-.01c.016 6.293-1.663 17.071-11.718 25.257l-2.525-3.102-2.526-3.102c7.468-6.08 8.782-14.048 8.77-19.033l4-.01Zm-8.663 31.327.244-3.993c15.692.957 26.452-2.701 32.575-5.787l1.8 3.572 1.8 3.572c-7.27 3.663-19.431 7.679-36.662 6.628l.243-3.992Zm38.578-6.192 1.86-3.541c11.184 5.875 23.917 9.202 37.439 9.202v8c-14.85 0-28.856-3.656-41.159-10.12l1.86-3.541Zm39.299 9.661v-4c44.521 0 80.612-36.092 80.612-80.613h8c0 48.939-39.673 88.613-88.612 88.613v-4Zm84.612-84.613h-4c0-44.52-36.091-80.612-80.612-80.612v-8c48.939 0 88.612 39.673 88.612 88.612h-4ZM55.126 178.99l-1.8-3.572a8.324 8.324 0 0 1 7.62.047l-1.86 3.541-1.861 3.541c-.06-.032-.17-.051-.299.015l-1.8-3.572Zm-36.2-2.974 2.526 3.102c-.135.11-.305.322-.426.681a2.5 2.5 0 0 0-.106 1.122c.052.361.163.48.136.449a.539.539 0 0 0-.16-.116c-.088-.044-.149-.049-.145-.049l-.244 3.993-.243 3.992c-4.609-.281-6.816-4.039-7.261-7.125-.44-3.036.49-6.783 3.398-9.151l2.526 3.102Zm9.548-24.286 3.303-2.256c.82 1.201 1.39 2.707 1.393 4.387l-4 .01-4 .01c0 .067.012.113.019.132.006.017.005.006-.018-.026l3.303-2.257Z" mask="url(#b)"/><mask id="c" width="98" height="164" x="93.505" y="21.367" fill="#000" maskUnits="userSpaceOnUse"><path fill="#fff" d="M93.505 21.367h98v164h-98z"/><path d="M141.717 31.367c24.723 14.77 41.279 41.795 41.279 72.687 0 30.024-15.638 56.393-39.213 71.412-24.722-14.771-41.278-41.794-41.278-72.686 0-30.023 15.637-56.395 39.212-71.413Z"/></mask><path fill="#fff" d="m141.717 31.367 4.231-7.083-4.37-2.61-4.294 2.735 4.433 6.958Zm41.279 72.687h8.25-8.25Zm-39.213 71.412-4.231 7.083 4.37 2.611 4.294-2.736-4.433-6.958Zm-41.278-72.686h-8.25 8.25Zm39.212-71.413-4.231 7.082c22.334 13.343 37.26 37.735 37.26 65.605h16.5c0-33.915-18.186-63.572-45.298-79.77l-4.231 7.083Zm41.279 72.687h-8.25c0 27.087-14.098 50.886-35.396 64.454l4.433 6.958 4.433 6.958c25.851-16.469 43.03-45.41 43.03-78.37h-8.25Zm-39.213 71.412 4.232-7.082c-22.334-13.344-37.26-37.735-37.26-65.604h-16.5c0 33.914 18.186 63.571 45.297 79.769l4.231-7.083Zm-41.278-72.686h8.25c0-27.087 14.097-50.888 35.395-64.455l-4.433-6.958-4.433-6.958c-25.852 16.47-43.029 45.411-43.03 78.371h8.251Z" mask="url(#c)"/><g filter="url(#d)"><path fill="#683BFF" d="M141.717 31.367c24.723 14.77 41.279 41.795 41.279 72.687 0 30.024-15.638 56.393-39.213 71.412-24.722-14.771-41.278-41.794-41.278-72.686 0-30.023 15.637-56.395 39.212-71.413Z"/></g><g filter="url(#e)"><path fill="#683BFF" d="M141.717 31.367c24.723 14.77 41.279 41.795 41.279 72.687 0 30.024-15.638 56.393-39.213 71.412-24.722-14.771-41.278-41.794-41.278-72.686 0-30.023 15.637-56.395 39.212-71.413Z"/></g><g opacity=".7"><path fill="url(#f)" fill-opacity=".4" d="M141.717 31.367c24.723 14.77 41.279 41.795 41.279 72.687 0 30.024-15.638 56.393-39.213 71.412-24.722-14.771-41.278-41.794-41.278-72.686 0-30.023 15.637-56.395 39.212-71.413Z"/><path fill="url(#g)" fill-opacity=".18" d="M141.717 31.367c24.723 14.77 41.279 41.795 41.279 72.687 0 30.024-15.638 56.393-39.213 71.412-24.722-14.771-41.278-41.794-41.278-72.686 0-30.023 15.637-56.395 39.212-71.413Z"/><path fill="url(#h)" fill-opacity=".23" d="M141.717 31.367c24.723 14.77 41.279 41.795 41.279 72.687 0 30.024-15.638 56.393-39.213 71.412-24.722-14.771-41.278-41.794-41.278-72.686 0-30.023 15.637-56.395 39.212-71.413Z" style="mix-blend-mode:screen"/></g><path stroke="#fff" stroke-linecap="round" stroke-linejoin="round" stroke-width="4" d="M135.851 117.519c0-3.99-.832-6.234-2.909-8.867-2.125-2.692-4.156-5.977-4.156-9.835 0-7.574 6.14-13.714 13.714-13.714 7.574 0 13.715 6.14 13.715 13.715 0 3.716-1.293 6.649-3.88 9.558-2.587 2.909-2.77 6.483-2.77 9.143"/><path stroke="#fff" stroke-linecap="round" stroke-linejoin="round" stroke-width="3.291" d="M149.565 119.099h-14.13m14.13 7.03h-14.13m10.13 7.03h-6.13"/><path stroke="#fff" stroke-linecap="round" stroke-linejoin="round" stroke-width="5" d="M118 98.168h0m4.086 14.744h0m40.701.541h0M167 98.168h0m-4.596-13.448h0m-11.568-8.893h0m-14.576-.66h0m-13.569 9.058h0"/><path stroke="#130738" stroke-linecap="round" stroke-linejoin="round" stroke-width="5" d="M205.996 92.46c-.469-3.289 1.879-11.743 12.682-11.274 12.671.551 14.134 13.943 7.046 20.198-7.985 7.045-8.455 7.515-8.455 14.561"/><path stroke="#130738" stroke-linecap="round" stroke-linejoin="round" stroke-width="5.5" d="M217.269 127.688v0"/><path stroke="#130738" stroke-linecap="round" stroke-linejoin="round" stroke-width="5" d="M64 83.168v34.757"/><path stroke="#130738" stroke-linecap="round" stroke-linejoin="round" stroke-width="5.5" d="M64 129.667v.001"/><defs><radialGradient id="g" cx="0" cy="0" r="1" gradientTransform="rotate(84.094 29.834 104.792) scale(14.5774)" gradientUnits="userSpaceOnUse"><stop stop-color="#fff" stop-opacity=".6"/><stop offset=".567" stop-color="#fff"/><stop offset=".6" stop-color="#fff" stop-opacity="0"/></radialGradient><radialGradient id="h" cx="0" cy="0" r="1" gradientTransform="matrix(-.5 8 -8 -.5 127 58.334)" gradientUnits="userSpaceOnUse"><stop stop-color="#fff" stop-opacity=".6"/><stop offset=".567" stop-color="#fff"/><stop offset=".6" stop-color="#fff" stop-opacity="0"/></radialGradient><filter id="d" width="142.491" height="206.1" x="71.505" y=".367" color-interpolation-filters="sRGB" filterUnits="userSpaceOnUse"><feFlood flood-opacity="0" result="BackgroundImageFix"/><feColorMatrix in="SourceAlpha" result="hardAlpha" values="0 0 0 0 0 0 0 0 0 0 0 0 0 0 0 0 0 0 127 0"/><feOffset/><feGaussianBlur stdDeviation="15.5"/><feComposite in2="hardAlpha" operator="out"/><feColorMatrix values="0 0 0 0 0.39282 0 0 0 0 0.443419 0 0 0 0 1 0 0 0 0.4 0"/><feBlend in2="BackgroundImageFix" result="effect1_dropShadow_528_2980"/><feBlend in="SourceGraphic" in2="effect1_dropShadow_528_2980" result="shape"/></filter><filter id="e" width="80.491" height="144.1" x="102.505" y="31.367" color-interpolation-filters="sRGB" filterUnits="userSpaceOnUse"><feFlood flood-opacity="0" result="BackgroundImageFix"/><feBlend in="SourceGraphic" in2="BackgroundImageFix" result="shape"/><feColorMatrix in="SourceAlpha" result="hardAlpha" values="0 0 0 0 0 0 0 0 0 0 0 0 0 0 0 0 0 0 127 0"/><feOffset/><feGaussianBlur stdDeviation="10"/><feComposite in2="hardAlpha" k2="-1" k3="1" operator="arithmetic"/><feColorMatrix values="0 0 0 0 0 0 0 0 0 0 0 0 0 0 0 0 0 0 0.3 0"/><feBlend in2="shape" result="effect1_innerShadow_528_2980"/><feColorMatrix in="SourceAlpha" result="hardAlpha" values="0 0 0 0 0 0 0 0 0 0 0 0 0 0 0 0 0 0 127 0"/><feOffset/><feGaussianBlur stdDeviation="3.5"/><feComposite in2="hardAlpha" k2="-1" k3="1" operator="arithmetic"/><feColorMatrix values="0 0 0 0 0 0 0 0 0 0 0 0 0 0 0 0 0 0 0.3 0"/><feBlend in2="effect1_innerShadow_528_2980" result="effect2_innerShadow_528_2980"/></filter><linearGradient id="f" x1="119" x2="156" y1="126.334" y2="40.334" gradientUnits="userSpaceOnUse"><stop offset=".221" stop-color="#fff" stop-opacity="0"/><stop offset=".255" stop-color="#fff" stop-opacity=".8"/><stop offset=".27" stop-color="#fff" stop-opacity="0"/><stop offset=".389" stop-color="#fff" stop-opacity="0"/><stop offset=".401" stop-color="#fff" stop-opacity=".7"/><stop offset="1" stop-color="#fff" stop-opacity="0"/></linearGradient></defs></svg>