<svg xmlns="http://www.w3.org/2000/svg" width="151" height="34" fill="none"><g fill="#130738" clip-path="url(#a)"><path d="M14.226.083a.864.864 0 1 0 .001 1.729.864.864 0 0 0 0-1.729Zm3.143 0a.864.864 0 1 0 0 1.729.864.864 0 0 0 0-1.729Zm3.143 0a.864.864 0 1 0 0 1.729.864.864 0 0 0 0-1.729ZM7.94 3.225a.865.865 0 1 0 0 1.73.865.865 0 0 0 0-1.73Zm18.856 0a.865.865 0 1 0 .001 1.73.865.865 0 0 0 0-1.73Zm-15.713.001a.864.864 0 1 0 0 1.729.864.864 0 0 0 0-1.729Zm12.57 0a.864.864 0 1 0 .001 1.728.864.864 0 0 0 0-1.728Zm-9.428 0a.864.864 0 1 0 .001 1.728.864.864 0 0 0 0-1.728Zm3.143 0a.864.864 0 1 0 0 1.728.864.864 0 0 0 0-1.728Zm3.143 0a.864.864 0 1 0 0 1.728.864.864 0 0 0 0-1.728ZM4.798 6.368a.865.865 0 1 0 0 1.73.865.865 0 0 0 0-1.73Zm25.142 0a.865.865 0 1 0 0 1.73.865.865 0 0 0 0-1.73Zm-22 0a.864.864 0 1 0 .002 1.73.864.864 0 0 0-.001-1.73Zm18.857 0a.864.864 0 1 0 .001 1.73.864.864 0 0 0 0-1.73Zm-15.713.001a.864.864 0 1 0 0 1.728.864.864 0 0 0 0-1.728Zm3.142 0a.864.864 0 1 0 .001 1.728.864.864 0 0 0 0-1.728Zm3.143 0a.864.864 0 1 0 0 1.728.864.864 0 0 0 0-1.728Zm3.143 0a.864.864 0 1 0 0 1.728.864.864 0 0 0 0-1.728Zm3.142 0a.864.864 0 1 0 .002 1.728.864.864 0 0 0-.002-1.728ZM4.798 9.512a.864.864 0 1 0 0 1.728.864.864 0 0 0 0-1.728Zm25.142 0a.864.864 0 1 0 0 1.728.864.864 0 0 0 0-1.728Zm-22 0a.864.864 0 1 0 .002 1.728.864.864 0 0 0-.001-1.728Zm3.144 0a.864.864 0 1 0 0 1.728.864.864 0 0 0 0-1.728Zm3.142 0a.864.864 0 1 0 .001 1.728.864.864 0 0 0 0-1.728Zm3.143 0a.864.864 0 1 0 0 1.728.864.864 0 0 0 0-1.728Zm3.143 0a.864.864 0 1 0 0 1.728.864.864 0 0 0 0-1.728Zm3.142 0a.864.864 0 1 0 .001 1.728.864.864 0 0 0 0-1.728Zm3.143 0a.864.864 0 1 0 .001 1.728.864.864 0 0 0 0-1.728ZM1.655 12.655a.864.864 0 1 0 0 1.728.864.864 0 0 0 0-1.728Zm3.143 0a.864.864 0 1 0 0 1.728.864.864 0 0 0 0-1.728Zm3.143 0a.864.864 0 1 0 0 1.728.864.864 0 0 0 0-1.728Zm3.143 0a.864.864 0 1 0 0 1.728.864.864 0 0 0 0-1.728Zm3.142 0a.864.864 0 1 0 0 1.728.864.864 0 0 0 0-1.728Zm3.143 0a.864.864 0 1 0 0 1.728.864.864 0 0 0 0-1.728Zm3.143 0a.864.864 0 1 0 0 1.728.864.864 0 0 0 0-1.728Zm3.142 0a.864.864 0 1 0 .001 1.728.864.864 0 0 0 0-1.728Zm3.143 0a.864.864 0 1 0 0 1.728.864.864 0 0 0 0-1.728Zm3.143 0a.864.864 0 1 0 0 1.728.864.864 0 0 0 0-1.728Zm3.143 0a.864.864 0 1 0 0 1.728.864.864 0 0 0 0-1.728ZM1.655 15.797a.864.864 0 1 0 .001 1.729.864.864 0 0 0 0-1.729Zm3.143 0a.864.864 0 1 0 0 1.729.864.864 0 0 0 0-1.729Zm3.143 0a.864.864 0 1 0 0 1.729.864.864 0 0 0 0-1.729Zm3.143 0a.864.864 0 1 0 0 1.728.864.864 0 0 0 0-1.728Zm3.142 0a.864.864 0 1 0 .001 1.728.864.864 0 0 0 0-1.728Zm3.143 0a.864.864 0 1 0 0 1.728.864.864 0 0 0 0-1.728Zm3.143 0a.864.864 0 1 0 0 1.728.864.864 0 0 0 0-1.728Zm3.142 0a.864.864 0 1 0 .001 1.728.864.864 0 0 0 0-1.728Zm3.143 0a.864.864 0 1 0 .001 1.728.864.864 0 0 0 0-1.728Zm3.143 0a.864.864 0 1 0 0 1.728.864.864 0 0 0 0-1.728Zm3.143 0a.864.864 0 1 0 0 1.728.864.864 0 0 0 0-1.728ZM1.655 18.94a.864.864 0 1 0 .001 1.728.864.864 0 0 0 0-1.728Zm3.143 0a.864.864 0 1 0 0 1.728.864.864 0 0 0 0-1.728Zm3.143 0a.864.864 0 1 0 0 1.728.864.864 0 0 0 0-1.728Zm3.143 0a.864.864 0 1 0 0 1.728.864.864 0 0 0 0-1.728Zm3.142 0a.864.864 0 1 0 .001 1.728.864.864 0 0 0 0-1.728Zm3.143 0a.864.864 0 1 0 0 1.728.864.864 0 0 0 0-1.728Zm3.143 0a.864.864 0 1 0 0 1.728.864.864 0 0 0 0-1.728Zm3.142 0a.864.864 0 1 0 .001 1.728.864.864 0 0 0 0-1.728Zm3.143 0a.864.864 0 1 0 .001 1.728.864.864 0 0 0 0-1.728Zm3.143 0a.864.864 0 1 0 0 1.728.864.864 0 0 0 0-1.728Zm3.143 0a.864.864 0 1 0 0 1.728.864.864 0 0 0 0-1.728ZM4.798 22.083a.864.864 0 1 0 0 1.728.864.864 0 0 0 0-1.728Zm25.142 0a.864.864 0 1 0 0 1.728.864.864 0 0 0 0-1.728Zm-22 0a.864.864 0 1 0 .002 1.728.864.864 0 0 0-.001-1.728Zm3.144 0a.864.864 0 1 0 0 1.728.864.864 0 0 0 0-1.728Zm3.142 0a.864.864 0 1 0 .001 1.728.864.864 0 0 0 0-1.728Zm3.143 0a.864.864 0 1 0 0 1.728.864.864 0 0 0 0-1.728Zm3.143 0a.864.864 0 1 0 0 1.728.864.864 0 0 0 0-1.728Zm3.142 0a.864.864 0 1 0 .001 1.728.864.864 0 0 0 0-1.728Zm3.143 0a.864.864 0 1 0 .001 1.728.864.864 0 0 0 0-1.728ZM4.798 25.224a.865.865 0 1 0 0 1.731.865.865 0 0 0 0-1.73Zm25.142 0a.865.865 0 1 0 0 1.731.865.865 0 0 0 0-1.73Zm-22 .002a.864.864 0 1 0 .001 1.728.864.864 0 0 0 0-1.729Zm18.857 0a.864.864 0 1 0 .001 1.728.864.864 0 0 0 0-1.729Zm-15.713 0a.864.864 0 1 0 0 1.728.864.864 0 0 0 0-1.728Zm3.142 0a.864.864 0 1 0 .001 1.728.864.864 0 0 0 0-1.728Zm3.143 0a.864.864 0 1 0 0 1.728.864.864 0 0 0 0-1.728Zm3.143 0a.864.864 0 1 0 0 1.728.864.864 0 0 0 0-1.728Zm3.142 0a.864.864 0 1 0 .001 1.728.864.864 0 0 0 0-1.728ZM7.941 28.367a.866.866 0 1 0 0 1.731.866.866 0 0 0 0-1.731Zm18.856 0a.865.865 0 1 0 .001 1.731.865.865 0 0 0 0-1.731Zm-15.713.001a.864.864 0 1 0 0 1.729.864.864 0 0 0 0-1.729Zm12.57 0a.864.864 0 1 0 .001 1.729.864.864 0 0 0 0-1.729Zm-9.428 0a.864.864 0 1 0 .001 1.729.864.864 0 0 0 0-1.729Zm3.143 0a.864.864 0 1 0 0 1.729.864.864 0 0 0 0-1.729Zm3.143 0a.864.864 0 1 0 0 1.729.864.864 0 0 0 0-1.729Zm-6.284 3.143a.864.864 0 1 0 .001 1.727.864.864 0 0 0 0-1.727Zm3.141 0a.864.864 0 1 0 0 1.728.864.864 0 0 0 0-1.728Zm3.143 0a.864.864 0 1 0 0 1.728.864.864 0 0 0 0-1.728Zm124.647-18.996-.188.002h-.013c-1.575.044-3.215.6-4.161 1.456a3.685 3.685 0 0 0-1.181 2.91 3.586 3.586 0 0 0 1.181 2.485c.889.805 2.152 1.29 3.543 1.426 1.33.13 2.696-.082 3.63-.61a3.69 3.69 0 0 0 1.783-2.368c.004-.02.007-.041.012-.06h-1.081c-.173.573-.754 1.23-1.304 1.493-.511.244-1.171.503-2.224.489a9.11 9.11 0 0 1-.228-.008 3.487 3.487 0 0 1-.527-.07c-.61-.133-1.171-.407-1.588-.821-.557-.553-.851-1.337-.851-2.17 0-.835.293-1.617.851-2.175.564-.565 1.399-.855 2.273-.87h.161c.967.014 1.529.142 2.252.508.456.23 1.098.895 1.233 1.573h1.001V12.97h-1.04v.293a.16.16 0 0 1-.077.137c-.048.026-.118.03-.21-.017-.45-.23-1.638-.867-3.247-.87Zm-100.632.012c-.915-.005-1.958.179-2.836.57-.817.364-1.49.952-1.49 1.931 0 .877.56 1.392.543 1.375.24.219.623.595 1.623.812.446.096 1.399.244 2.354.351.941.106 1.875.193 2.254.286.304.074.803.184.803.747 0 .569-.53.738-.625.775-.095.038-.73.329-1.88.329-.849 0-1.865-.254-2.237-.38-.428-.146-.873-.361-1.292-.875-.104-.126-.265-.474-.265-.818h-1.046v2.908h1.156v-.393c0-.04.06-.227.249-.137.239.115.948.389 1.693.544.604.127.996.217 1.748.217 1.233 0 1.894-.2 2.348-.33.439-.125.97-.349 1.396-.69.233-.187.745-.663.745-1.53 0-.834-.442-1.352-.602-1.507a2.8 2.8 0 0 0-.746-.508 5.345 5.345 0 0 0-.919-.319c-.6-.142-1.943-.33-2.582-.394-.675-.068-1.847-.17-2.31-.314-.144-.044-.436-.184-.436-.517 0-.236.137-.442.396-.608.407-.263 1.255-.417 2.123-.417 1.035 0 1.907.227 2.461.476.193.086.41.209.587.352.2.162.475.498.576.965h.935v-2.532h-1.04v.294c0 .098-.098.217-.286.12-.468-.243-1.781-.775-3.398-.783Zm12.503 0c-1.632 0-3.373.564-4.358 1.458a3.638 3.638 0 0 0-1.188 2.696c0 1.002.392 1.979 1.188 2.7 1.058.958 2.649 1.466 4.358 1.466 1.718 0 3.34-.507 4.37-1.466a3.755 3.755 0 0 0 1.17-2.7c0-.996-.382-1.974-1.17-2.69-1.106-1.005-2.552-1.464-4.37-1.464Zm68.647 0c-.913-.005-1.956.179-2.834.57-.817.364-1.491.952-1.491 1.931 0 .877.56 1.373.543 1.355.241.22.623.57 1.624.786.445.095 1.409.23 2.364.335.941.105 1.864.226 2.244.318.303.073.802.214.802.777 0 .569-.53.737-.623.775-.096.04-.731.329-1.881.329-.849 0-1.865-.254-2.238-.382-.428-.146-.873-.36-1.292-.873-.104-.127-.265-.475-.265-.818h-1.045v2.908h1.155v-.393c0-.04.061-.227.248-.137.24.117.949.389 1.695.544.604.127.995.215 1.748.215 1.232 0 1.893-.199 2.348-.328.439-.125.969-.349 1.397-.69.232-.186.743-.663.743-1.53a2.02 2.02 0 0 0-.602-1.473 2.722 2.722 0 0 0-.746-.495 5.015 5.015 0 0 0-.894-.29c-.601-.142-1.969-.335-2.607-.4-.675-.067-1.844-.198-2.307-.342-.144-.045-.437-.226-.437-.559 0-.236.136-.442.395-.608.408-.263 1.255-.417 2.122-.417 1.036 0 1.906.227 2.463.476.188.093.409.209.586.352.199.161.474.498.575.965h.934v-2.532h-1.038v.294c0 .098-.098.217-.288.12-.468-.24-1.781-.775-3.398-.783Zm7.238.468v.925h.982c.42 0 .396.326.396.326l-.012 4.89s.023.326-.398.326h-.981v.924h5.153v-.924h-1.029c-.421 0-.399-.328-.399-.328l-.012-4.888s-.024-.326.397-.326h1.031v-.925h-5.128Zm-56.786.003v.918h.907c.395 0 .648.251.799.412.12.128 2.71 3.072 2.774 3.153.064.081.064.094.064.13v1.506c0 .37-.39.345-.39.345h-.99v.924h5.066v-.926h-1.055s-.373.026-.373-.326v-1.491s-.004-.124.036-.17c.07-.081 2.695-3.07 2.811-3.204.253-.291.39-.353.73-.353h.93v-.918h-4.173v.918h.626a.18.18 0 0 1 .156.288L82.28 16.27h-.057l-1.726-2.066c-.126-.155-.024-.288.112-.288h.614v-.918h-5.094Zm21.598 0h-4.768v.92h.808c.583 0 .624.325.624.608v4.323c0 .262.017.613-.357.613h-1.001v.924h4.016v-.924h-.788c-.414 0-.437-.186-.444-.595l.002-4.706h.036l2.81 6.227h1.582l2.785-6.227h.038l.034 4.706c-.009.41-.031.595-.444.595h-.789v.924h4.867v-.924h-1c-.373 0-.358-.351-.358-.613l-.024-4.323c0-.283.04-.607.624-.607h.808v-.921h-4.68l-2.194 4.831-2.187-4.831Zm-34.018 0v.92h.808c.583 0 .624.325.624.608v4.323c0 .262.017.613-.357.613h-1.001v.924h4.267v-.924h-1.04c-.414 0-.436-.186-.444-.595v-3.701l5.852 5.22h1.487l-.079-5.896c.01-.428.035-.574.476-.574h.934v-.918h-4.342v.918h.956c.433 0 .51.174.514.574l.054 3.086-5.077-4.578h-3.632Zm44.496 0v.918h.9c.434 0 .511.174.515.574h.001v3.568c0 2.371 2.459 2.79 4.57 2.79 2.152 0 4.235-.44 4.235-2.716l-.016-3.855c.023-.264.106-.36.465-.36h.934v-.92h-4.3v.92h.855c.416 0 .503.161.513.528l-.004 3.72c0 .858-.313 1.796-2.682 1.796-2.218 0-2.124-1.53-2.124-1.788V14.44c.012-.388.052-.524.476-.524h.909v-.918h-5.247Zm-51.175.612c.897 0 1.761.327 2.34.896.566.555.857 1.331.857 2.175 0 .873-.271 1.584-.857 2.168-.585.584-1.425.9-2.34.9-.898 0-1.759-.32-2.343-.9-.557-.553-.852-1.336-.852-2.168 0-.835.295-1.619.852-2.175.58-.579 1.445-.896 2.343-.896Z"/></g><defs><clipPath id="a"><path fill="#fff" d="M.094.083h150v33.333h-150z"/></clipPath></defs></svg>