<svg xmlns="http://www.w3.org/2000/svg" width="82" height="26" fill="none"><g clip-path="url(#a)"><path fill="#130738" d="M77.862.25c2 0 3.62 1.621 3.62 3.621V21.63c0 2-1.62 3.62-3.62 3.621H4.625c-2 0-3.62-1.621-3.62-3.621V3.87c0-2 1.62-3.62 3.62-3.621h73.237ZM64.584 13.357a3.622 3.622 0 1 0 0 7.244 3.622 3.622 0 0 0 0-7.244Zm8.449 0a3.621 3.621 0 1 0 0 7.243 3.621 3.621 0 0 0 0-7.243Zm-8.45.708a2.917 2.917 0 0 1 2.915 2.914 2.917 2.917 0 0 1-2.915 2.914 2.918 2.918 0 0 1-2.914-2.915 2.918 2.918 0 0 1 2.915-2.914Zm8.45 0a2.917 2.917 0 0 1 2.914 2.914 2.917 2.917 0 0 1-2.914 2.914 2.917 2.917 0 0 1-2.914-2.915 2.917 2.917 0 0 1 2.914-2.914Zm-26.5-5.172c-2.029 0-3.457 1.457-3.457 3.864 0 2.214 1.2 3.857 3.443 3.857 1.793 0 2.636-.95 3.143-1.935l-1.772-.929c-.414.707-.693 1.215-1.35 1.215-.907 0-1.507-1.065-1.507-2.208 0-1.143.608-2.214 1.486-2.214.693 0 .95.593 1.22 1.293l1.901-.736c-.521-1.414-1.25-2.207-3.107-2.207Zm-31.15.122-2.756 7.521h2.092l.492-1.422h2.45l.494 1.422h2.106l-2.757-7.521h-2.12Zm22.408 0-2.757 7.521h2.093l.492-1.422h2.45l.493 1.422h2.107l-2.757-7.521H37.79Zm-18.351 0 2.957 5.207v2.243h1.843v-2.28l2.954-5.17H25.01c-.017.034-1.542 3.007-1.677 3.442-.143-.434-1.662-3.41-1.68-3.442H19.44Zm37.96 7.442.005.008v-.008H57.4ZM6.633 9.007v7.45h1.844v-2.414h1.242c1.814 0 3.086-.671 3.086-2.578l-.007-.298c-.136-1.563-1.275-2.16-2.935-2.16h-3.23Zm21.444 0v7.45h3.508c1.892 0 2.75-.886 2.75-2.407l-.005-.147c-.047-.753-.438-1.228-1.068-1.496.5-.286.9-.65.9-1.457 0-1.25-.764-1.942-2.628-1.942h-3.457Zm22.715 0v7.45h1.842v-2.186l1.093-1.17 1.629 3.356h2.046l-2.54-4.606 2.286-2.843h-2.186c-.03.04-2.052 2.71-2.364 3.192.021-.538.036-3.151.036-3.192H50.79ZM31.74 13.33c.5 0 .822.435.822.878l-.008.155c-.067.377-.365.739-.821.739h-1.814V13.33h1.82Zm-15.314-2.78c.1.5.843 3.151.843 3.151h-1.685c.002-.01.75-2.644.842-3.15Zm22.408 0c.1.5.842 3.151.842 3.151h-1.685c.002-.01.75-2.644.843-3.15Zm-29.073.016c.665 0 .993.485.993.978l.003.105c-.04.513-.388.902-1.024.902H8.397v-1.986h1.364ZM64.584 4.9a3.622 3.622 0 1 0-.001 7.244 3.622 3.622 0 0 0 0-7.244Zm8.456 0a3.626 3.626 0 0 0-3.622 3.621 3.622 3.622 0 0 0 7.244 0 3.63 3.63 0 0 0-3.622-3.62Zm-41.457 5.586c.65 0 .822.45.822.779l-.012.14c-.052.306-.291.573-.81.574H29.92v-1.493h1.665Zm33-4.879a2.917 2.917 0 0 1 2.915 2.914 2.917 2.917 0 0 1-2.915 2.914 2.918 2.918 0 0 1-2.914-2.914 2.918 2.918 0 0 1 2.915-2.914Zm-37.39 3.408h.012l-.007-.007-.004.007Z"/></g><defs><clipPath id="a"><path fill="#fff" d="M.485.25h81.25v25H.485z"/></clipPath></defs></svg>