<svg xmlns="http://www.w3.org/2000/svg" width="83" height="25" fill="none"><path fill="#130738" d="M20.67 6.214C21.223.057 27.46.629 31.812.899l.377 3.76c-2.253-.175-4.969-1.154-6.865.537-2.538 3.696 7.553 3.382 8.024 8.675.568 6.37-7.23 8.132-12.117 6.52l-.052-3.7c2.28.774 8.711 1.607 7.515-2.364-.778-2.582-8.614-1.781-8.026-8.113Zm17.978 10.85h6.078l-1.52 3.759H34.47V.899h4.178v16.164Zm38.934-3.004.19-13.162h4.559v19.924h-4.775l-8.9-12.405v12.405h-4.504L64.478.898h4.179l8.925 13.162Zm-13.865 6.76-4.561-.179-1.75-3.977-7.314.071-1.423 4.047h-4.497L52.324.898h3.419l7.974 19.921Zm-42.978-.152h-4.57l-1.703-3.996-7.302.057-1.565 3.939H1.167L9.402.899h3.419l7.918 19.768ZM8.642 13.3l4.557.002-1.903-5.834h-.748L8.642 13.3Zm42.728.002 4.753-.002-1.903-5.636h-.976l-1.874 5.638Zm31.596 9.192v2.256L.533 24.556l.624-2.085 81.81.023Z"/></svg>