<svg xmlns="http://www.w3.org/2000/svg" width="55" height="56" fill="none"><g clip-path="url(#a)"><path fill="#fff" d="M0 .333h55v55H0z"/><g clip-path="url(#b)"><path fill="url(#c)" d="M49.629.333H5.37A5.371 5.371 0 0 0 0 5.705v44.257a5.371 5.371 0 0 0 5.371 5.371H49.63A5.371 5.371 0 0 0 55 49.964V5.704A5.371 5.371 0 0 0 49.629.333Z"/><path fill="#fff" d="M45.271 7.484H33.653a2.578 2.578 0 0 0-2.578 2.578v18.906a2.578 2.578 0 0 0 2.578 2.578H45.27a2.578 2.578 0 0 0 2.578-2.578V10.062a2.578 2.578 0 0 0-2.578-2.578Zm-23.925 0H9.728a2.578 2.578 0 0 0-2.578 2.578v32.656a2.578 2.578 0 0 0 2.578 2.578h11.618a2.578 2.578 0 0 0 2.579-2.578V10.062a2.578 2.578 0 0 0-2.579-2.578Z"/></g></g><defs><clipPath id="a"><path fill="#fff" d="M0 .333h55v55H0z"/></clipPath><clipPath id="b"><path fill="#fff" d="M0 .333h55v55H0z"/></clipPath><linearGradient id="c" x1="2750" x2="2750" y1=".333" y2="5500.33" gradientUnits="userSpaceOnUse"><stop stop-color="#0091E6"/><stop offset="1" stop-color="#0079BF"/></linearGradient></defs></svg>