<svg xmlns="http://www.w3.org/2000/svg" width="24" height="25" fill="none"><path fill="#683BFF" d="m7.827 15.579 3.11-8.182a.697.697 0 0 1 .3-.382.86.86 0 0 1 .463-.136h.6a.86.86 0 0 1 .464.136.7.7 0 0 1 .3.382l3.109 8.264c.09.254.064.49-.082.709a.709.709 0 0 1-.627.327.804.804 0 0 1-.464-.15.76.76 0 0 1-.3-.395l-.682-1.964h-3.982l-.681 1.99a.697.697 0 0 1-.3.383.86.86 0 0 1-.464.136.75.75 0 0 1-.668-.354.842.842 0 0 1-.096-.764Zm2.7-2.81h2.946l-1.418-4.09h-.11l-1.418 4.09Z"/><path fill="#130738" d="M0 23.243v-4.364c0-.31.105-.568.314-.777.209-.21.468-.314.777-.314h1.09V6.878h-1.09c-.31 0-.568-.104-.777-.313A1.056 1.056 0 0 1 0 5.788V1.424C0 1.115.105.856.314.647.523.438.782.333 1.09.333h4.364c.309 0 .568.105.777.314.209.21.313.468.313.777v1.091h10.91v-1.09c0-.31.104-.569.313-.778.21-.209.468-.314.777-.314h4.364c.31 0 .568.105.777.314.21.21.314.468.314.777v4.364c0 .31-.105.568-.314.777-.209.21-.468.314-.777.314h-1.09v10.909h1.09c.31 0 .568.105.777.314.21.209.314.468.314.777v4.364c0 .309-.105.568-.314.777a1.056 1.056 0 0 1-.777.314h-4.363c-.31 0-.569-.105-.778-.314a1.056 1.056 0 0 1-.314-.777v-1.091H6.545v1.09c0 .31-.104.569-.313.778-.21.209-.468.314-.777.314H1.09c-.31 0-.568-.105-.777-.314A1.056 1.056 0 0 1 0 23.243Zm6.545-3.273h10.91v-1.091c0-.31.104-.568.313-.777.21-.21.468-.314.777-.314h1.091V6.878h-1.09c-.31 0-.569-.104-.778-.313a1.056 1.056 0 0 1-.314-.777v-1.09H6.545v1.09c0 .31-.104.568-.313.777-.21.21-.468.314-.777.314H4.364v10.909h1.09c.31 0 .569.105.778.314.209.209.313.468.313.777v1.09ZM2.182 4.697h2.182V2.515H2.182v2.182Zm17.454 0h2.182V2.515h-2.182v2.182Zm0 17.455h2.182V19.97h-2.182v2.182Zm-17.454 0h2.182V19.97H2.182v2.182Z"/></svg>