<svg xmlns="http://www.w3.org/2000/svg" width="122" height="31" fill="none"><g fill="#130738" clip-path="url(#a)"><path d="M11.493 12.677c-1.197 0-2.103.582-2.171 2.718h4.171c-.017-2.427-1.009-2.718-2-2.718Z"/><path d="M13.493 4.882h-4.24c-5.811 0-9.162 3.693-9.162 9.505v3.897c0 5.812 3.693 9.504 9.487 9.504h3.898c5.812 0 9.487-3.692 9.487-9.504v-4.24c.017-5.811-3.675-9.162-9.47-9.162Zm3.077 12.48H9.288c.256 1.828 1.487 2.136 2.718 2.136 1.367 0 3.983-.855 3.983-.855v2.53s-2.017.786-3.983.786c-2.205 0-5.812-.41-5.812-5.64 0-4.667 3.077-5.761 5.299-5.761 2.41 0 5.077.957 5.077 5.726v1.077ZM42.98.917h-4.495c-7.624 0-12.753 5.145-12.753 12.752v4.495c0 7.624 5.146 12.753 12.753 12.753h4.495c7.624 0 12.752-5.146 12.752-12.753v-4.837c0-7.607-5.145-12.41-12.752-12.41Zm3.607 22.222s-3.504.94-5.949.94c-2.82 0-7.213-.581-7.213-8.393 0-7.18 4.7-8.53 7.829-8.53 2.684 0 4.393.991 4.393.991v2.77s-2.325-.89-4.393-.89c-2.24 0-4.308 1.249-4.308 5.676 0 4.838 2.069 5.556 3.641 5.556 1.009 0 2.462-.36 2.462-.36v-4.273h-3.06l-.24-2.752h6.838v9.265ZM75.715.917H71.22c-7.623 0-12.752 5.145-12.752 12.752v4.495c0 7.624 5.146 12.753 12.752 12.753h4.496c7.624 0 12.752-5.146 12.752-12.753v-4.837C88.484 5.72 83.34.917 75.715.917Zm-.547 16.393v6.547h-3.521V17.31l-5.18-9.932h4.052l2.888 7.3 2.872-7.3h4.069l-5.18 9.932ZM108.467.917h-4.495c-7.624 0-12.752 5.145-12.752 12.752v4.495c0 7.624 5.145 12.753 12.752 12.753h4.495c7.624 0 12.752-5.146 12.752-12.753v-4.837c.018-7.607-5.128-12.41-12.752-12.41Zm2.411 22.923-.12-6.257c-.051-2.17.308-5.487.308-5.487s-.872 2.36-2.052 4.256l-2.752 4.445-2.769-4.445c-1.06-1.692-2.017-4.239-2.017-4.239s.359 3.111.308 5.453l-.12 6.257H98.16l.564-16.462h2.906l4.632 8.085 4.65-8.068h2.889l.564 16.462h-3.487Z"/></g><defs><clipPath id="a"><path fill="#fff" d="M.091.917h121.145v30H.091z"/></clipPath></defs></svg>