<svg xmlns="http://www.w3.org/2000/svg" width="55" height="56" fill="none"><path fill="#fff" d="M0 .333h55v55H0z"/><path fill="#000" d="M44.858 24.525a9.763 9.763 0 0 0-.839-8.02 9.874 9.874 0 0 0-10.635-4.736 9.767 9.767 0 0 0-7.364-3.284 9.876 9.876 0 0 0-9.42 6.836 9.767 9.767 0 0 0-6.528 4.736 9.877 9.877 0 0 0 1.215 11.579 9.762 9.762 0 0 0 .839 8.019 9.874 9.874 0 0 0 10.635 4.737 9.76 9.76 0 0 0 7.364 3.282 9.876 9.876 0 0 0 9.423-6.841 9.767 9.767 0 0 0 6.529-4.736 9.878 9.878 0 0 0-1.218-11.575v.003Zm-14.73 20.588a7.32 7.32 0 0 1-4.702-1.7c.06-.031.164-.089.231-.13l7.804-4.508c.4-.226.644-.651.642-1.11V26.663l3.298 1.905a.116.116 0 0 1 .064.09v9.11a7.353 7.353 0 0 1-7.338 7.345Zm-15.78-6.74a7.313 7.313 0 0 1-.875-4.92c.057.034.159.097.231.138l7.804 4.507a1.27 1.27 0 0 0 1.282 0l9.527-5.501v3.809a.122.122 0 0 1-.046.101l-7.889 4.555a7.353 7.353 0 0 1-10.032-2.688h-.002ZM12.295 21.34a7.32 7.32 0 0 1 3.822-3.22c0 .067-.004.186-.004.27v9.014a1.27 1.27 0 0 0 .64 1.11l9.528 5.5-3.298 1.904a.117.117 0 0 1-.112.01l-7.89-4.558a7.353 7.353 0 0 1-2.688-10.03h.002Zm27.097 6.305-9.527-5.5 3.298-1.904a.117.117 0 0 1 .112-.01l7.89 4.555a7.347 7.347 0 0 1-1.135 13.253v-9.284a1.268 1.268 0 0 0-.636-1.11h-.002Zm3.282-4.94a9.476 9.476 0 0 0-.231-.138l-7.804-4.507a1.271 1.271 0 0 0-1.282 0l-9.527 5.5v-3.809a.122.122 0 0 1 .047-.101l7.888-4.551a7.343 7.343 0 0 1 10.907 7.605h.002Zm-20.637 6.789-3.3-1.905a.115.115 0 0 1-.063-.09v-9.111a7.346 7.346 0 0 1 12.045-5.641c-.06.032-.163.09-.232.131l-7.803 4.507c-.4.226-.645.65-.642 1.11l-.005 10.996v.003Zm1.792-3.863 4.243-2.45 4.244 2.449v4.9l-4.244 2.449-4.243-2.45v-4.898Z"/></svg>