<svg xmlns="http://www.w3.org/2000/svg" width="386" height="159" fill="none"><path stroke="#683BFF" stroke-linecap="round" stroke-width="4" d="M114.713 93.292v-5.318m0 18.636v5.319m-7.494-11.886h-5.318m18.636 0h5.318"/><path stroke="#130738" stroke-width="4" d="M57.919 20.18h32.207c6.404 0 11.596 5.191 11.596 11.595v73.045c0 6.404-5.192 11.596-11.596 11.596H57.918c-6.404 0-11.595-5.192-11.595-11.596V31.775c0-6.404 5.191-11.596 11.596-11.596Z"/><path fill="#130738" d="M65 28.333a2 2 0 0 1 2-2h14a2 2 0 0 1 0 4H67a2 2 0 0 1-2-2Z" opacity=".25"/><path stroke="#683BFF" stroke-linecap="round" stroke-width="4" d="M30.49 33.759v-10.85m0 29.7v10.85M20.922 43.04h-10.85"/><path stroke="#fff" stroke-linecap="round" stroke-width="9" d="M42.272 42.834h5.849"/><path stroke="#683BFF" stroke-linecap="round" stroke-width="4" d="M39.772 43.04h10.849m-12.632 80.108v-2.843m0 13.688v2.843m-6.566-8.593H28.58m14.503 0h2.844"/><path stroke="#fff" stroke-width="3.399" d="m58.356 55.829 11.49 11.49-55.562 55.561-11.49-11.49z"/><path fill="#130738" stroke="#130738" stroke-width="4.249" d="m60.46 63.34 1.876 1.876a2.975 2.975 0 0 1 .278 3.884l-6.04-6.04a2.975 2.975 0 0 1 3.886.28Z"/><path fill="#fff" stroke="#130738" stroke-width="4.249" d="m53.55 66.043 6.082 6.082-10.214 10.214-6.082-6.082z"/><path fill="#130738" stroke="#130738" stroke-width="4.249" d="m46.413 85.344-35.148 35.148a2.974 2.974 0 0 1-4.206.001l-1.877-1.876a2.975 2.975 0 0 1 0-4.207l35.15-35.149 6.081 6.083Z"/><circle cx="336.093" cy="102.475" r="47.108" stroke="#DADADA" stroke-width="3.5"/><circle cx="281.711" cy="102.475" r="47.108" stroke="#DADADA" stroke-width="3.5"/><circle cx="308.052" cy="53.192" r="47.108" stroke="#DADADA" stroke-width="3.5"/><mask id="a" width="63" height="61" x="277.11" y="50.38" fill="#000" maskUnits="userSpaceOnUse"><path fill="#fff" d="M277.11 50.38h63v61h-63z"/><path d="M308.616 61.38c11.704 7.845 19.833 20.606 21.431 35.329a48.71 48.71 0 0 1-22.24 5.338 48.737 48.737 0 0 1-20.697-4.585c1.398-15.04 9.604-28.104 21.506-36.082Z"/></mask><path fill="#683BFF" d="M308.616 61.38c11.704 7.845 19.833 20.606 21.431 35.329a48.71 48.71 0 0 1-22.24 5.338 48.737 48.737 0 0 1-20.697-4.585c1.398-15.04 9.604-28.104 21.506-36.082Z"/><path fill="#fff" d="m308.616 61.38 4.849-7.235-4.849-3.25-4.849 3.25 4.849 7.235Zm21.431 35.329 3.965 7.755 5.341-2.731-.647-5.964-8.659.94Zm-22.24 5.338v8.709-8.709Zm-20.697-4.585-8.672-.806-.567 6.101 5.55 2.595 3.689-7.89Zm21.506-36.082-4.849 7.235c9.641 6.461 16.311 16.956 17.621 29.034l8.659-.94 8.659-.94c-1.885-17.369-11.474-32.397-25.241-41.624l-4.849 7.235Zm21.431 35.329-3.965-7.755a40.004 40.004 0 0 1-18.275 4.383v17.419c9.42 0 18.334-2.268 26.205-6.292l-3.965-7.755Zm-22.24 5.338v-8.71a40.03 40.03 0 0 1-17.008-3.765l-3.689 7.89-3.689 7.89a57.454 57.454 0 0 0 24.386 5.404v-8.709Zm-20.697-4.585 8.673.806c1.146-12.339 7.878-23.082 17.683-29.654l-4.85-7.234-4.849-7.235c-14 9.385-23.68 24.77-25.329 42.51l8.672.807Z" mask="url(#a)"/><path fill="#683BFF" d="M308.616 61.38c11.704 7.845 19.833 20.606 21.431 35.329a48.71 48.71 0 0 1-22.24 5.338 48.737 48.737 0 0 1-20.697-4.585c1.398-15.04 9.604-28.104 21.506-36.082Z"/><path stroke="#fff" stroke-linecap="round" stroke-linejoin="round" stroke-width="5" d="m299.855 86.997 5.01 4.97 11.134-11.046"/><path fill="#fff" d="M306.97 62.534a2.787 2.787 0 0 1 3.294 0c10.285 7.523 17.523 18.963 19.517 32.125a2.785 2.785 0 0 1-1.593 2.952 48.743 48.743 0 0 1-20.382 4.436 48.765 48.765 0 0 1-18.765-3.733 2.784 2.784 0 0 1-1.69-2.95c1.839-13.458 9.15-25.173 19.619-32.83Z"/><path fill="#683BFF" d="M307.806 102.047v2-2Zm-18.765-3.733-.768 1.847.768-1.847Zm40.74-3.654 1.978-.3-1.978.3Zm-1.593 2.95-.834-1.817.834 1.818Zm-17.924-35.076-1.181 1.614c9.869 7.218 16.809 18.192 18.721 30.811l1.977-.3 1.978-.299c-2.077-13.706-9.613-25.613-20.315-33.44l-1.18 1.614Zm17.924 35.077-.834-1.818a46.741 46.741 0 0 1-19.548 4.254v4a50.738 50.738 0 0 0 21.217-4.619l-.835-1.817Zm-20.382 4.436v-2a46.758 46.758 0 0 1-17.997-3.58l-.768 1.847-.768 1.847a50.766 50.766 0 0 0 19.533 3.886v-2Zm-20.455-6.682 1.982.27c1.762-12.903 8.773-24.14 18.817-31.487l-1.18-1.614-1.181-1.614c-10.892 7.966-18.505 20.16-20.419 34.174l1.981.27Zm1.69 2.95.768-1.847a.782.782 0 0 1-.476-.833l-1.982-.27-1.981-.271a4.783 4.783 0 0 0 2.903 5.067l.768-1.847Zm40.74-3.656-1.977.3a.785.785 0 0 1-.45.834l.834 1.818.835 1.817a4.786 4.786 0 0 0 2.736-5.068l-1.978.3Zm-19.517-32.125 1.18-1.615a4.787 4.787 0 0 0-5.655 0l1.181 1.615 1.18 1.614a.788.788 0 0 1 .933 0l1.181-1.614Z"/><path stroke="#683BFF" stroke-linecap="round" stroke-linejoin="round" stroke-width="4" d="m299.855 86.997 5.01 4.97 11.134-11.046"/><circle cx="351.263" cy="100.89" r="6.072" stroke="#130738" stroke-width="4"/><path stroke="#130738" stroke-width="4" d="M348.569 113.094h5.703c5.621 0 10.177 4.557 10.177 10.177 0 .848-.687 1.534-1.535 1.534h-22.986a1.534 1.534 0 0 1-1.535-1.534c0-5.444 4.275-9.89 9.652-10.163l.524-.014Z"/><path stroke="#130738" stroke-linecap="round" stroke-linejoin="round" stroke-width="4" d="M270.276 103.31c.132-1.937-.634-5.68-6.869-5.68m0 0c-5.681 0-6.341 3.828-6.341 5.68 0 2.906 1.321 5.032 6.341 5.944 4.359.793 7.133 2.246 7.133 5.813 0 2.377-1.057 5.812-7.133 5.812m0-23.25v-4.812m0 28.062c-4.862 0-6.341-3.743-6.341-5.812m6.341 5.812v5.077"/><path stroke="#130738" stroke-width="4" d="M308.352 19.193c8.281 0 14.994 6.713 14.994 14.994 0 8.281-6.713 14.994-14.994 14.994-8.281 0-14.994-6.713-14.994-14.994 0-8.281 6.713-14.994 14.994-14.994Z"/><path stroke="#130738" stroke-linecap="round" stroke-linejoin="round" stroke-width="4" d="M307.927 26.115v8.497h5.523"/><path stroke="#683BFF" stroke-linecap="round" stroke-linejoin="round" stroke-width="9.5" d="M156.9 40.93c-.943-6.601 3.772-23.573 25.458-22.63 25.434 1.106 28.373 27.989 14.144 40.544-16.03 14.143-16.972 18.858-16.972 33.001"/><path stroke="#683BFF" stroke-linecap="round" stroke-linejoin="round" stroke-width="10.49" d="M179.53 114.924v0"/></svg>