<svg xmlns="http://www.w3.org/2000/svg" width="42" height="86" fill="none"><path fill="#130738" d="M30.603 37.414a2 2 0 1 1-2.829-2.828l2.829 2.828Zm-2.47-3.187a2 2 0 0 1 2.826 2.83l-2.826-2.83Zm7.058-1.412a2 2 0 0 1-2.864-2.792l2.864 2.792Zm-2.19-3.49a2 2 0 0 1 2.895 2.76L33 29.325Zm6.866-2.455a2 2 0 1 1-3.596-1.752l3.596 1.752Zm-3.292-2.469a2 2 0 1 1 3.763 1.356l-3.764-1.356Zm4.612-5.199a2 2 0 1 1-4-.025l4 .025ZM29.189 36l-1.415-1.414.359-.359 1.413 1.416 1.413 1.415-.356.356L29.188 36Zm4.57-4.58-1.432-1.397c.236-.241.46-.474.673-.697l1.448 1.38 1.448 1.379c-.226.237-.46.48-.705.73L33.76 31.42Zm4.31-5.426-1.798-.876c.116-.237.216-.474.303-.717l1.882.678 1.882.678a11.22 11.22 0 0 1-.47 1.113l-1.799-.876Zm1.118-6.804-2-.013.002-.49h4l-.002.515-2-.012Z" opacity=".3"/><path fill="#130738" d="M41.182 19.18C40.915 8.56 32.309 0 21.688 0 10.9 0 2.189 8.835 2.189 19.688c0 3.955.819 6.88 2.189 9.311 1.17 2.075 2.704 3.71 4.203 5.22l.64.64c.027.027.054.054.083.08l24.134 21.513c1.98 2.006 3.752 5.904 3.752 9.86C37.19 74.997 30.23 82 21.69 82s-15.5-7.003-15.5-15.688c0-3.107 1.029-5.92 2.428-8.303a5.553 5.553 0 0 1-.04-.657V54.5H6.107c-2.09 3.071-3.92 7.1-3.92 11.813C2.188 77.165 10.9 86 21.688 86c10.79 0 19.5-8.835 19.5-19.688 0-4.834-2.046-9.636-4.702-12.46l-.258-.266-.084-.08-24.141-21.52c-1.731-1.731-3.126-3.15-4.142-4.952-.99-1.758-1.673-3.99-1.673-7.346C6.188 11.002 13.148 4 21.688 4c8.407 0 15.283 6.787 15.496 15.282l.005.405.01.206a2 2 0 0 0 3.99-.206l-.007-.506Z"/><path stroke="#683BFF" stroke-linecap="round" stroke-linejoin="round" stroke-width="4" d="M14.188 59V49h-11"/></svg>