<svg xmlns="http://www.w3.org/2000/svg" width="111" height="36" fill="none"><path fill="#130738" d="M16.847 33.58c-.817-.717-2.852-2.958-3.008-3.335-.626-1.47-.974-3.083-.33-5.252-.018.018-.053.036-.07.053-.4.664-1.026 1.345-1.982 2.188.174-.664.4-1.291.678-1.919-.782-3.101-.313-8.48-.417-11.222a3.54 3.54 0 0 1-1.773.197c.608-.18 1.2-.466 1.755-.824 1.478-7.548.696-11.994-.643-13.249C8.71-.446 3.947-.052 1.46 8.141c.557 2.76 1.634 4.016 3.651 5.504-2.156-.359-3.407-1.99-4.277-4.231-.73 2.635-.904 7.422 1.096 11.115a12.282 12.282 0 0 0 4.624 1.2 7.917 7.917 0 0 1-4.19-.16c2.486 5.431 6.52 7.798 9.232 9.07.313.162.626.36.904.592a21.782 21.782 0 0 1-1.234-1.613 22.296 22.296 0 0 1-3.477-7.404 27.746 27.746 0 0 1-.835-7.852 45.48 45.48 0 0 1 .939-7.512c.087-.394.452-.663.852-.573.052.018.087.018.122.036.452.161.73.61.66 1.093v.036a45.642 45.642 0 0 0-1.06 7.189 25.76 25.76 0 0 0 .643 7.386 21.145 21.145 0 0 0 3.112 6.955c1.46 2.152 3.269 4.052 5.25 5.773.227.18.279.52.122.753a.432.432 0 0 1-.47.143c.627.377 1.027.359 1.027.359s.886-.502-1.304-2.42ZM26.77 11.2l.115 4.455h-.408a4.542 4.542 0 0 0-1.414-2.69 3.592 3.592 0 0 0-2.436-1.02 2.239 2.239 0 0 0-.86.127 2.17 2.17 0 0 0-.746.436 1.66 1.66 0 0 0-.592 1.232c0 .278.07.548.208.788.245.346.56.647.93.88a20.77 20.77 0 0 0 2.128 1.164 9.537 9.537 0 0 1 3.182 2.179c.538.676.822 1.495.815 2.343 0 .541-.108 1.082-.338 1.578a3.896 3.896 0 0 1-.976 1.307 4.647 4.647 0 0 1-1.545.924c-.577.21-1.184.3-1.799.286-.4 0-.791-.045-1.183-.128a9.575 9.575 0 0 1-1.422-.48 2.11 2.11 0 0 0-.776-.166.943.943 0 0 0-.546.195 1.462 1.462 0 0 0-.469.601h-.369v-5.056h.377a5.74 5.74 0 0 0 1.683 3.246 3.94 3.94 0 0 0 2.682 1.127 2.54 2.54 0 0 0 1.768-.601c.338-.286.561-.669.63-1.09.077-.42 0-.856-.223-1.224a2.793 2.793 0 0 0-.768-.841 12.039 12.039 0 0 0-1.822-1.037 15.77 15.77 0 0 1-2.636-1.533 4.698 4.698 0 0 1-1.237-1.42 3.55 3.55 0 0 1-.43-1.72 3.662 3.662 0 0 1 .292-1.48c.2-.466.507-.894.883-1.247a4.055 4.055 0 0 1 1.353-.85 4.279 4.279 0 0 1 1.599-.262c.43-.008.86.037 1.275.135.408.105.807.256 1.184.436.284.165.607.27.937.323a.558.558 0 0 0 .408-.158c.146-.233.246-.488.276-.759h.277-.008Zm6.563 12.306c-1.13.992-2.145 1.488-3.044 1.488-.246 0-.492-.038-.715-.128-.23-.09-.43-.226-.607-.39a1.807 1.807 0 0 1-.4-.594 1.679 1.679 0 0 1-.122-.699c0-.36.092-.714.246-1.037.153-.323.384-.616.668-.856.607-.564 1.937-1.315 3.974-2.246v-.925a4.197 4.197 0 0 0-.116-1.314 1.078 1.078 0 0 0-.43-.474 1.317 1.317 0 0 0-.715-.202 1.819 1.819 0 0 0-1.06.285.573.573 0 0 0-.185.173.553.553 0 0 0-.077.24.846.846 0 0 0 .277.511c.223.218.361.511.377.812 0 .15-.031.308-.093.443-.061.143-.153.27-.269.375a1.302 1.302 0 0 1-.945.338 1.551 1.551 0 0 1-1.045-.375 1.157 1.157 0 0 1-.415-.879c.015-.503.23-.984.592-1.352.415-.451.945-.79 1.537-.984a6.651 6.651 0 0 1 2.105-.316 3.468 3.468 0 0 1 2.09.563c.454.3.8.722 1 1.21.115.616.154 1.24.115 1.863v3.576c-.015.263 0 .534.046.789a.49.49 0 0 0 .146.24.317.317 0 0 0 .23.075c.178 0 .347-.12.524-.368l.292.233a3.69 3.69 0 0 1-1.03 1.06c-.354.217-.761.33-1.184.33a1.908 1.908 0 0 1-1.237-.368 1.665 1.665 0 0 1-.546-1.112l.016.015Zm0-.721v-3.088a5.801 5.801 0 0 0-1.768 1.495 1.825 1.825 0 0 0-.392 1.075c0 .293.115.585.33.796a.924.924 0 0 0 .692.263c.43-.053.83-.24 1.13-.549l.008.008Zm8.115-6.183v6.408c-.046.398.023.804.2 1.165.154.135.346.24.546.3.207.06.422.068.63.038v.353h-5.48v-.353c.308.015.607-.03.892-.143a.74.74 0 0 0 .361-.368c.084-.323.123-.654.1-.984v-6.401h-1.353v-.97h1.353v-1.141a3.011 3.011 0 0 1 .253-1.292 3.11 3.11 0 0 1 .784-1.075 4.106 4.106 0 0 1 2.836-.939 2.968 2.968 0 0 1 1.814.459c.177.112.315.263.423.435.1.173.161.369.169.571a.989.989 0 0 1-.361.767 1.383 1.383 0 0 1-.977.323 1.24 1.24 0 0 1-.822-.263.78.78 0 0 1-.3-.586c.008-.12.031-.248.062-.368a1.48 1.48 0 0 0 .038-.316c0-.053 0-.113-.023-.165a.57.57 0 0 0-.092-.143.878.878 0 0 0-.177-.113.674.674 0 0 0-.207-.037.667.667 0 0 0-.27.06.588.588 0 0 0-.214.173 1.212 1.212 0 0 0-.192.758v2.9h1.367v.97l-1.344-.03-.016.007Zm9.56 3.298h-5.087c0 1.037.338 2.051.984 2.892.184.248.438.451.722.594.284.143.6.218.922.218a1.88 1.88 0 0 0 1.1-.3c.414-.324.76-.722 1.03-1.165l.337.218a5.58 5.58 0 0 1-1.667 2.163 3.897 3.897 0 0 1-2.828.57 3.88 3.88 0 0 1-1.368-.525 3.692 3.692 0 0 1-1.046-.984 5.47 5.47 0 0 1-.853-3.155c-.077-1.33.377-2.637 1.26-3.674.354-.42.8-.766 1.315-.999a4.065 4.065 0 0 1 1.637-.368c.469 0 .937.105 1.36.293.423.195.8.48 1.091.826a5.205 5.205 0 0 1 1.107 3.373l-.015.023Zm-2.443-.661a9.253 9.253 0 0 0-.17-2.156 1.753 1.753 0 0 0-.522-.894.817.817 0 0 0-.553-.18.937.937 0 0 0-.492.142.927.927 0 0 0-.346.36 4.295 4.295 0 0 0-.592 2.405v.345l2.675-.022Zm6.294-6.957v3.373h2.198v.97h-2.198v5.68c-.008.345.023.69.1 1.028.046.15.138.278.269.376a.626.626 0 0 0 .323.12c.43 0 .837-.323 1.222-.969l.292.218c-.538 1.262-1.407 1.886-2.606 1.886-.507 0-.999-.15-1.406-.429a2.238 2.238 0 0 1-.86-1.142 9.52 9.52 0 0 1-.108-1.81v-4.958h-1.207v-.346a13.333 13.333 0 0 0 2.129-1.84 11.22 11.22 0 0 0 1.537-2.157h.323-.008Zm6.348 12.93-2.997-6.8a8.745 8.745 0 0 0-1-1.885 1.696 1.696 0 0 0-.776-.496v-.368h4.934v.368a1.147 1.147 0 0 0-.684.188.543.543 0 0 0-.146.18.446.446 0 0 0-.053.226c.084.518.245 1.014.491 1.48l1.584 3.606 1.075-2.81a6.97 6.97 0 0 0 .592-2.066.713.713 0 0 0-.061-.308.612.612 0 0 0-.185-.256 1.334 1.334 0 0 0-.86-.233v-.368h3.104v.368c-.284.023-.553.15-.745.346a8.894 8.894 0 0 0-.96 2.043l-2.652 6.814a15.212 15.212 0 0 1-1.483 3.156c-.2.255-.454.466-.753.608-.3.143-.63.218-.961.218a1.874 1.874 0 0 1-.73-.105 1.892 1.892 0 0 1-.63-.368 1.585 1.585 0 0 1-.385-.511 1.557 1.557 0 0 1-.13-.616 1.327 1.327 0 0 1 .353-.947 1.03 1.03 0 0 1 .392-.278 1.16 1.16 0 0 1 .477-.097c.146 0 .3.022.438.075a.977.977 0 0 1 .36.24c.224.278.339.624.316.97a.873.873 0 0 0 .092.48c.023.038.062.06.1.083.038.015.085.03.13.022.1-.007.2-.045.285-.09a.78.78 0 0 0 .223-.195 6.018 6.018 0 0 0 .93-1.886l.315-.796v.007ZM86.922 11.5v.368c-.23.015-.446.083-.638.21-.2.15-.354.346-.454.564a55.15 55.15 0 0 0-.622 1.532l-4.22 11.021h-.391l-3.335-8.609-3.666 8.587h-.346L68.8 14.288a12.133 12.133 0 0 0-.945-1.99 1.163 1.163 0 0 0-.408-.301 1.238 1.238 0 0 0-.5-.105V11.5h5.834v.368a1.69 1.69 0 0 0-.938.21.582.582 0 0 0-.238.474 5.75 5.75 0 0 0 .484 1.585l2.636 6.483 2.114-5.056-.553-1.42a10.425 10.425 0 0 0-.684-1.555 1.564 1.564 0 0 0-.592-.563 2.064 2.064 0 0 0-.953-.165V11.5h6.517v.368a3.95 3.95 0 0 0-.984.105.636.636 0 0 0-.453.624c.1.473.246.939.445 1.39l2.498 6.31 2.198-5.724c.161-.399.307-.804.423-1.217a2.63 2.63 0 0 0 .077-.601c0-.12-.016-.24-.062-.346a.728.728 0 0 0-.215-.286 1.868 1.868 0 0 0-1.06-.255V11.5h3.481Zm3.12 4.147v7.31c-.054.428.03.864.23 1.247a1.285 1.285 0 0 0 .892.308v.353h-5.01v-.36c.168 0 .338-.023.499-.083.161-.06.3-.158.415-.27.177-.377.246-.79.2-1.203V17.57a2.13 2.13 0 0 0-.23-1.247 1.162 1.162 0 0 0-.408-.24 1.286 1.286 0 0 0-.477-.068v-.368h3.89Zm-1.399-4.463c.208 0 .408.038.6.113.184.075.353.195.492.338.146.143.26.316.338.496.077.188.115.383.107.586a1.495 1.495 0 0 1-.453 1.074 1.446 1.446 0 0 1-.492.33 1.622 1.622 0 0 1-1.184 0 1.446 1.446 0 0 1-.491-.33 1.47 1.47 0 0 1-.338-.496 1.38 1.38 0 0 1-.108-.578c0-.203.03-.398.108-.586a1.47 1.47 0 0 1 .338-.496c.138-.143.3-.255.492-.338a1.43 1.43 0 0 1 .591-.113Zm6.21 4.463v1.194a5.594 5.594 0 0 1 1.368-1.126c.43-.233.914-.354 1.406-.346a2.239 2.239 0 0 1 1.499.496c.392.323.669.759.8 1.24a9.29 9.29 0 0 1 .161 2.155v3.584c-.046.45.023.909.192 1.33.107.105.23.188.369.248.138.06.292.09.438.09v.353h-4.719v-.346a.955.955 0 0 0 .43-.127 1.02 1.02 0 0 0 .323-.3c.146-.392.2-.805.162-1.218v-4.08a6.343 6.343 0 0 0-.093-1.427.88.88 0 0 0-.3-.458.756.756 0 0 0-.468-.165c-.569 0-1.1.405-1.591 1.217v4.936c-.046.443.023.893.192 1.307.085.105.2.188.323.248s.261.09.4.097v.353h-4.72v-.375a1.1 1.1 0 0 0 .462-.105c.146-.068.269-.158.377-.27a2.71 2.71 0 0 0 .168-1.285v-5.2a2.689 2.689 0 0 0-.192-1.299c-.215-.21-.5-.33-.807-.338v-.368h3.82v-.015Zm12.473.105h3.128v1.082h-1.768c.269.255.5.548.677.879.2.458.269.954.215 1.442a2.894 2.894 0 0 1-.53 1.368 3.696 3.696 0 0 1-1.499 1.127 4.332 4.332 0 0 1-1.683.413l-1.176-.053a1.084 1.084 0 0 0-.753.293.82.82 0 0 0-.223.316.91.91 0 0 0-.077.375.722.722 0 0 0 .269.564c.262.172.577.255.892.225h1.714c1.391 0 2.344.15 2.866.458.361.188.653.474.853.82.2.345.292.728.269 1.119a2.51 2.51 0 0 1-.515 1.525 3.05 3.05 0 0 1-1.352 1.014 8.218 8.218 0 0 1-2.951.48c-.769 0-1.538-.075-2.283-.24a3.201 3.201 0 0 1-1.499-.63 1.257 1.257 0 0 1-.453-.902c0-.3.123-.594.346-.812a2.747 2.747 0 0 1 1.276-.608 1.956 1.956 0 0 1-.923-.691 1.87 1.87 0 0 1-.369-1.06c.008-.488.2-.954.523-1.322a4.206 4.206 0 0 1 1.668-1.127 4.022 4.022 0 0 1-1.922-1.27 2.917 2.917 0 0 1-.591-1.817c0-.444.1-.88.292-1.285.192-.406.468-.766.822-1.052a4.147 4.147 0 0 1 2.859-.976c.653 0 1.299.12 1.898.353v-.008Zm-2.298 10.458a3.503 3.503 0 0 0-1.337.165.955.955 0 0 0-.423.33.885.885 0 0 0-.169.496c.008.188.069.368.177.526.1.158.246.293.415.383a4.112 4.112 0 0 0 2.198.413c.746.03 1.483-.09 2.167-.368.223-.075.423-.21.561-.398.139-.18.223-.398.231-.63a.62.62 0 0 0-.146-.414c-.215-.218-.5-.36-.807-.406-.953-.097-1.914-.135-2.867-.097Zm.592-10.24c-.2.007-.392.06-.561.165a1.077 1.077 0 0 0-.407.398c-.262.376-.392 1.172-.392 2.39-.062.69.069 1.39.392 2.013a1.117 1.117 0 0 0 .922.563c.2 0 .4-.06.576-.158.177-.097.315-.24.415-.405a3.782 3.782 0 0 0 .392-2.111 4.5 4.5 0 0 0-.445-2.404.974.974 0 0 0-.377-.346 1.085 1.085 0 0 0-.515-.12v.015Z"/></svg>