<svg xmlns="http://www.w3.org/2000/svg" width="24" height="25" fill="none"><path fill="#130738" d="M9.594 19.921h4.811l.622-6.486H8.973l.621 6.486Zm5.757 2.163H8.648a.997.997 0 0 1-.716-.27 1.13 1.13 0 0 1-.338-.704l-.73-7.459a2.03 2.03 0 0 1 .541-1.662c.433-.478.964-.716 1.595-.716h6c.63 0 1.162.238 1.594.716a2.03 2.03 0 0 1 .54 1.662l-.729 7.46a1.13 1.13 0 0 1-.338.702.997.997 0 0 1-.716.27Z"/><path fill="#683BFF" d="M12.54 4.246c0 .594-.211 1.103-.635 1.527a2.082 2.082 0 0 1-1.527.635 2.13 2.13 0 0 1-.649-.095 2.098 2.098 0 0 1-.594-.31c-.433.144-.78.405-1.04.783a2.142 2.142 0 0 0-.393 1.243h12.784c.325 0 .59.127.797.379.208.252.293.54.257.865l-.756 5.405a1 1 0 0 1-.365.662 1.092 1.092 0 0 1-.717.257H18.5l.284-2.162c.09-.54.166-1.081.23-1.622.062-.54.139-1.08.229-1.621H4.756c.09.54.167 1.08.23 1.621.063.54.14 1.081.23 1.622l.284 2.162H4.297c-.27 0-.509-.086-.716-.257a1 1 0 0 1-.365-.662l-.757-5.405c-.036-.325.05-.613.257-.865a.986.986 0 0 1 .797-.379h2c0-.882.243-1.684.73-2.405a4.306 4.306 0 0 1 1.973-1.595 2.068 2.068 0 0 1 .703-1.391c.414-.37.9-.554 1.46-.554.594 0 1.103.211 1.526.635.424.423.635.932.635 1.527Z"/></svg>