<svg xmlns="http://www.w3.org/2000/svg" width="146" height="17" fill="none"><path fill="#130738" d="M85.927 16.926H82.59l-.932-3.15-4.553-.007-.945 3.157h-3.3v-.001l4.852-15.896.115-.06h3.133l4.968 15.957ZM44.78.968c1.015.245 1.795 1.1 1.956 2.22l.006 11.329c-.175 1.392-1.158 2.284-2.459 2.366-1.916.12-3.982-.055-5.906-.048-1.03-.173-1.818-1-2.04-2.08a291.129 291.129 0 0 1-.005-11.672c.16-1.075 1.104-2.04 2.121-2.156h6.121l.206.04Zm26.772 15.957H68.39l-.018-8.29-2.371 5.836-2.719-.04-2.354-5.794v8.288h-3.164V1.008l3.158-.03 3.736 9.529L68.44.97h3.061l.052 15.954ZM95.057.97c1.264 0 2.395 1.367 2.356 2.694-.028 3.665.05 7.34-.04 11-.143 1.032-.824 1.863-1.757 2.16l-.405.1h-8.012L87.251.97h7.806Zm12.327 9.243V1.026a.342.342 0 0 1 .052-.055h3.112v15.954h-3.164l-4.935-9.242-.016 9.242h-3.13L99.32.97h3.095l4.969 9.243Zm14.476-9.188v3.08a.386.386 0 0 1-.051.056h-6V7.17h5.57v3.191h-5.57v3.374h6.051v3.19h-9.284l.018-15.953h9.215c.003 0 .049.05.051.055Zm4.349-.056c1.761-.107 3.568.05 5.328.042.994.111 2.084 1.284 2.084 2.362V5.74h-3.198V4.327c-.001-.045-.12-.193-.188-.167l-3.147.022-.086.09-.018 2.255.102.149c1.549.587 3.221.915 4.781 1.466 1.286.454 1.792 1.05 1.859 2.528a41.426 41.426 0 0 1 0 3.524c-.069 1.368-.857 2.576-2.203 2.73h-5.639c-1.066-.098-2.2-1.278-2.2-2.438v-2.329h3.197v1.412c0 .045.12.193.187.167 1.026-.072 2.154.09 3.167 0 .191-.017.275-.167.275-.167V11.37c-.052-.11-.22-.334-.321-.376-1.507-.62-3.336-.862-4.865-1.486-.839-.343-1.466-.914-1.571-1.917.066-1.378-.091-2.852-.003-4.219.09-1.395 1.202-2.326 2.459-2.402Zm11.561.043c1.747.019 3.655-.168 5.393-.042a2.543 2.543 0 0 1 2.245 1.714c.035.098.145.46.146.542v2.511h-3.147a.382.382 0 0 1-.052-.054V4.29c-.001-.023-.137-.154-.187-.13-.964.074-2.045-.093-2.995 0-.217.02-.239.088-.257.312-.039.499-.039 1.41 0 1.91.019.244.064.287.269.373 1.489.499 3.057.845 4.538 1.358 1.032.359 1.823.87 1.933 2.137v4.328c-.059.227-.092.457-.171.679-.218.617-.748 1.2-1.318 1.455l-.711.213h-5.64c-.934-.058-2.165-1.241-2.166-2.255v-2.513h3.198v1.448c0 .01.053.1.069.11h3.404c.067-.034.096-.18.104-.256.043-.445.052-1.73-.009-2.155-.026-.18-.087-.234-.239-.295-1.315-.53-2.922-.839-4.291-1.291-1.152-.38-2.098-.82-2.2-2.275.192-2.292-.865-5.81 2.084-6.43ZM9.363.927c.226.068.46.115.677.214.741.337 1.322 1.122 1.451 1.972.09 3.734.011 7.481.04 11.22-.08 1.277-.93 2.313-2.12 2.507-2.625 0-5.281.14-7.907.043-.065-.003-.13.003-.188-.038V.927h8.047Zm12.242 0c1.087.19 1.947 1.056 2.127 2.223a317.28 317.28 0 0 1-.005 11.502c-.223 1.34-1.191 2.152-2.447 2.23-1.786.113-3.674-.088-5.47 0-1.43-.046-2.438-1.104-2.528-2.621.032-3.712-.057-7.436.045-11.142.162-1.087 1.085-2.073 2.122-2.192h6.156Zm12.93 13.223c-.007 1.331-.876 2.487-2.121 2.69-1.577-.002-3.274.142-4.846.043-.881-.056-1.667-.47-2.128-1.288-.151-.27-.363-.844-.363-1.153v-2.787a.373.373 0 0 1 .052-.055h3.146v1.925c0 .083.172.193.256.167.801-.07 1.727.088 2.513-.002.094-.01.166-.02.18-.135L31.233.927h3.301l.002 13.223Zm55.93-.416h3.558c.056 0 .138-.243.123-.31V4.472c.001-.102-.056-.292-.157-.31h-3.524v9.572ZM43.184 4.08c-1.057-.094-2.234.075-3.304 0-.14.003-.318.065-.327.237l.016 9.229c.034.111.14.15.241.146 1.117-.076 2.34.096 3.443 0 .053-.004.14-.007.179-.046v-.001l.036-9.428c-.03-.107-.194-.129-.284-.137Zm-26.403.01c-.1.02-.18.067-.216.173l-.016 9.117c.015.194.047.317.257.312l3.563-.018c.119-.042.128-.18.137-.294l-.017-9.117c-.044-.132-.156-.168-.277-.182l-3.43.009Zm-12.198.046v9.554h3.524c.078 0 .181-.183.158-.273V4.391c.026-.128-.116-.31-.226-.31H4.635a.37.37 0 0 0-.052.055Zm73.469 6.554h2.647l-1.323-5.245-1.324 5.245Z"/></svg>