<svg xmlns="http://www.w3.org/2000/svg" width="85" height="32" fill="none"><path fill="#130738" d="M14.087 31.166h-3.024l-.017-7.428-2.267 5.228-2.598-.034-2.251-5.194v7.428H.905V16.901l3.019-.028 3.572 8.541 3.615-8.546h2.926l.05 14.298Zm13.74 0H24.64l-.892-2.823-4.352-.006-.904 2.83h-3.155l4.638-14.248.11-.053h2.994l4.75 14.3Zm8.727-14.298c1.209 0 2.29 1.225 2.253 2.415-.027 3.285.047 6.577-.038 9.858a2.375 2.375 0 0 1-1.68 1.937l-.387.088h-7.659l.049-14.298h7.462Zm11.784 8.283v-8.234c0-.003.043-.047.049-.05h2.975v14.3h-3.024l-4.717-8.284-.017 8.283h-2.99l.016-14.298h2.958l4.75 8.283Zm13.839-8.234v2.761c0 .004-.046.05-.05.05h-5.735v2.695h5.324v2.86h-5.324v3.024h5.785v2.86h-8.875l.015-14.3h8.81c.004 0 .05.047.05.05Zm4.156-.051c1.683-.096 3.41.046 5.093.038.95.1 1.992 1.15 1.992 2.117v2.12h-3.057v-1.266c0-.04-.115-.172-.18-.149l-3.007.018-.083.082-.016 2.021.096.134c1.48.526 3.08.82 4.571 1.313 1.229.407 1.713.942 1.777 2.266.045.96.05 2.199 0 3.158-.066 1.226-.82 2.31-2.106 2.448h-5.39c-1.02-.088-2.104-1.146-2.104-2.186v-2.087h3.057v1.266c0 .04.115.172.18.149.98-.065 2.057.08 3.026 0 .182-.015.198-.03.213-.214.055-.659-.037-1.398-.007-2.065-.05-.1-.153-.14-.25-.178-1.44-.556-3.19-.773-4.65-1.332-.803-.307-1.402-.82-1.503-1.719.064-1.235-.086-2.556-.003-3.781.086-1.25 1.15-2.085 2.351-2.153Zm11.05.039c1.671.017 3.496-.15 5.157-.037.96.065 1.803.626 2.145 1.536.034.088.14.413.14.485v2.251h-3.008a.323.323 0 0 1-.05-.049v-1.249c0-.02-.13-.138-.178-.117-.922.067-1.955-.083-2.863 0-.208.02-.23.08-.246.28a13.11 13.11 0 0 0 0 1.712c.018.218.06.257.256.334 1.424.447 2.924.757 4.34 1.218.986.321 1.742.778 1.847 1.915v3.879c-.057.203-.088.409-.163.608a2.433 2.433 0 0 1-1.261 1.304l-.68.191h-5.39c-.894-.052-2.07-1.113-2.07-2.021v-2.252h3.056v1.299c0 .01.05.09.066.098h3.254c.064-.03.092-.162.099-.23.041-.399.05-1.55-.008-1.932-.024-.162-.084-.209-.23-.263-1.256-.475-2.792-.753-4.1-1.159-1.102-.34-2.006-.735-2.104-2.038.183-2.054-.826-5.207 1.992-5.763ZM32.167 28.307h3.401c.054 0 .131-.218.117-.278v-8.024c.002-.09-.052-.26-.149-.277h-3.369v8.579ZM20.3 25.578h2.531l-1.265-4.7-1.266 4.7ZM42.454.37c.97.22 1.716.985 1.87 1.989l.005 10.154c-.167 1.248-1.107 2.048-2.35 2.121-1.831.107-3.807-.05-5.646-.043-.985-.155-1.738-.895-1.95-1.863a243.415 243.415 0 0 1-.005-10.462c.153-.964 1.056-1.828 2.028-1.933h5.85l.198.037ZM20.3.333c1.04.17 1.861.947 2.034 1.994.06 3.428.068 6.88-.005 10.307-.214 1.202-1.14 1.93-2.34 2-1.707.1-3.511-.08-5.23 0-1.365-.042-2.33-.99-2.415-2.35.03-3.328-.054-6.664.044-9.986.154-.974 1.036-1.858 2.028-1.965H20.3Zm-11.702 0c.216.062.439.103.647.192a2.401 2.401 0 0 1 1.387 1.768c.086 3.347.011 6.705.038 10.056-.076 1.144-.889 2.072-2.026 2.246-2.509 0-5.049.126-7.559.038-.062-.002-.124.003-.179-.034V.333h7.692ZM32.66 12.185c-.006 1.193-.836 2.23-2.026 2.411-1.508-.002-3.13.127-4.633.038-.843-.05-1.593-.421-2.034-1.155-.145-.242-.348-.756-.348-1.032V9.949c0-.004.046-.05.05-.05h3.008v1.725c0 .075.163.173.244.15.766-.062 1.65.079 2.401-.001.09-.01.16-.019.173-.121L29.503.333h3.156l.001 11.852Zm8.267-9.025c-1.01-.085-2.136.066-3.158 0-.134.002-.304.057-.313.212l.016 8.27c.032.1.133.136.23.133 1.067-.069 2.236.085 3.29 0 .051-.005.136-.007.172-.043l.034-8.45c-.029-.096-.185-.115-.271-.122Zm-25.239.008c-.095.018-.172.06-.206.156l-.016 8.17c.015.175.045.285.246.28l3.406-.016c.114-.037.123-.16.131-.263l-.017-8.171c-.042-.119-.148-.151-.264-.163l-3.28.007Zm-11.66.041v8.564h3.37c.074 0 .171-.165.149-.245v-8.09c.025-.115-.11-.277-.216-.277H4.077a.338.338 0 0 0-.049.048Z"/></svg>