<svg xmlns="http://www.w3.org/2000/svg" width="65" height="65" fill="none"><path fill="#fff" d="M16.144 12.042c2.052 0 3.939.25 5.608.745 1.68.497 3.132 1.216 4.314 2.139a9.668 9.668 0 0 1 2.778 3.418c.651 1.338.904 2.793.904 4.463 0 2.087-.295 3.896-1.254 5.374-.846 1.433-2.143 2.46-3.744 3.377 1.204.305 2.108.72 2.894 1.263.964.668 1.71 1.39 2.352 2.291.64.898 1.13 1.765 1.455 2.85.323 1.082.487 2.291.488 3.457 0 3.984-1.277 7.284-3.794 9.39-2.499 2.09-6.214 3.149-11.043 3.149H2V42.001h5.54v6.004h9.536c6.013 0 9.299-1.884 9.299-6.473 0-1.181-.185-1.939-.49-2.796-.294-.836-1.055-1.674-1.774-2.215-.732-.554-1.647-1.051-2.892-1.367-.526-.147-1.938-.344-3.5-.344H13.08v-6h4.469c2.782 0 3.574-.196 4.878-1.128 1.312-1.048 1.788-1.83 1.788-3.975 0-.973-.179-1.803-.47-2.527-.285-.709-.695-1.283-1.339-1.757-.656-.484-1.482-.821-2.562-1.066-1.098-.25-2.527-.33-4.131-.33H7.538v6.013H2V12.042h14.145Zm47.854 41.916H35.484c1.8-1.644 3.19-3.721 4.13-5.975h18.138v-6.002h6.246v11.977ZM51.522 34.745H38.794c-.323-1.042-1.407-2.078-2.71-2.969.975-.72 2.245-1.784 2.42-2.967h13.017v5.936Zm12.476-22.703v11.992h-6.242v-5.996H38.018c-.249-.666-.54-1.396-.884-2.025a16.05 16.05 0 0 0-3.076-3.971h29.94Z"/><path fill="#fff" d="M16.144 12.042v-.75.75Zm5.608.745-.213.72.213-.72Zm4.314 2.139.462-.591-.462.59Zm2.778 3.418-.675.328.675-.328Zm.904 4.463h.75-.75Zm-1.254 5.374-.629-.409-.009.014-.008.014.646.38Zm-3.744 3.377-.372-.651-1.612.922 1.8.456.184-.727Zm2.894 1.263.427-.616h-.001l-.426.616Zm2.352 2.291.61-.435-.61.435Zm1.455 2.85.719-.215-.719.215Zm.488 3.457h.75-.75Zm-3.794 9.39.48.575-.48-.575ZM1.998 53.958h-.75v.75h.75v-.75Zm0-11.957v-.75h-.75v.75h.75Zm5.54 0h.75v-.75h-.75v.75Zm0 6.004h-.75v.75h.75v-.75Zm9.536 0v.75-.75Zm9.299-6.473h.75-.75Zm-.49-2.796-.707.25.708-.25Zm-1.774-2.215-.452.598.452-.599Zm-2.892-1.367-.203.722.01.003.009.002.184-.727Zm-8.138-.344h-.75v.75h.75v-.75Zm0-6v-.75h-.75v.75h.75Zm9.347-1.128.436.61.016-.012.016-.012-.468-.586Zm1.788-3.975h.75-.75Zm-.47-2.527.696-.28-.696.28Zm-1.339-1.757.445-.604-.445.604Zm-2.562-1.066-.167.732h.001l.166-.732Zm-12.306-.33v-.75h-.75v.75h.75Zm0 6.013v.75h.75v-.75h-.75ZM2 24.04h-.75v.75H2v-.75Zm0-11.998v-.75h-.75v.75H2Zm61.999 41.916v.75h.75v-.75h-.75Zm-28.514 0-.506-.554-1.426 1.304h1.932v-.75Zm4.13-5.975v-.75h-.5l-.192.462.692.288Zm18.138 0v.75h.75v-.75h-.75Zm0-6.002v-.75h-.75v.75h.75Zm6.246 0h.75v-.75h-.75v.75Zm-12.476-7.236v.75h.75v-.75h-.75Zm-12.727 0-.717.222.164.528h.553v-.75Zm-2.71-2.969-.445-.602-.848.627.87.595.424-.62Zm2.42-2.967v-.75h-.646l-.095.64.742.11Zm13.017 0h.75v-.75h-.75v.75Zm12.476-16.767h.75v-.75h-.75v.75Zm0 11.992v.75h.75v-.75h-.75Zm-6.242 0h-.75v.75h.75v-.75Zm0-5.996h.75v-.75h-.75v.75Zm-19.738 0-.703.262.182.488h.52v-.75Zm-.884-2.025-.659.36.659-.36Zm-3.076-3.971v-.75h-1.884l1.368 1.295.516-.545Zm-17.914 0v.75c1.993 0 3.806.242 5.395.714l.213-.719.213-.719c-1.75-.52-3.71-.776-5.821-.776v.75Zm5.608.745-.213.72c1.605.474 2.97 1.154 4.066 2.01l.461-.591.462-.591c-1.268-.99-2.808-1.748-4.563-2.267l-.213.72Zm4.314 2.139-.461.591a8.92 8.92 0 0 1 2.564 3.155l.675-.328.674-.328a10.418 10.418 0 0 0-2.99-3.681l-.462.59Zm2.778 3.418-.675.328c.588 1.207.829 2.542.829 4.135h1.5c0-1.747-.265-3.322-.98-4.792l-.674.329Zm.904 4.463h-.75c0 2.03-.29 3.667-1.133 4.965l.63.409.628.408c1.076-1.656 1.375-3.639 1.375-5.782h-.75Zm-1.254 5.374-.646-.381c-.751 1.273-1.922 2.22-3.47 3.107l.372.65.372.652c1.654-.946 3.078-2.053 4.018-3.647l-.646-.381Zm-3.744 3.377-.184.727c1.127.285 1.948.667 2.651 1.153l.427-.617.426-.617c-.867-.599-1.856-1.05-3.136-1.373l-.184.727Zm2.894 1.263-.427.617c.898.622 1.58 1.285 2.169 2.11l.61-.436.61-.436c-.697-.976-1.506-1.758-2.536-2.471l-.426.616Zm2.352 2.291-.61.436c.609.854 1.052 1.647 1.347 2.63l.718-.216.719-.216c-.356-1.186-.892-2.128-1.563-3.07l-.61.436Zm1.455 2.85-.718.214c.3 1.007.455 2.143.456 3.243h1.5c0-1.232-.174-2.514-.52-3.671l-.718.214Zm.488 3.457h-.75c0 3.829-1.224 6.889-3.526 8.814l.482.576.48.575c2.734-2.286 4.063-5.825 4.063-9.965h-.75Zm-3.794 9.39-.482-.576c-2.311 1.934-5.826 2.975-10.56 2.975v1.5c4.921 0 8.837-1.078 11.523-3.324l-.482-.575Zm-11.043 3.149v-.75H2v1.5h15.103v-.75ZM2 53.958h.75V42.001h-1.5v11.957H2Zm0-11.957v.75h5.54v-1.5H2v.75Zm5.54 0h-.75v6.004h1.5V42h-.75Zm0 6.004v.75h9.536v-1.5H7.538v.75Zm9.536 0v.75c3.058 0 5.562-.474 7.32-1.64 1.816-1.207 2.729-3.081 2.729-5.583h-1.5c0 2.087-.73 3.45-2.06 4.333-1.389.922-3.534 1.39-6.489 1.39v.75Zm9.299-6.473h.75c0-1.283-.206-2.126-.532-3.046l-.707.25-.707.25c.281.795.446 1.467.446 2.546h.75Zm-.49-2.796.708-.25c-.363-1.028-1.25-1.976-2.03-2.564l-.452.599-.451.598c.657.495 1.292 1.224 1.518 1.867l.708-.25Zm-1.774-2.215.453-.599c-.806-.609-1.811-1.153-3.161-1.495l-.184.727-.184.727c1.14.29 1.965.74 2.624 1.238l.452-.599Zm-2.892-1.367.202-.722c-.615-.172-2.102-.372-3.702-.372v1.5c1.523 0 2.861.194 3.297.316l.203-.722Zm-3.5-.344v-.75H13.08v1.5h4.638v-.75Zm-4.638 0h.75v-6h-1.5v6h.75Zm0-6v.75h4.469v-1.5h-4.47v.75Zm4.469 0v.75c1.392 0 2.363-.047 3.164-.234.837-.196 1.45-.534 2.15-1.034l-.436-.61-.436-.61c-.605.432-1.038.657-1.62.793-.616.144-1.432.196-2.822.196v.75Zm4.878-1.128.468.586c.687-.55 1.24-1.092 1.595-1.84.353-.741.475-1.603.475-2.721h-1.5c0 1.027-.116 1.629-.33 2.077-.21.441-.552.813-1.176 1.312l.468.586Zm1.788-3.975h.75a7.434 7.434 0 0 0-.524-2.807l-.696.28-.696.28c.255.634.416 1.37.416 2.247h.75Zm-.47-2.527.696-.28c-.33-.823-.821-1.515-1.59-2.081l-.445.604-.445.604c.52.382.85.838 1.088 1.432l.696-.28Zm-1.339-1.757.445-.604c-.767-.565-1.7-.935-2.842-1.193l-.165.731-.166.732c1.019.23 1.737.535 2.284.938l.444-.604Zm-2.562-1.066.166-.73c-1.183-.27-2.68-.35-4.297-.35v1.5c1.593 0 2.952.081 3.964.312l.167-.732Zm-4.131-.33v-.75H7.538v1.5h8.175v-.75Zm-8.175 0h-.75v6.013h1.5v-6.014h-.75Zm0 6.013v-.75H2v1.5h5.54v-.75ZM2 24.04h.75V12.042h-1.5V24.04H2Zm0-11.998v.75h14.145v-1.5H1.999v.75Zm61.999 41.916v-.75H35.484v1.5h28.514v-.75Zm-28.514 0 .506.554c1.889-1.726 3.339-3.897 4.316-6.24l-.692-.289-.692-.288c-.903 2.163-2.234 4.147-3.944 5.71l.506.553Zm4.13-5.975v.75h18.138v-1.5H39.614v.75Zm18.138 0h.75v-6.002h-1.5v6.002h.75Zm0-6.002v.75h6.246v-1.5h-6.246v.75Zm6.246 0h-.75v11.977h1.5V41.981h-.75Zm-12.476-7.236v-.75H38.794v1.5h12.727v-.75Zm-12.727 0 .716-.222c-.208-.672-.642-1.29-1.159-1.835-.521-.55-1.163-1.066-1.843-1.53l-.423.618-.423.62c.622.425 1.174.873 1.6 1.323.431.456.7.878.816 1.248l.716-.222Zm-2.71-2.969.447.603c.498-.368 1.106-.849 1.617-1.407.501-.548.978-1.245 1.099-2.053l-.742-.11-.742-.11c-.056.374-.301.801-.722 1.26-.412.45-.926.862-1.402 1.215l.446.602Zm2.42-2.967v.75h13.017v-1.5H38.506v.75Zm13.017 0h-.75v5.936h1.5V28.81h-.75Zm12.476-16.767h-.75v11.992h1.5V12.042h-.75Zm0 11.992v-.75h-6.242v1.5h6.242v-.75Zm-6.242 0h.75v-5.996h-1.5v5.996h.75Zm0-5.996v-.75H38.018v1.5h19.738v-.75Zm-19.738 0 .702-.262c-.25-.671-.556-1.443-.928-2.123l-.658.36-.658.36c.317.58.592 1.267.839 1.927l.703-.262Zm-.884-2.025.658-.36a16.803 16.803 0 0 0-3.219-4.156l-.515.545-.516.545a15.301 15.301 0 0 1 2.933 3.785l.659-.36Zm-3.076-3.971v.75h29.94v-1.5h-29.94v.75Z"/></svg>