<svg xmlns="http://www.w3.org/2000/svg" width="1136" height="482" fill="none"><g clip-path="url(#a)"><path fill="#0A15AB" d="M-18 658h1288c6.63 0 12-5.373 12-12V-68c0-6.627-5.37-12-12-12H-18c-6.627 0-12 5.373-12 12v714c0 6.627 5.373 12 12 12Z"/><path fill="#fff" fill-opacity=".9" d="M-18 658h1288c6.63 0 12-5.373 12-12V-68c0-6.627-5.37-12-12-12H-18c-6.627 0-12 5.373-12 12v714c0 6.627 5.373 12 12 12Z"/><path fill="#2A5FFF" fill-opacity=".47" d="M-18 658h1288c6.63 0 12-5.373 12-12V-68c0-6.627-5.37-12-12-12H-18c-6.627 0-12 5.373-12 12v714c0 6.627 5.373 12 12 12Z"/><g filter="url(#b)" opacity=".83"><ellipse cx="1030.5" cy="371.499" fill="#683BFF" rx="343.5" ry="370.5"/></g><path fill="url(#c)" d="M934.845-795.674C505.25-594.559 288.467-150.689 450.647 195.737 612.827 542.163 1092.55 659.96 1522.15 458.845c429.59-201.115 646.38-644.985 484.2-991.411-162.18-346.426-641.91-464.224-1071.505-263.108Z" opacity=".86"/><g filter="url(#d)" opacity=".57"><ellipse cx="223" cy="41.498" fill="#683BFF" rx="316" ry="133.5" transform="rotate(-6.443 223 41.498)"/></g><g filter="url(#e)" opacity=".66"><ellipse cx="253.784" cy="528.157" fill="#09DE9F" rx="372.1" ry="213.503" transform="rotate(14.487 253.784 528.157)"/></g><g filter="url(#f)" opacity=".31"><ellipse cx="478.647" cy="640.745" fill="#130738" rx="489.431" ry="213.503" transform="rotate(-7.402 478.647 640.745)"/></g><g filter="url(#g)" opacity=".31"><ellipse cx="509.014" cy="-132.14" fill="#130738" rx="489.431" ry="144.668" transform="rotate(-8.484 509.014 -132.14)"/></g><g filter="url(#h)" opacity=".31"><ellipse cx="-130.498" cy="288.539" fill="#130738" rx="270.996" ry="144.668" transform="rotate(-79.052 -130.498 288.539)"/></g><g filter="url(#i)" opacity=".48"><path fill="url(#j)" d="m80 568.999 1016-587V1156L80 568.999Z"/></g><path fill="#000" fill-opacity=".14" d="M2-48h1176v730H2z" style="mix-blend-mode:overlay"/></g><defs><filter id="b" width="1287" height="1341" x="387" y="-299.001" color-interpolation-filters="sRGB" filterUnits="userSpaceOnUse"><feFlood flood-opacity="0" result="BackgroundImageFix"/><feBlend in="SourceGraphic" in2="BackgroundImageFix" result="shape"/><feGaussianBlur result="effect1_foregroundBlur_426_3137" stdDeviation="150"/></filter><filter id="d" width="1028.74" height="674.696" x="-291.368" y="-295.849" color-interpolation-filters="sRGB" filterUnits="userSpaceOnUse"><feFlood flood-opacity="0" result="BackgroundImageFix"/><feBlend in="SourceGraphic" in2="BackgroundImageFix" result="shape"/><feGaussianBlur result="effect1_foregroundBlur_426_3137" stdDeviation="100"/></filter><filter id="e" width="1128.51" height="853.525" x="-310.472" y="101.395" color-interpolation-filters="sRGB" filterUnits="userSpaceOnUse"><feFlood flood-opacity="0" result="BackgroundImageFix"/><feBlend in="SourceGraphic" in2="BackgroundImageFix" result="shape"/><feGaussianBlur result="effect1_foregroundBlur_426_3137" stdDeviation="100"/></filter><filter id="f" width="1172.29" height="641.943" x="-107.498" y="319.773" color-interpolation-filters="sRGB" filterUnits="userSpaceOnUse"><feFlood flood-opacity="0" result="BackgroundImageFix"/><feBlend in="SourceGraphic" in2="BackgroundImageFix" result="shape"/><feGaussianBlur result="effect1_foregroundBlur_426_3137" stdDeviation="50"/></filter><filter id="g" width="1169.11" height="520.613" x="-75.54" y="-392.447" color-interpolation-filters="sRGB" filterUnits="userSpaceOnUse"><feFlood flood-opacity="0" result="BackgroundImageFix"/><feBlend in="SourceGraphic" in2="BackgroundImageFix" result="shape"/><feGaussianBlur result="effect1_foregroundBlur_426_3137" stdDeviation="50"/></filter><filter id="h" width="502.227" height="735" x="-381.611" y="-78.961" color-interpolation-filters="sRGB" filterUnits="userSpaceOnUse"><feFlood flood-opacity="0" result="BackgroundImageFix"/><feBlend in="SourceGraphic" in2="BackgroundImageFix" result="shape"/><feGaussianBlur result="effect1_foregroundBlur_426_3137" stdDeviation="50"/></filter><filter id="i" width="1065.8" height="1223.8" x="55.1" y="-42.901" color-interpolation-filters="sRGB" filterUnits="userSpaceOnUse"><feFlood flood-opacity="0" result="BackgroundImageFix"/><feBlend in="SourceGraphic" in2="BackgroundImageFix" result="shape"/><feGaussianBlur result="effect1_foregroundBlur_426_3137" stdDeviation="12.45"/></filter><radialGradient id="c" cx="0" cy="0" r="1" gradientTransform="rotate(148.103 636.746 119.735) scale(756.892 719.181)" gradientUnits="userSpaceOnUse"><stop offset=".17" stop-color="#09DE9F"/><stop offset=".728" stop-color="#09DE9F" stop-opacity="0"/></radialGradient><radialGradient id="j" cx="0" cy="0" r="1" gradientTransform="rotate(64.348 49.21 600.55) scale(345.883 428.961)" gradientUnits="userSpaceOnUse"><stop stop-color="#fff"/><stop offset="1" stop-color="#fff" stop-opacity="0"/></radialGradient><clipPath id="a"><path fill="#fff" d="M0 0h1136v482H0z"/></clipPath></defs></svg>