<svg xmlns="http://www.w3.org/2000/svg" width="24" height="25" fill="none"><path fill="#130738" d="M3.868 20.465a11.198 11.198 0 0 1-2.53-3.812 11.614 11.614 0 0 1-.844-4.32c0-1.463.28-2.903.843-4.32a11.198 11.198 0 0 1 2.531-3.811A11.198 11.198 0 0 1 7.68 1.67 11.613 11.613 0 0 1 12 .827a11.6 11.6 0 0 1 4.32.844 11.198 11.198 0 0 1 3.812 2.53 11.197 11.197 0 0 1 2.53 3.812c.563 1.417.844 2.857.844 4.32a11.6 11.6 0 0 1-.843 4.32 11.197 11.197 0 0 1-2.531 3.812 11.197 11.197 0 0 1-3.812 2.531 11.613 11.613 0 0 1-4.32.844 11.6 11.6 0 0 1-4.32-.844 11.197 11.197 0 0 1-3.812-2.53Zm1.627-1.626C7.31 20.655 9.479 21.563 12 21.563c2.52 0 4.69-.908 6.505-2.724 1.817-1.816 2.725-3.985 2.725-6.506 0-2.52-.909-4.689-2.725-6.505C16.69 4.012 14.521 3.104 12 3.104c-2.52 0-4.69.908-6.505 2.724C3.679 7.644 2.77 9.813 2.77 12.333c0 2.521.909 4.69 2.725 6.506Z"/><path fill="#683BFF" d="m5.556 13.41 3.598 1.404c.095.04.173.091.234.152a.736.736 0 0 1 .152.234l1.382 3.578c.109.27.309.41.6.417.291.006.491-.126.6-.397l4.127-9.86a.61.61 0 0 0-.143-.711c-.203-.203-.44-.25-.711-.142l-9.86 4.126c-.27.109-.403.309-.396.6a.613.613 0 0 0 .417.6Z"/></svg>