<svg xmlns="http://www.w3.org/2000/svg" width="83" height="24" fill="none"><g clip-path="url(#a)"><path fill="#130738" fill-rule="evenodd" d="M70.642.744c-6.17 0-11.172 3.233-11.172 10.934 0 7.685 5.003 10.934 11.172 10.934 6.17 0 11.172-3.249 11.172-10.934 0-7.701-5.002-10.934-11.172-10.934ZM48.56.887a4.165 4.165 0 0 0-.405.024c-11.07 0-10.529 10.934-10.529 10.934 0 10.158 8.626 10.91 11.196 10.91 2.895 0 4.904-.271 9.481-.763.013-.002 0-11.362 0-11.362h-9.338v4.05h3.645v3.668c-7.222 1.733-8.933-2.06-8.933-6.384 0-6.5 3.69-6.599 5.288-6.599 3.274 0 3.645 2.43 3.645 2.43h5.693C57.639 1.139 50.363.854 48.56.887ZM.775 1.316v21.057h16.199v-4.43H6.444v-4.05h9.72V9.82h-9.72V5.77h10.53V1.316H.774Zm17.818 0v21.057h5.67V14.68h2.024l5.241 7.694h6.48l-5.67-8.123c4.516-.952 4.478-6.05 4.478-6.05 0-7.178-7.55-6.884-7.55-6.884H18.592Zm52.05 3.787c3.82 0 5.026 2.95 5.026 6.575 0 3.626-1.206 6.55-5.027 6.55-3.845 0-5.026-2.924-5.026-6.55s1.18-6.575 5.026-6.575Zm-46.38.667h4.454s2.819.02 2.835 2.43c.02 2.93-2.835 2.858-2.835 2.858h-4.454V5.77Z" clip-rule="evenodd"/></g><defs><clipPath id="a"><path fill="#fff" d="M.094.083h82.391v23.333H.094z"/></clipPath></defs></svg>