<svg xmlns="http://www.w3.org/2000/svg" width="132" height="31" fill="none"><g fill="#130738" clip-path="url(#a)"><path d="M14.645.917c1.104.059 2.209.103 3.31.183 1.302.096 2.584.326 3.844.667 1.938.525 3.732 1.33 5.285 2.577 1.744 1.4 3.076 3.09 3.835 5.164.33.904.504 1.842.572 2.795.264 3.786-.628 7.332-2.4 10.692a17.186 17.186 0 0 1-3.486 4.595c-1.008.941-2.116 1.746-3.392 2.324a11.113 11.113 0 0 1-3.43.931c-.463.047-.921.072-1.377.072-1.74 0-3.434-.345-5.097-.9-1.754-.588-3.424-1.339-4.978-2.32-2.038-1.289-3.718-2.907-4.907-4.972-.791-1.375-1.302-2.844-1.586-4.388-.316-1.717-.353-3.446-.204-5.182.23-2.661.86-5.24 1.69-7.776.174-.54.365-1.072.555-1.606.362-1.003 1.102-1.592 2.178-1.79a65.713 65.713 0 0 1 5.11-.753A45.94 45.94 0 0 1 14.5.964h.142l.004-.047Zm2.39 5.393c-.498 0-1.002.035-1.508.1-1.806.236-3.46.863-4.956 1.866-1.367.916-2.442 2.077-3.14 3.546-.578 1.214-.733 2.503-.781 3.813-.017.742.045 1.482.19 2.211.346 1.745 1.124 3.273 2.429 4.54 1.063 1.028 2.336 1.73 3.754 2.193 1.16.379 2.354.578 3.572.65l.378.015.369.006c.814 0 1.618-.087 2.41-.31 1.902-.544 3.23-1.684 3.886-3.5.462-1.274.48-2.578.255-3.897a.38.38 0 0 1 .055-.25c.988-1.509 1.444-3.142 1.214-4.924-.261-2.05-1.314-3.64-3.14-4.717-1.556-.92-3.23-1.342-4.988-1.342Zm-1.199 1.655c1.696-.217 3.31.022 4.832.792 1.234.625 2.187 1.506 2.655 2.801.41 1.134.337 2.27-.025 3.4-.029.088-.062.171-.1.283-.03-.05-.052-.077-.068-.111-.452-.948-1.034-1.81-1.812-2.54-.84-.783-1.816-1.32-2.992-1.485-1.805-.251-3.433.515-4.293 2.077-.814 1.478-.901 3.01-.184 4.54.61 1.307 1.7 2.09 3.137 2.404 1.925.416 3.692.055 5.285-1.069l.125-.083c-.03 1.482-.395 2.793-1.64 3.741-.662.503-1.437.77-2.268.86-2.1.227-4.125-.067-6.028-.955-2.226-1.037-3.547-2.768-4.009-5.103-.255-1.285-.203-2.574.081-3.843.35-1.575 1.273-2.811 2.568-3.798 1.389-1.066 2.979-1.684 4.736-1.91Zm6.568 11.005-.008.004v-.007l.008.003Zm-6.787-5.25c.616-.904 1.615-1.262 2.758-.995.75.174 1.35.585 1.877 1.107.882.875 1.447 1.927 1.806 3.088.016.056 0 .147-.042.187-.956 1.022-2.135 1.58-3.495 1.587-.682-.01-1.267-.087-1.813-.33-.878-.387-1.401-1.058-1.598-1.952-.214-.957-.052-1.867.507-2.693ZM56.8 9.425c1.966 0 3.524.537 4.47 1.405.995.945 1.098 2.043 1.098 3.575v3.904l-.001.5c-.002 2.426-.014 3.67-.035 3.732-.028.074-.598.087-1.118.089l-.456.001c-1.48 0-2.477-.69-2.937-2.019-1.252 1.43-2.63 2.146-4.189 2.146-1.906 0-3.226-1.105-3.422-2.678l-.005-.035-.053.06c-1.445 1.64-3.927 2.623-5.997 2.653h-.095c-3.729 0-6.385-2.58-6.386-6.513 0-1.992.818-3.857 2.274-5.16a6.62 6.62 0 0 1 4.393-1.66c2.912 0 4.905 1.66 4.905 3.73 0 1.174-.87 2.094-2.07 2.094-1.072 0-1.838-.869-1.839-1.941 0-1.916-.128-2.938-1.48-2.938-1.252 0-1.917 1.099-1.917 3.219 0 3.959 2.037 6.44 4.484 6.44 1.916 0 3.074-.88 4.338-1.912l.008-.006c.337-.291.69-.57 1.018-.817l.175-.132c.603-.447 1.084-.764 1.145-.806l.081-.058c1.018-.718 2.415-1.471 4.402-2.486v-.76c0-1.788-.409-2.606-1.533-2.606-.894 0-1.532.614-1.532 1.38 0 .536.05.97.05 1.251 0 1.252-.765 2.019-1.838 2.019-1.022 0-1.686-.69-1.686-1.738 0-2.145 2.197-3.933 5.747-3.933Zm20.749 0c1.966 0 3.524.537 4.47 1.405.995.945 1.098 2.043 1.098 3.575-.136 1.297-.136 2.48 0 3.551.2 1.568 1.087 3.26 1.408 3.338l.022.003v.241c-.664.843-1.762 1.093-3.04 1.093-1.481 0-2.477-.69-2.937-2.019-1.252 1.43-2.63 2.146-4.188 2.146-2.07 0-3.449-1.302-3.449-3.09 0-2.492 2.357-3.768 7.193-5.639l.215-.083v-.894c0-1.788-.41-2.236-1.534-2.236-.567 0-1.588.3-1.852.675-.152.217-.574-1.441-.237-1.614.759-.388 1.755-.452 2.83-.452Zm-5.754 0c1.225 0 2.042.792 2.043 1.992 0 1.047-.665 1.737-1.711 1.737-1.201 0-1.636-1.124-2.147-1.124-.612 0-.766.818-.766 2.503v6.084c0 .572.335 1.173.8 1.518.083.062.159.198.159.264 0 .065.014.164-.101.18a2.342 2.342 0 0 1-.264.013h-.236l-5.205-.001-.15-.001-.155-.002c-.204-.004-.394-.009-.47-.009-.122 0-.146-.06-.146-.141 0-.083.068-.16.287-.338.196-.16.637-.74.677-1.39l.003-.093V14.8c0-.67-.022-1.521-.406-2.014a8.504 8.504 0 0 0-.643-.875c-.022-.027-.17-.177-.165-.39.006-.214.643-.343.981-.467.339-.124 4.534-1.454 4.702-1.325.221.169.222.766 0 1.792.818-1.38 1.789-2.095 2.913-2.095Zm19.988 0c1.355-.017 2.542.329 3.558 1.037 1.017.708 1.525 1.447 1.525 2.217 0 .63-.348.935-1.043.918-.33-.018-.638-.197-.925-.537a6.384 6.384 0 0 1-.756-1.13c-.217-.41-.565-.79-1.043-1.14-.478-.35-1.055-.525-1.733-.525-1.078 0-1.964.442-2.66 1.325-.694.883-1.041 1.981-1.041 3.293 0 1.819.46 3.275 1.38 4.368.922 1.093 2.112 1.64 3.572 1.64.851 0 1.586-.232 2.203-.696a4.566 4.566 0 0 0 1.42-1.77c.104-.21.27-.289.496-.236.225.052.313.2.26.445-.208 1.067-.76 1.985-1.655 2.755-.895.77-2.046 1.154-3.454 1.154-1.824 0-3.367-.633-4.627-1.901-1.26-1.268-1.89-2.848-1.89-4.737 0-1.923.613-3.48 1.838-4.67 1.225-1.189 2.75-1.792 4.575-1.81Zm11.991 0c1.691 0 3.03.656 4.017 1.968V9.976c0-.21.075-.36.224-.447.15-.087.348-.087.595 0l1.559.473c.209.055.396.22.396.447v.062c0 .135-.185.312-.304.444s-.436.675-.436 1.146v8.344c0 .35.163.655.489.917.326.263.37.447.37.552v.078c0 .192-.123.29-.37.29h-2.127c-.282 0-.423-.14-.423-.42v-1.47a4.166 4.166 0 0 1-1.73 1.6c-.731.368-1.784.551-2.629.551-1.674 0-2.845-.612-4.043-1.836-1.198-1.224-1.797-2.807-1.797-4.749 0-1.906.59-3.472 1.77-4.696 1.181-1.225 2.66-1.837 4.439-1.837Zm22.824 0c1.394-.017 2.54.285 3.436.906.896.621 1.344 1.482 1.344 2.584 0 .892-.389 1.683-1.167 2.374-.779.69-1.812 1.159-3.097 1.403-1.267.228-2.798.272-4.59.132.308 1.242.878 2.226 1.711 2.951.833.726 1.838 1.09 3.015 1.09.977 0 1.801-.21 2.471-.63.426-.26.704-.434.921-.391.217.044.308.094.432.356s-.183.665-.782 1.176c-.849.682-2.146 1.167-3.666 1.167-1.902 0-3.464-.616-4.686-1.85-1.222-1.233-1.833-2.837-1.833-4.813 0-1.889.607-3.433 1.819-4.63 1.213-1.2 2.771-1.807 4.672-1.824Zm-8.809 0c.78 0 1.392.194 1.837.581.444.387.666.87.666 1.451 0 .827-.363 1.241-1.088 1.241-.309 0-.554-.097-.736-.29a1.522 1.522 0 0 1-.367-.633c-.063-.23-.204-.44-.422-.634-.217-.194-.445-.29-.897-.29-.561 0-.904.347-1.313 1.042-.408.695-.612 1.562-.612 2.6v6.018c0 .352.191.647.572.885.381.237.501.417.501.54v.106c0 .211-.065.316-.341.316h-3.507c-.363 0-.474-.105-.474-.316v-.105c0-.124.097-.304.433-.541.335-.238.504-.533.504-.885v-8.106c0-.335-.006-.624-.342-.869-.363-.263-.458-.457-.458-.58v-.053c0-.176.05-.335.322-.475l1.865-.898c.472-.21.707-.087.707.37v2.112c.617-1.725 1.771-2.587 3.15-2.587Zm-14.085.74c-1.148 0-2.083.451-2.807 1.356-.724.904-1.095 2.093-1.112 3.568-.035 1.825.362 3.366 1.191 4.621.83 1.255 1.898 1.892 3.204 1.91.847 0 1.619-.339 2.317-1.014.697-.677 1.046-1.603 1.046-2.779v-3.976l-.001-.077c-.022-.85-.405-1.658-1.151-2.425-.768-.79-1.664-1.185-2.687-1.185Zm-46.113 4.7c-1.481.588-2.298 1.89-2.298 3.78 0 1.099.485 1.738 1.149 1.738 1.1 0 1.148-.978 1.15-3.005v-2.513Zm20.75 0c-1.482.588-2.3 1.89-2.3 3.78 0 1.099.486 1.738 1.15 1.738 1.1 0 1.148-.978 1.15-3.005v-2.513Zm47.91-4.516c-1.153 0-2.096.44-2.829 1.318-.731.879-1.098 1.956-1.098 3.23 0 .207.019.518.056.931 1.793.12 3.239.07 4.337-.154 1.647-.328 2.462-1.25 2.444-2.767-.019-.758-.298-1.374-.838-1.847-.54-.474-1.231-.711-2.072-.711Z"/></g><defs><clipPath id="a"><path fill="#fff" d="M0 .917h131.667v30H0z"/></clipPath></defs></svg>