<svg xmlns="http://www.w3.org/2000/svg" width="55" height="56" fill="none"><path fill="#fff" d="M0 .333h55v55H0z"/><path fill="url(#a)" d="M25.677 28.237c.846 0 1.532.685 1.532 1.531v17.544a7.97 7.97 0 0 1-7.955-7.965v-3.14h-3.263a7.97 7.97 0 0 1-7.97-7.97h17.656Zm8.741-8.793c.846 0 1.532.685 1.532 1.531V38.52a7.97 7.97 0 0 1-7.97-7.96v-3.15h-3.252a7.97 7.97 0 0 1-7.966-7.965h17.656Zm8.738-8.798c.846 0 1.532.686 1.532 1.531v17.545a7.97 7.97 0 0 1-7.966-7.965v-3.14H33.47a7.972 7.972 0 0 1-7.97-7.971h17.656Z"/><defs><linearGradient id="a" x1="4939.95" x2="2736.61" y1="53.056" y2="2480.98" gradientUnits="userSpaceOnUse"><stop offset=".18" stop-color="#0052CC"/><stop offset="1" stop-color="#2684FF"/></linearGradient></defs></svg>