<svg xmlns="http://www.w3.org/2000/svg" width="24" height="25" fill="none"><path fill="#683BFF" d="m10.6 12.552 3.109-3.11c.2-.2.455-.3.764-.3s.563.1.763.3c.2.2.3.455.3.764 0 .31-.1.564-.3.764l-3.872 3.873a1.053 1.053 0 0 1-1.528 0L8.31 13.315c-.2-.2-.3-.454-.3-.763 0-.31.1-.564.3-.764.2-.2.455-.3.764-.3s.563.1.763.3l.764.764Z"/><path fill="#130738" d="M6.182 24.334a2.1 2.1 0 0 1-1.541-.641A2.101 2.101 0 0 1 4 22.152V2.515c0-.6.213-1.113.64-1.54A2.103 2.103 0 0 1 6.182.333H17.09a2.1 2.1 0 0 1 1.54.641 2.1 2.1 0 0 1 .642 1.541v19.637a2.1 2.1 0 0 1-.641 1.54 2.1 2.1 0 0 1-1.541.642H6.18Zm0-3.273v1.09H17.09v-1.09H6.18Zm0-2.182H17.09V5.788H6.18v13.091Zm0-15.273H17.09v-1.09H6.18v1.09Z"/></svg>