<svg xmlns="http://www.w3.org/2000/svg" width="114" height="17" fill="none"><path fill="#130738" d="M23.935.917c2.36 0 4.23.644 5.364 1.686 1.195 1.134 1.317 2.452 1.317 4.291v5.284c-.002 2.912-.016 4.405-.043 4.478-.033.089-.716.105-1.34.107h-.547c-1.778 0-2.973-.828-3.525-2.422-1.501 1.717-3.156 2.575-5.026 2.575-2.287 0-3.872-1.327-4.107-3.213l-.005-.043-.064.073c-1.733 1.968-4.712 3.147-7.196 3.183h-.114C4.174 16.916.987 13.82.987 9.1c0-2.39.98-4.627 2.727-6.19A7.946 7.946 0 0 1 8.987.917c3.493 0 5.883 1.992 5.883 4.475 0 1.41-1.041 2.513-2.482 2.513-1.287 0-2.207-1.042-2.207-2.33 0-2.298-.153-3.524-1.777-3.524-1.502 0-2.3 1.318-2.3 3.862 0 4.75 2.445 7.73 5.383 7.73 2.297-.001 3.688-1.056 5.205-2.295l.008-.008c.405-.35.829-.685 1.221-.981l.211-.157c.724-.537 1.3-.917 1.373-.97l.098-.067c1.22-.862 2.897-1.766 5.282-2.984V5.27c0-2.145-.49-3.126-1.839-3.126-1.072 0-1.839.736-1.839 1.655 0 .644.062 1.165.062 1.502 0 1.502-.92 2.421-2.207 2.421-1.226 0-2.023-.827-2.023-2.084 0-2.574 2.636-4.72 6.896-4.72Zm24.897 0c2.36 0 4.23.644 5.364 1.686 1.196 1.134 1.318 2.452 1.318 4.291-.164 1.555-.164 2.975 0 4.26.24 1.882 1.306 3.912 1.69 4.006l.027.003v.29c-.797 1.01-2.115 1.31-3.648 1.31-1.777 0-2.973-.828-3.524-2.422-1.502 1.717-3.157 2.575-5.026 2.575-2.483 0-4.138-1.563-4.138-3.709 0-2.99 2.827-4.521 8.63-6.765l.258-.1V5.27c0-2.145-.49-2.683-1.84-2.683-.68 0-1.907.36-2.223.811-.183.258-.687-1.729-.283-1.937.91-.465 2.105-.542 3.395-.543Zm-6.904 0c1.471 0 2.452.95 2.452 2.391 0 1.257-.797 2.084-2.054 2.084-1.44 0-1.962-1.349-2.575-1.349-.735 0-.919.982-.919 3.004v7.3c0 .686.402 1.407.96 1.82.1.075.19.24.19.318 0 .078.018.197-.12.217-.07.01-.19.013-.317.014h-6.529c-.058 0-.12 0-.18-.002l-.185-.003c-.245-.004-.472-.01-.565-.01-.145 0-.175-.07-.176-.17 0-.098.082-.19.345-.404.235-.192.764-.888.812-1.668l.004-.112V7.365c-.001-.803-.026-1.826-.488-2.416a10.223 10.223 0 0 0-.771-1.05c-.028-.034-.204-.213-.198-.469.008-.256.771-.411 1.177-.56.406-.15 5.44-1.744 5.643-1.59.265.202.265.919 0 2.15.98-1.655 2.145-2.513 3.494-2.513Zm23.985 0c1.627-.02 3.05.395 4.27 1.245 1.22.85 1.83 1.736 1.83 2.66 0 .755-.417 1.122-1.251 1.101-.396-.02-.766-.236-1.11-.645a7.658 7.658 0 0 1-.908-1.354c-.26-.493-.677-.95-1.25-1.369-.574-.42-1.268-.63-2.08-.63-1.293 0-2.357.53-3.191 1.59-.834 1.06-1.252 2.377-1.252 3.951 0 2.183.553 3.93 1.658 5.241 1.105 1.312 2.534 1.968 4.285 1.968 1.022 0 1.903-.278 2.643-.834a5.483 5.483 0 0 0 1.705-2.125c.125-.252.324-.346.595-.283.27.063.375.242.312.535-.25 1.28-.912 2.382-1.986 3.305-1.074.923-2.456 1.386-4.145 1.386-2.189 0-4.04-.761-5.551-2.282-1.512-1.522-2.268-3.417-2.268-5.683 0-2.309.735-4.177 2.205-5.604 1.47-1.427 3.3-2.152 5.49-2.173Zm14.39 0c2.029 0 3.635.787 4.818 2.36V1.58c0-.252.09-.43.27-.536.18-.105.418-.105.714 0l1.87.567c.25.066.475.264.475.537v.073c0 .162-.221.375-.364.533-.142.159-.523.811-.523 1.375V14.14c0 .42.196.787.587 1.102.39.314.443.535.443.66v.096c0 .23-.148.345-.443.345h-2.553c-.338 0-.507-.167-.507-.503v-1.763a5.01 5.01 0 0 1-2.077 1.92c-.877.441-2.14.662-3.154.662-2.008 0-3.414-.735-4.85-2.204-1.438-1.47-2.157-3.369-2.157-5.699 0-2.288.708-4.166 2.124-5.635C76.392 1.65 78.168.917 80.303.917Zm27.387 0c1.673-.02 3.046.342 4.122 1.087 1.075.745 1.613 1.779 1.613 3.101 0 1.07-.467 2.02-1.401 2.849-.934.828-2.173 1.39-3.715 1.684-1.521.273-3.357.325-5.508.157.369 1.49 1.054 2.671 2.053 3.542.999.871 2.206 1.307 3.618 1.307 1.173 0 2.161-.252 2.965-.756.511-.31.845-.52 1.105-.469.261.053.369.114.518.428.149.315-.219.797-.939 1.41-1.018.819-2.574 1.402-4.399 1.402-2.281 0-4.155-.74-5.621-2.22-1.467-1.48-2.2-3.405-2.2-5.776 0-2.267.728-4.12 2.183-5.557 1.456-1.438 3.325-2.168 5.606-2.189Zm-10.572 0c.936 0 1.671.232 2.205.697.533.464.799 1.045.799 1.742 0 .992-.435 1.488-1.305 1.488-.37 0-.665-.115-.882-.347a1.824 1.824 0 0 1-.442-.761c-.076-.275-.244-.528-.505-.76-.262-.232-.535-.349-1.078-.349-.673 0-1.084.417-1.574 1.251-.49.834-.734 1.875-.734 3.12v7.222c0 .422.228.776.685 1.06.457.286.6.502.6.65v.127c0 .253-.076.38-.408.38H90.27c-.435 0-.57-.127-.57-.38v-.127c0-.148.118-.364.52-.65.404-.284.605-.638.605-1.06V4.494c.001-.402-.007-.75-.41-1.043-.435-.317-.55-.549-.55-.697v-.063c0-.211.06-.402.387-.57l2.239-1.078c.565-.253.848-.105.848.444V4.02c.74-2.07 2.124-3.104 3.778-3.104Zm-16.901.887c-1.377 0-2.499.542-3.367 1.627-.869 1.085-1.314 2.513-1.335 4.282-.043 2.191.434 4.04 1.43 5.546.995 1.506 2.277 2.27 3.844 2.291 1.017 0 1.944-.405 2.78-1.216.837-.812 1.255-1.923 1.255-3.335V6.135c-.027-1.019-.487-1.989-1.381-2.909-.922-.948-1.998-1.422-3.226-1.422ZM24.885 7.446c-1.777.705-2.758 2.268-2.758 4.536 0 1.318.582 2.084 1.38 2.084 1.318 0 1.376-1.174 1.378-3.607V7.447Zm24.898 0c-1.777.705-2.758 2.268-2.758 4.536 0 1.317.582 2.084 1.379 2.084 1.319 0 1.377-1.174 1.378-3.607l.001-.164v-2.85Zm57.489-5.42c-1.384 0-2.515.527-3.393 1.582-.878 1.054-1.318 2.347-1.318 3.877 0 .248.022.62.066 1.116 2.153.145 3.888.082 5.205-.186 1.977-.393 2.954-1.5 2.932-3.319-.022-.91-.357-1.65-1.005-2.218-.648-.568-1.477-.852-2.487-.852Z"/></svg>