<svg xmlns="http://www.w3.org/2000/svg" width="168" height="28" fill="none"><g clip-path="url(#a)"><path fill="#130738" d="M106.407.442c1.586-.045 3.343-.072 4.419 1.235.178.235.308.488.406.751.093.29.124.666.114 1.029l-.021.332a4.155 4.155 0 0 1-.042.306l-2.826-.005c.05-.191.073-.42.05-.629l-.035-.176a.949.949 0 0 0-.27-.462c-.488-.486-1.318-.523-1.956-.324-.508.156-.928.527-1.271.959l-1.616.001 1.616.002a6.843 6.843 0 0 0-.644.994l-.364.77-.275.83-.161.76-.105.81c-.044.71.189 1.368.783 1.794.528.386 1.395.36 1.946.04.467-.248.79-.744.971-1.198l3.091-.002-.336.856c-.5 1.206-1.77 2.005-2.936 2.341l-.77.172-.82.091h-.803c-1.243-.08-2.466-.374-3.239-1.448-.83-.995-.927-2.428-.658-3.698l.191-.842.241-.76.216-.557.393-.86a.852.852 0 0 1 .047-.096h.002c.699-1.37 2.092-2.653 3.61-2.895l1.052-.121Zm41.241 11.039-2.906-.005 1.875-6.678.362-1.195.051-.142.235-.699c-.006-.015.01-.035-.011-.04l-.429.74h.004l-.196.333-4.946 7.677-2.437-.002-.245-7.644-.009-.365-.021-.648c-.003-.01-.02-.01-.03-.01l-.198.658-2.407 8.013-2.684-.004 2.432-8.009.871-2.859 4.549.003.054 2.856.058 3.123-.081 1.498c-.004.01.007.015.01.02l.824-1.581 1.959-3.06 1.827-2.854h4.523l-.796 2.854h-.004l-2.234 8.02ZM88.403 6.859l.262 1.975c.005.009.02.01.03.01l.02-.05.385-2.119.882-3.214h-.004L90.761.61 93.35.604l-.853 2.857-2.397 8.018h-3.21l-1.132-5.107-.102-.567-.282-2.344-.012-.1c-.005-.01-.021-.009-.031-.009l-.02.02-.013.09L85.22 4l-1.998 7.465H80.65l2.347-8.004h-.002L83.83.607l3.222.002.616 2.852.734 3.398Zm-16.44-3.395c-.714 2.55-1.64 5.881-1.63 5.914l4.05-.005-.584 2.103-6.879-.004 2.176-8.01.773-2.848 2.895-.007-.8 2.857Zm5.819 8.012h-3.067l2.382-8.015h.001l.845-2.847h3.08l-.849 2.847-2.392 8.015ZM64.02.616c.953.03 1.914.337 2.442 1.234.298.442.405 1.04.337 1.605h-.003a2.36 2.36 0 0 1-.294.909c-.466.852-1.343 1.443-2.23 1.651l-.78.194c-.01.005-.01.02-.01.028.643.117 1.41.441 1.602 1.155l.061.417-.022.88-.08 1.632c-.005.43.143.788.304 1.152H62.42a2.013 2.013 0 0 1-.325-1.243l.062-1.337-.02-.842c-.027-.228-.118-.435-.326-.566-.228-.121-.49-.168-.77-.173h-1.134c-.086-.005-.086.08-.122.13l-1.186 4.032h-2.92l2.373-8.013h.001l.844-2.856 5.124.01Zm51.7 4.133 3.589.006.39-1.294h.001l.863-2.856 3.071-.002-.86 2.858h-.003l-2.409 8.011-3.072.002s1.338-4.524 1.328-4.578h-3.63l-1.398 4.574h-3.041l2.393-8.009.849-2.854h3.113l-.817 2.854-.367 1.288ZM42.841.593c1.07.04 2.225.402 2.647 1.49.172.464.178.932.064 1.374h-.002c-.127.49-.4.946-.75 1.322-.6.568-1.329.81-2.108.938-.025.009-.02.014-.02.033l.018.045c.852.01 1.66.627 1.967 1.405.446 1.146-.111 2.25-.853 3.091-.627.604-1.422.817-2.227.992l-.974.122-1.043.065-4.915.002 2.395-8.01.857-2.869h4.944ZM153.478 11.47h-3.068l2.382-8.009h-.002l.849-2.854h3.082l-.853 2.854h-.001l-2.389 8.01Zm-19.886-8.852h-4.775l-.252.843-.431 1.444h4.628l-.632 2.038h-4.63l-.726 2.514 5.033.002s-.584 1.99-.595 2.008l-7.906-.003c-.017-.02 1.38-4.797 2.321-8.007h.002l.835-2.85h7.74l-.612 2.01Zm28.029.843-.431 1.444h4.624l-.628 2.038h-4.631l-.726 2.514 5.031.002s-.55 1.988-.562 2.008l-7.937-.003c-.017-.021 1.381-4.797 2.322-8.007l2.938.004ZM56.098 2.615h-4.772l-.253.846h-.001l-.43 1.444 4.626-.002-.607 2.038-4.653.002-.725 2.513 5.031.002s-.548 1.977-.563 2.007l-7.937-.003c-.017-.02 1.38-4.797 2.323-8.007.475-1.629.836-2.85.836-2.85h7.737l-.612 2.01ZM38.092 9.308h1.752c.693.005 1.322-.198 1.762-.76.25-.338.36-.892.133-1.278-.164-.319-.5-.439-.832-.494l-2.075-.022c-.061.244-.738 2.55-.74 2.554Zm59.803-1.145-3.353.003.386-1.776 3.303-.002-.336 1.775Zm68.752-5.545h-4.774l-.252.843L159.52.607h7.739l-.612 2.01ZM39.468 4.84h1.51c.659-.037 1.308-.208 1.693-.802a1.08 1.08 0 0 0 .166-.577.766.766 0 0 0-.116-.426c-.264-.43-.827-.444-1.206-.466h-1.367l-.267.892h.001l-.414 1.38Zm21.027.414h1.236c.674-.038 1.343-.091 1.814-.617.24-.316.366-.77.294-1.176a1.152 1.152 0 0 0-.112-.34c-.253-.352-.626-.456-1.045-.47h-1.43l-.236.81-.521 1.793ZM73.11 26.896v-.4l-.112-.015c-.797-.112-1.068-.238-1.18-.573-.08-.223-.112-.525-.112-.877v-7.046c0-1.1.256-1.386 1.276-1.45l.128-.015v-.4h-4.017l-3.189 7.523-3.186-7.523h-4.033v.4l.112.015c1.051.095 1.306.302 1.306 1.117v7.57c0 .923-.24 1.147-1.338 1.26l-.113.014v.4h3.731v-.4c-.049 0-.095 0-.128-.015-1.162-.094-1.482-.43-1.482-1.562v-7.412h.031l3.986 9.39h.43l3.985-9.63h.032V25.3c0 .449-.096.751-.287.91-.192.159-.415.223-1.02.271l-.112.015v.4m6.156-10.775v.398c.654.047.908.113 1.084.27.206.16.318.465.318.861v7.715c0 .415-.095.703-.287.845-.192.145-.397.207-1.003.27l-.112.018v.398h9.323l.638-3.315h-.445c-.368.764-.432.875-.672 1.226-.142.192-.318.4-.54.59-.765.7-1.674 1.003-2.948 1.003-1.084 0-1.371-.19-1.371-.89v-3.858c.637.015.732.03 1.083.113.367.093.733.317.957.62.303.4.414.764.542 1.737h.413v-5.388h-.413c-.16 1.053-.318 1.468-.702 1.834-.4.397-.844.524-1.88.541v-3.698c0-.588.206-.749.987-.749.94 0 1.929.128 2.392.32.19.078.366.208.541.366.383.351.639.828.782 1.467.03.16.079.319.111.509h.398V16.12m1.524 10.776h3.618v-.4l-.128-.015c-1.099-.143-1.388-.462-1.388-1.563v-6.374h.032l7.096 8.64h.443v-9.39c0-.875.209-1.115 1.15-1.26l.093-.014v-.4h-3.427v.4c1.183.127 1.485.445 1.485 1.577v4.829h-.033l-5.532-6.806h-3.362v.4c.334.015.573.206 1.276 1.068l.079.079v7.554c0 .894-.254 1.132-1.29 1.26l-.113.015"/><path fill="#130738" fill-rule="evenodd" d="m98.436 23.134 1.5-3.874 1.609 3.874m4.862 3.762v-.4c-.685 0-.894-.236-1.593-1.863l-.144-.351-3.555-8.384h-.447l-3.539 8.735-.127.303c-.367.877-.528 1.145-.827 1.338-.175.128-.306.159-.608.222v.4h3.236v-.4h-.098c-.843-.047-1.21-.253-1.21-.652 0-.129.034-.302.098-.478l.605-1.61h3.585l.541 1.371c.128.303.195.588.195.797 0 .38-.178.478-1.102.557-.03 0-.094.015-.174.015v.4h5.164Zm4.849-5.499V17.33c0-.477.238-.669.843-.669 1.465 0 2.074.688 2.074 2.312 0 1.084-.273 1.77-.83 2.072-.397.223-.814.302-1.657.336-.094 0-.239.015-.43.015Zm6.996 5.5v-.4c-.319 0-.494-.095-.652-.303l-3.206-4.541c.766-.24 1.005-.352 1.422-.622.715-.464 1.081-1.181 1.081-2.104 0-1.818-1.592-2.807-4.496-2.807h-5.131v.4l.128.015c1.035.064 1.273.335 1.273 1.45v7.046c0 1.13-.174 1.323-1.29 1.45-.013 0-.064.015-.111.015v.4h5.387v-.4l-.111-.015c-.797-.112-1.069-.238-1.18-.573-.077-.223-.111-.525-.111-.877v-3.125h.43l3.3 4.99h3.267Z" clip-rule="evenodd"/><path fill="#130738" d="M124.344 26.896v-.4h-.111c-1.085-.079-1.401-.334-1.401-1.13v-7.714c0-.815.333-1.069 1.401-1.133h.111v-.4h-5.578v.4h.111c1.035.08 1.371.352 1.371 1.133v7.713c0 .78-.285 1.022-1.371 1.116l-.111.015v.4m6.697 0h3.619v-.4l-.127-.015c-1.099-.143-1.385-.462-1.385-1.563v-6.374h.031l7.093 8.64h.444v-9.39c0-.875.208-1.115 1.149-1.26l.098-.014v-.4h-3.428v.4c1.18.127 1.482.445 1.482 1.577v4.829h-.034l-5.531-6.806h-3.36v.4c.332.015.571.206 1.273 1.068l.081.079v7.554c0 .894-.255 1.132-1.29 1.26l-.115.015m17.713.4v-.4h-.111c-1.086-.079-1.401-.334-1.401-1.13v-7.714c0-.815.335-1.069 1.401-1.133h.111v-.4h-5.578v.4h.111c1.038.08 1.37.352 1.37 1.133v7.713c0 .78-.285 1.022-1.37 1.116l-.111.015v.4"/><mask id="b" width="28" height="27" x="0" y="0" maskUnits="userSpaceOnUse" style="mask-type:luminance"><path fill="#fff" d="M27.11.617H.756v26.356H27.11V.617Z"/></mask><g mask="url(#b)"><path fill="#130738" fill-rule="evenodd" d="M26.725 26.587H1.14V1h25.585m.385-.384v26.356H.754V.617H27.11Z" clip-rule="evenodd"/></g><path fill="#130738" d="m.936.8 12.995 19.298L26.928.8"/><path stroke="#130738" stroke-miterlimit="3.864" stroke-width=".018" d="m.936.8 12.995 19.298L26.928.8H.936Z"/><path fill="#fff" d="M14.74 16.55v.403l-1.308.74v.01l1.308-.036v.449h-1.56v-.721l1.159-.635v-.014l-1.159-.623v-.736h1.56v.448l-1.313-.038v.017m.398-1.257v-1.094h.246v1.094h.413v-1.163h.255v1.613h-1.56v-1.604h.257v1.154m-.256-3.229v-.449h1.559v.745l-1.302.994v.015l1.302-.035v.449H13.18v-.743l1.304-1v-.013m-.267-2.129v.807l-.808-.4v-.005m1.035-.503.295-.152v-.456l-1.56.793v.66l1.56.777v-.466l-.295-.146v-1.01Zm-.474-1.829c0-.333-.045-.414-.275-.414-.22 0-.26.06-.26.382v.623h.534m.255 0h.515v.45h-1.558V7.08c.007-.511.114-.708.467-.708.23 0 .399.017.438.414h.008c.02-.318.135-.397.353-.397h.293v.45h-.293c-.13 0-.221.083-.223.298v.687Zm.515-2.267H13.18v.449h1.559v-.449ZM13.18 3.428v-.449h1.559v.744l-1.302.995v.015l1.302-.035v.448H13.18v-.742l1.304-1.002V3.39m.255-1.271H13.18v.448h1.559V2.12Z"/><path fill="#130738" d="M4.64 26.973V12.705l9.292 13.907 9.29-13.841v14.202" opacity=".4"/></g><defs><clipPath id="a"><path fill="#fff" d="M.735.417h166.504v26.667H.735z"/></clipPath></defs></svg>