<svg xmlns="http://www.w3.org/2000/svg" width="44" height="45" fill="none"><path fill="#130738" d="m20.398 7.858-5.98-5.06c-1.153-.975-2.92-.156-2.92 1.354v12.04c0 1.641.71 3.201 1.946 4.28l6.697 5.837a2.66 2.66 0 0 0 3.48.015l6.825-5.85a5.676 5.676 0 0 0 1.982-4.31V4.11c0-1.504-1.752-2.325-2.908-1.364L23.362 7.87c-.86.716-2.11.71-2.964-.012Z"/><g clip-path="url(#a)"><path fill="#130738" d="M16.987 33.557c-1.144 0-2.184.44-2.927 1.24-.733.789-1.137 1.876-1.137 3.063 0 2.453 1.81 4.303 4.212 4.303 1.32 0 2.564-.543 3.33-1.452l.033-.04-1.273-1.323-.041.05a2.631 2.631 0 0 1-2.049.974c-1.157 0-2.054-.785-2.25-1.96h6.124v-.555c-.111-2.612-1.69-4.3-4.022-4.3Zm-2.044 3.34c.294-.937 1.101-1.561 2.031-1.561 1.051 0 1.744.553 1.958 1.56h-3.989Zm9.86-3.442v.3h1.87v1.713h-1.87v6.603h-1.915v-6.603h-1.446v-1.713h1.446v-.536c0-1.874 1.47-2.886 2.855-2.886.704 0 1.42.208 2.014.584l.045.028-.809 1.546c-.3-.203-.667-.375-.985-.375-.362 0-1.205.13-1.205 1.339Zm16.614 4.238c.881.518 2.216 2.41 2.369 4.315l.005.063h-1.923l-.005-.053c-.14-1.49-1.46-3.07-2.014-3.38-.554.31-1.874 1.89-2.014 3.38l-.005.053h-1.923l.005-.063c.073-.917.424-1.915.989-2.81.428-.68.958-1.256 1.38-1.505-.812-.49-2.023-2.176-2.215-3.917l-.002-.021h1.98c.024 1.334 1.169 2.594 1.805 2.998.636-.404 1.78-1.664 1.805-2.998h1.98l-.002.021c-.192 1.741-1.404 3.426-2.215 3.917Zm-10.126-4.136c-2.383 0-4.25 1.89-4.25 4.304 0 2.414 1.867 4.304 4.25 4.304 2.384 0 4.25-1.89 4.25-4.304 0-2.413-1.866-4.304-4.25-4.304Zm0 6.826c-1.366 0-2.357-1.06-2.357-2.522 0-1.46.991-2.521 2.357-2.521 1.357 0 2.342 1.06 2.342 2.521 0 1.461-.985 2.522-2.342 2.522ZM12.41 33.755 10.283 41.1c-.21.724-.736 1.061-1.36 1.061-.655 0-1.145-.426-1.35-1.066L6.22 36.88l-1.35 4.217c-.206.64-.696 1.066-1.35 1.066-.625 0-1.152-.337-1.361-1.06L.034 33.754h2.06l1.438 5.853 1.379-4.484c.306-.994.652-1.242 1.31-1.242.659 0 1.005.248 1.311 1.242l1.379 4.484 1.439-5.853h2.06Z"/></g><defs><clipPath id="a"><path fill="#fff" d="M0 30.334h44v11.832H0z"/></clipPath></defs></svg>