<svg xmlns="http://www.w3.org/2000/svg" width="24" height="25" fill="none"><path fill="#683BFF" d="M15.6 21.534c-.34 0-.625-.115-.855-.345a1.161 1.161 0 0 1-.345-.855v-12c0-.34.115-.625.345-.855.23-.23.515-.345.855-.345h7.2c.34 0 .625.115.855.345.23.23.345.515.345.855v12c0 .34-.115.625-.345.855-.23.23-.515.345-.855.345h-7.2Zm1.2-3.6h4.8v-8.4h-4.8v8.4Z"/><path fill="#130738" d="M1.8 21.534c-.5 0-.925-.175-1.275-.525A1.736 1.736 0 0 1 0 19.734c0-.5.175-.925.525-1.275.35-.35.775-.525 1.275-.525h.6v-13.2c0-.66.235-1.225.705-1.695A2.311 2.311 0 0 1 4.8 2.334h16.8c.34 0 .625.115.855.345.23.23.345.515.345.855 0 .34-.115.625-.345.855-.23.23-.515.345-.855.345H4.8v13.2h5.4c.5 0 .925.175 1.275.525.35.35.525.775.525 1.275 0 .5-.175.925-.525 1.275-.35.35-.775.525-1.275.525H1.8Z"/></svg>