<svg xmlns="http://www.w3.org/2000/svg" width="279" height="250" fill="none"><path stroke="#130738" stroke-linecap="round" stroke-width="6" d="M208.999 220.5v0c0-18.811-13.027-35.113-31.374-39.263l-9.265-2.096a133.092 133.092 0 0 0-58.722 0l-9.265 2.096c-18.347 4.15-31.374 20.452-31.374 39.263v0"/><path stroke="#fff" stroke-linecap="round" stroke-width="26.102" d="M110.538 157.141a34.697 34.697 0 0 1 10.658-44.038 34.7 34.7 0 1 1 3.445 58.58"/><path stroke="#fff" stroke-linecap="round" stroke-linejoin="round" stroke-width="26.102" d="m134.779 162.021-13.416 11.695 11.695 13.416"/><path stroke="#130738" stroke-linecap="round" stroke-linejoin="round" stroke-width="6" d="m134.779 162.021-13.416 11.695 11.695 13.416"/><path stroke="#130738" stroke-linecap="round" stroke-width="6" d="M110.538 157.141a34.697 34.697 0 0 1 10.658-44.038 34.7 34.7 0 1 1 3.445 58.58"/><path fill="#683BFF" stroke="#683BFF" stroke-width="1.5" d="M141.848 129.011a2.321 2.321 0 0 1 1.452.687 2.34 2.34 0 0 1 .699 1.695v7.714h7.732c.653 0 1.233.238 1.695.7h-.001c.462.461.699 1.04.699 1.693a2.33 2.33 0 0 1-.699 1.692l.001.001c-.462.462-1.042.7-1.695.7h-7.714v7.714c0 .653-.238 1.233-.7 1.695l-.001-.001a2.33 2.33 0 0 1-1.692.699 2.329 2.329 0 0 1-1.693-.699v.001a2.336 2.336 0 0 1-.7-1.695v-7.697h-7.714a2.34 2.34 0 0 1-1.695-.699 2.335 2.335 0 0 1-.698-1.693c0-.653.237-1.232.698-1.694a2.34 2.34 0 0 1 1.695-.699h7.697v-7.732c0-.653.238-1.233.699-1.695a2.335 2.335 0 0 1 1.693-.698l.242.011Z"/><path stroke="#683BFF" stroke-width="3.5" d="M45.14 129.25c-14.575 0-26.39 11.815-26.391 26.39 0 14.574 11.816 26.39 26.39 26.39 14.575 0 26.39-11.816 26.39-26.39 0-14.575-11.815-26.39-26.39-26.39Z"/><circle cx="45.025" cy="149.222" r="4.368" stroke="#130738" stroke-width="2.877"/><path stroke="#130738" stroke-width="2.877" d="M43.087 158.002h4.103a7.32 7.32 0 0 1 7.32 7.32c0 .61-.494 1.105-1.104 1.105H36.871c-.61 0-1.104-.495-1.104-1.105a7.32 7.32 0 0 1 7.32-7.32Z"/><path stroke="#683BFF" stroke-width="3.5" d="M234.14 129.25c14.574 0 26.39 11.815 26.39 26.39 0 14.574-11.816 26.39-26.39 26.39-14.575 0-26.39-11.816-26.39-26.39 0-14.575 11.815-26.39 26.39-26.39Z"/><path stroke="#130738" stroke-width="2.877" d="M234.14 144.854c5.957 0 10.787 4.829 10.787 10.786s-4.83 10.787-10.787 10.787c-5.957 0-10.786-4.83-10.786-10.787 0-5.957 4.829-10.786 10.786-10.786Z"/><path stroke="#130738" stroke-linecap="round" stroke-linejoin="round" stroke-width="2.877" d="M233.834 149.833v6.113h3.973"/><path stroke="#683BFF" stroke-width="3.5" d="M141.86 28.25c-14.574 0-26.39 11.815-26.39 26.39 0 14.574 11.816 26.39 26.39 26.39 14.575 0 26.39-11.816 26.39-26.39 0-14.575-11.815-26.39-26.39-26.39Z"/><path stroke="#130738" stroke-width="2.75" d="M146.952 40.695a3.733 3.733 0 0 1 3.732 3.731v20.427a3.732 3.732 0 0 1-3.732 3.732h-10.184a3.732 3.732 0 0 1-3.732-3.732V44.426a3.732 3.732 0 0 1 3.732-3.731h10.184Z"/><g opacity=".4"><mask id="a" fill="#fff"><path d="M138.722 44.82c0-.651.527-1.179 1.178-1.179h3.928a1.179 1.179 0 1 1 0 2.357H139.9a1.178 1.178 0 0 1-1.178-1.178Z"/></mask><path fill="#130738" d="M138.722 44.82c0-.651.527-1.179 1.178-1.179h3.928a1.179 1.179 0 1 1 0 2.357H139.9a1.178 1.178 0 0 1-1.178-1.178Z"/><path fill="#130738" d="M139.9 43.641v2.357h3.928v-4.714H139.9v2.357Zm3.928 2.357v-2.357H139.9v4.714h3.928v-2.357Zm-3.928 0v-2.357a1.18 1.18 0 0 1 1.179 1.179h-4.714a3.535 3.535 0 0 0 3.535 3.535v-2.357Zm5.107-1.178h-2.357c0-.651.527-1.179 1.178-1.179v4.714a3.536 3.536 0 0 0 3.536-3.535h-2.357Zm-1.179-1.179v2.357a1.178 1.178 0 0 1-1.178-1.178h4.714a3.536 3.536 0 0 0-3.536-3.536v2.357Zm-3.928 0v-2.357a3.535 3.535 0 0 0-3.535 3.536h4.714c0 .65-.528 1.178-1.179 1.178v-2.357Z" mask="url(#a)"/></g><path stroke="#683BFF" stroke-width="3.5" d="M73.14 61.25c-14.575 0-26.39 11.815-26.391 26.39 0 14.574 11.816 26.39 26.39 26.39 14.575 0 26.39-11.816 26.39-26.39 0-14.575-11.815-26.39-26.39-26.39Z"/><path stroke="#130738" stroke-width="2.596" d="M82.238 78.354a8.344 8.344 0 1 1-11.8 11.8 8.344 8.344 0 0 1 11.8-11.8Z"/><path stroke="#130738" stroke-linecap="round" stroke-linejoin="round" stroke-width="1.854" d="M74.94 81.073a3.523 3.523 0 0 1 4.725 4.14" opacity=".4"/><path fill="#130738" stroke="#130738" stroke-width="2.225" d="M68.297 92.296a1.112 1.112 0 0 1 0 1.573l-5.244 5.243a1.113 1.113 0 1 1-1.573-1.572l5.244-5.244a1.113 1.113 0 0 1 1.573 0Z"/><mask id="b" fill="#fff"><path d="M68.735 90.285a1.113 1.113 0 0 1 1.573 1.573l-3.67 3.671a1.112 1.112 0 0 1-1.573-1.573l3.67-3.67Z"/></mask><path fill="#130738" d="M68.735 90.285a1.113 1.113 0 0 1 1.573 1.573l-3.67 3.671a1.112 1.112 0 0 1-1.573-1.573l3.67-3.67Z"/><path fill="#130738" d="m70.308 91.858-1.573-1.573-3.671 3.671 1.573 1.573 1.573 1.573 3.671-3.67-1.573-1.574Zm-5.244 2.098 1.573 1.573 3.671-3.67-1.573-1.574-1.573-1.573-3.671 3.67 1.573 1.574Zm0 1.573 1.573-1.573a1.112 1.112 0 0 1 0 1.573l-1.573-1.573-1.573-1.573a3.337 3.337 0 0 0 0 4.72l1.573-1.574Zm1.573 0-1.573-1.573a1.113 1.113 0 0 1 1.573 0l-1.573 1.573-1.573 1.573a3.337 3.337 0 0 0 4.72 0l-1.574-1.573Zm3.671-5.244-1.573 1.573a1.112 1.112 0 0 1 0-1.573l1.573 1.573 1.573 1.574a3.337 3.337 0 0 0 0-4.72l-1.573 1.573Zm0 0 1.573-1.573a3.337 3.337 0 0 0-4.72 0l1.574 1.573 1.573 1.573a1.112 1.112 0 0 1-1.573 0l1.573-1.573Z" mask="url(#b)"/><path stroke="#683BFF" stroke-width="3.5" d="M211.14 61.25c14.574 0 26.39 11.815 26.39 26.39 0 14.574-11.816 26.39-26.39 26.39-14.575 0-26.39-11.816-26.39-26.39 0-14.575 11.815-26.39 26.39-26.39Z"/><path stroke="#130738" stroke-linecap="round" stroke-linejoin="round" stroke-width="3.004" d="M216.002 83.076c.099-1.455-.476-4.266-5.16-4.266m0 0c-4.266 0-4.762 2.875-4.762 4.266 0 2.183.992 3.78 4.762 4.465 3.275.595 5.358 1.687 5.358 4.366 0 1.785-.794 4.365-5.358 4.365m0-17.462v-3.615m0 21.077c-3.651 0-4.762-2.811-4.762-4.365m4.762 4.365v3.813"/></svg>