<svg xmlns="http://www.w3.org/2000/svg" width="55" height="56" fill="none"><path fill="#2E3139" d="M0 .333h55v55H0z"/><g clip-path="url(#a)"><path fill="#1ABCFE" d="M27.5 27.828a6.111 6.111 0 1 1 12.222 0 6.111 6.111 0 0 1-12.222 0Z"/><path fill="#0ACF83" d="M15.278 40.05a6.111 6.111 0 0 1 6.11-6.11H27.5v6.11a6.111 6.111 0 0 1-12.222 0Z"/><path fill="#FF7262" d="M27.5 9.495v12.222h6.11a6.111 6.111 0 1 0 0-12.222H27.5Z"/><path fill="#F24E1E" d="M15.278 15.606a6.111 6.111 0 0 0 6.11 6.11H27.5V9.496h-6.11a6.111 6.111 0 0 0-6.111 6.11Z"/><path fill="#A259FF" d="M15.278 27.828a6.111 6.111 0 0 0 6.11 6.11H27.5v-12.22h-6.11a6.111 6.111 0 0 0-6.111 6.11Z"/></g><defs><clipPath id="a"><path fill="#fff" d="M15.275 9.495h24.45v36.667h-24.45z"/></clipPath></defs></svg>