<svg xmlns="http://www.w3.org/2000/svg" width="24" height="25" fill="none"><path fill="#130738" d="M18.466.333a1.9 1.9 0 0 1 1.393.58 1.9 1.9 0 0 1 .58 1.393V16c.033 1.283-1.938 1.283-1.973 0V5.334H5.973V22.36h7.553c.329 0 .575.103.74.308.164.206.247.432.247.678 0 .247-.083.473-.247.678-.165.205-.411.308-.74.309H5.973a1.9 1.9 0 0 1-1.394-.58A1.9 1.9 0 0 1 4 22.361V2.306A1.9 1.9 0 0 1 4.58.913a1.9 1.9 0 0 1 1.393-.58h12.493ZM5.973 2.306v1.027h12.493V2.306H5.973Z"/><path fill="#683BFF" d="M12.188 9.511c1.232 0 2.281.432 3.144 1.295s1.294 1.911 1.294 3.144c0 .444-.057.863-.172 1.258a4.018 4.018 0 0 1-.519 1.109c0 .002-.137.18-.348.423.098.061.187.14.262.237l.71.927a1.718 1.718 0 0 1 1.424.673l2.393 3.12a1.722 1.722 0 1 1-2.733 2.096L15.25 20.67a1.719 1.719 0 0 1-.278-1.55l-.711-.927a.996.996 0 0 1-.139-.25c-.22.11-.449.203-.69.271a4.512 4.512 0 0 1-1.245.173c-1.232 0-2.28-.431-3.143-1.294S7.75 15.183 7.75 13.95s.431-2.28 1.294-3.144c.863-.863 1.91-1.295 3.143-1.295Zm0 1.973c-.69 0-1.274.238-1.75.715-.477.476-.715 1.06-.715 1.75 0 .691.238 1.275.714 1.752a2.38 2.38 0 0 0 1.75.715c.69 0 1.275-.239 1.752-.715.476-.477.714-1.06.714-1.751 0-.69-.238-1.275-.715-1.751-.476-.477-1.06-.715-1.75-.715Z"/></svg>