<svg xmlns="http://www.w3.org/2000/svg" width="94" height="26" fill="none"><g clip-path="url(#a)"><path fill="#130738" d="M36.815 7.062c-2.417 0-4.613.93-6.184 2.62-1.55 1.665-2.402 3.963-2.402 6.47 0 5.183 3.826 9.092 8.9 9.092 2.788 0 5.417-1.147 7.034-3.068l.072-.085-2.69-2.793-.088.105c-.635.769-2.043 2.058-4.328 2.058-2.445 0-4.34-1.658-4.755-4.142h12.94v-1.172c-.236-5.519-3.572-9.085-8.499-9.085Zm-4.318 7.055c.62-1.98 2.326-3.298 4.292-3.298 2.22 0 3.684 1.17 4.136 3.298h-8.428ZM53.33 6.845v.634h3.951v3.62H53.33v13.95h-4.048V11.1H46.23V7.48h3.053V6.347c0-3.96 3.109-6.097 6.033-6.097 1.488 0 3 .438 4.257 1.233l.095.06-1.71 3.267c-.633-.43-1.41-.793-2.081-.793-.766 0-2.546.275-2.546 2.828ZM88.434 15.8c1.862 1.096 4.683 5.093 5.006 9.117l.01.134h-4.064l-.01-.112c-.295-3.147-3.086-6.485-4.255-7.14-1.17.655-3.96 3.993-4.255 7.14l-.01.112h-4.064l.01-.134c.156-1.936.897-4.044 2.09-5.935.906-1.438 2.026-2.654 2.916-3.182-1.715-1.036-4.274-4.596-4.68-8.275l-.005-.045h4.184c.052 2.819 2.47 5.481 3.814 6.334 1.344-.853 3.762-3.515 3.814-6.334h4.184l-.005.045c-.406 3.679-2.965 7.238-4.68 8.275ZM67.04 7.062c-5.036 0-8.98 3.994-8.98 9.094s3.944 9.094 8.98 9.094c5.035 0 8.98-3.995 8.98-9.094 0-5.1-3.945-9.094-8.98-9.094Zm0 14.421c-2.887 0-4.982-2.24-4.982-5.327 0-3.087 2.095-5.328 4.982-5.328 2.866 0 4.947 2.24 4.947 5.328 0 3.087-2.08 5.327-4.947 5.327ZM27.143 7.48 22.65 23.002c-.443 1.53-1.556 2.242-2.875 2.242-1.382 0-2.418-.901-2.852-2.253l-2.855-8.91-2.855 8.91c-.434 1.352-1.47 2.253-2.851 2.253-1.32 0-2.433-.713-2.876-2.242L.995 7.479h4.351l3.04 12.367 2.914-9.473c.646-2.102 1.378-2.624 2.769-2.624 1.391 0 2.123.522 2.77 2.624l2.913 9.473 3.04-12.367h4.35Z"/></g><defs><clipPath id="a"><path fill="#fff" d="M.923.25h92.97v25H.922z"/></clipPath></defs></svg>