<svg xmlns="http://www.w3.org/2000/svg" width="55" height="56" fill="none"><path fill="url(#a)" d="M0 0h55v55H0z" transform="translate(0 .333)"/><g clip-path="url(#b)"><path fill="#fff" fill-rule="evenodd" d="M40.547 25.694c.16.274.211.586.228.936l.023.467v3.265l.023.467c.046.764.609 1.328 1.378 1.376l.465.023v-5.131l.023-.467c.02-.346.07-.664.232-.94a1.865 1.865 0 0 1 3.228.006c.16.274.209.591.228.934l.023.465v3.267l.023.467c.048.767.606 1.332 1.378 1.376l.465.023V26.63a3.733 3.733 0 0 0-6.532-2.469 3.729 3.729 0 0 0-4.89-.623c-.363-.406-1.177-.642-1.643-.642v9.332l.466-.023c.781-.052 1.346-.6 1.376-1.376l.025-.467v-3.265l.023-.467c.02-.352.069-.662.228-.938a1.87 1.87 0 0 1 2.548-.68c.283.164.519.399.682.682ZM8.604 32.205l.467.023h6.998l-.023-.466c-.063-.767-.606-1.327-1.376-1.377l-.467-.023h-4.199l5.598-5.6-.023-.465c-.036-.775-.602-1.335-1.376-1.378l-.467-.02-6.998-.003.023.467c.06.76.612 1.332 1.375 1.376l.468.023H12.8l-5.598 5.6.023.467c.047.77.602 1.326 1.377 1.376Zm24.764-7.943a4.665 4.665 0 1 1-6.6 6.599 4.666 4.666 0 1 1 6.6-6.598Zm-1.32 1.322a2.8 2.8 0 0 1-3.96 3.96 2.801 2.801 0 0 1 3.96-3.96ZM20.27 22.896a4.662 4.662 0 0 1 3.297 1.367 4.665 4.665 0 0 1-3.3 7.964 4.666 4.666 0 0 1-.003-9.331h.006Zm1.977 2.686a2.801 2.801 0 0 1-3.96 3.96 2.8 2.8 0 0 1 3.96-3.96Z" clip-rule="evenodd"/></g><defs><linearGradient id="a" x1="55" x2="13.75" y1="4.01" y2="55" gradientUnits="userSpaceOnUse"><stop stop-color="#2D8CFF"/><stop offset="1" stop-color="#0058C2"/></linearGradient><clipPath id="b"><path fill="#fff" d="M5.73 22.442h43.54v10.24H5.73z"/></clipPath></defs></svg>