<svg xmlns="http://www.w3.org/2000/svg" width="114" height="35" fill="none"><path fill="#130738" d="M38.528 34.617H.917V.782l37.61 33.835ZM14.242 23.884v4.645c0 1.523 1.306 2.303 2.69 2.303 1.512 0 2.605-1.073 2.606-2.498 0-1.629-1.288-2.48-2.526-2.48-.37 0-.616.06-.762.12v1.443c.117-.068.314-.137.654-.137.605 0 1.073.44 1.073 1.064 0 .624-.468 1.064-1.073 1.064-.742 0-1.102-.527-1.102-1.258v-4.266h-1.56Zm8.387 1.95c-1.357 0-2.455 1.114-2.455 2.49 0 1.377 1.1 2.494 2.455 2.494 1.356 0 2.455-1.117 2.455-2.494l-2.386.007 1.85-1.565a2.45 2.45 0 0 0-1.919-.933Zm-13.944.02c-.499 0-1.005.284-1.347.666-.341-.382-.847-.665-1.345-.665-1.043 0-1.99.693-1.99 1.795v3.065h1.561v-2.81c0-.293.126-.547.497-.547.37 0 .497.254.497.547v2.81h1.56v-2.81c0-.293.13-.547.499-.547s.497.254.497.547v2.81h1.56V27.65c0-1.102-.945-1.795-1.989-1.795Zm3.022.119v4.742h1.561v-4.742h-1.56Zm.78-2.206a.876.876 0 0 0-.888.89c0 .505.391.886.888.886s.887-.38.887-.886c0-.508-.39-.89-.887-.89Zm94.011-10.634c2.231 0 3.147 1.797 3.147 3.918v.5h-5.41c0 1.67.898 3.019 2.602 3.019.626 0 1.498-.224 2.018-.48l.2-.11v.993c-.682.279-1.564.433-2.294.433-2.617 0-3.592-1.716-3.592-4.135.001-2.419 1.331-4.138 3.329-4.138Zm-39.717 0c2.232 0 3.144 1.797 3.144 3.918v.498H64.52c0 1.672.898 3.02 2.603 3.02.622 0 1.496-.223 2.017-.479l.2-.11v.992c-.681.279-1.564.433-2.294.433-2.62 0-3.596-1.715-3.596-4.134 0-2.419 1.334-4.138 3.332-4.138Zm27.646.187h1.8v.836h-1.8v5.112c0 .711.264 1.302 1.056 1.302.37 0 .619-.077.897-.188l.063.807a3.627 3.627 0 0 1-1.195.216c-1.734 0-1.796-1.19-1.796-2.631v-4.62H91.9v-.834h1.55v-1.906l.976-.341v2.247Zm5.472 0h1.796v.836h-1.796v5.112c0 .711.26 1.302 1.052 1.302.37 0 .619-.077.898-.188l.062.807a3.584 3.584 0 0 1-1.191.216c-1.737 0-1.8-1.19-1.8-2.631v-4.62h-1.55v-.834h1.55v-1.906l.979-.341v2.247Zm-16.023-.187c1.597 0 2.496 1.115 2.496 2.65v5.441h-.976v-5.257c0-1.114-.418-1.997-1.675-1.997-1.07 0-2.122.916-2.122 2.881v4.372h-.975v-5.256c0-1.114-.422-1.998-1.675-1.998-1.07 0-2.122.917-2.122 2.881v4.372h-.979v-6.044c0-.604 0-1.223-.058-1.857h.942v1.33l.033.015c.308-.543.774-1.533 2.463-1.533.696 0 1.844.294 2.093 1.671h.03c.355-.927 1.286-1.67 2.525-1.67Zm-25.292.001c1.95 0 2.694 1.301 2.694 3.035v5.054h-.975v-4.805c0-1.488-.527-2.448-1.876-2.449-1.781 0-2.339 1.566-2.339 2.881v4.372l-.975.001V15.18c0-.604 0-1.224-.062-1.858h.946v1.407h.029c.326-.71.917-1.594 2.558-1.594Zm-17.87 8.088h-1.115l-1.162-2.9h-5.454l-1.162 2.9H30.78l4.431-10.816h1.21l4.292 10.816Zm4.712-8.089c.235 0 .514.045.686.092v1.023a2.549 2.549 0 0 0-.715-.092c-1.55 0-1.969 1.733-1.969 3.16v3.906h-.974v-6.138c0-.865 0-1.192-.063-1.763h.975v1.517h.034c.355-.883 1.022-1.705 2.026-1.705Zm7.657 1.023-4.757 6.227h4.758v.84h-5.891v-.821l4.758-6.246h-4.572v-.835h5.705v.835Zm59.711 7.066h-.976V9.602h.976v11.62Zm-39.72 0H72.1v-7.903h.976v7.902Zm16.966 0h-.975v-7.903h.975v7.902Zm-56.658-3.83h4.696l-2.34-5.963-2.356 5.963Zm73.177-3.424c-1.441 0-2.324 1.441-2.324 2.743h4.34c0-1.38-.575-2.743-2.016-2.743Zm-39.716 0c-1.44 0-2.324 1.44-2.324 2.742h4.336c0-1.379-.571-2.742-2.012-2.742Zm6.235-2.76H72.1v-1.3h.977v1.302Zm16.965 0h-.976v-1.3h.977v1.302Z"/></svg>