<svg xmlns="http://www.w3.org/2000/svg" width="46" height="32" fill="none"><path fill="#130738" fill-rule="evenodd" d="M0 9.16V0h10.799c1.566 0 3.007.19 4.281.569 1.283.38 2.392.928 3.294 1.633a7.38 7.38 0 0 1 2.12 2.609c.498 1.021.69 2.132.69 3.407 0 1.593-.224 2.975-.956 4.102-.646 1.095-1.637 1.88-2.859 2.579.92.233 1.61.55 2.21.965a7.073 7.073 0 0 1 1.795 1.749c.489.685.862 1.347 1.11 2.175.247.826.373 1.75.373 2.64 0 3.041-.975 5.56-2.897 7.168C18.053 31.19 15.217 32 11.531 32H0v-9.128h4.23v4.583h7.28c4.59 0 7.099-1.438 7.099-4.941 0-.902-.142-1.48-.374-2.135-.225-.638-.806-1.278-1.354-1.692a6.02 6.02 0 0 0-2.209-1.042c-.401-.113-1.479-.263-2.671-.263H8.46v-4.58h3.412c2.124 0 2.728-.15 3.723-.862 1.002-.8 1.366-1.397 1.366-3.035 0-.742-.137-1.376-.36-1.93a2.963 2.963 0 0 0-1.02-1.34c-.502-.37-1.133-.627-1.957-.813-.839-.191-1.929-.253-3.154-.253H4.23v4.59H0Zm26.437 3.64h9.936v4.532h-9.716c-.247-.796-1.074-1.586-2.068-2.266.744-.55 1.713-1.362 1.848-2.266Zm14.691 14.64H27.281c-.717 1.72-1.78 3.306-3.153 4.561h21.769v-9.143h-4.769v4.582ZM25.388 3.031A12.252 12.252 0 0 0 23.04 0h22.857v9.155h-4.765V4.578h-15.07c-.189-.509-.41-1.066-.674-1.547Z" clip-rule="evenodd"/></svg>