<svg xmlns="http://www.w3.org/2000/svg" width="55" height="56" fill="none"><path fill="#fff" d="M0 .333h55v55H0z"/><g fill-rule="evenodd" clip-path="url(#a)" clip-rule="evenodd"><path fill="#36C5F0" d="M22.62 9.5a3.662 3.662 0 0 0-3.658 3.666 3.663 3.663 0 0 0 3.66 3.666h3.66v-3.664A3.666 3.666 0 0 0 22.62 9.5c.002 0 .002 0 0 0Zm0 9.778h-9.756a3.663 3.663 0 0 0-3.66 3.666 3.663 3.663 0 0 0 3.658 3.668h9.758a3.663 3.663 0 0 0 3.66-3.666 3.663 3.663 0 0 0-3.66-3.668Z"/><path fill="#2EB67D" d="M45.797 22.944a3.663 3.663 0 0 0-3.66-3.666 3.663 3.663 0 0 0-3.66 3.666v3.667h3.66a3.663 3.663 0 0 0 3.66-3.667Zm-9.758 0v-9.778A3.664 3.664 0 0 0 32.38 9.5a3.663 3.663 0 0 0-3.66 3.666v9.778a3.663 3.663 0 0 0 3.659 3.667 3.663 3.663 0 0 0 3.66-3.667Z"/><path fill="#ECB22E" d="M32.379 46.167a3.663 3.663 0 0 0 3.66-3.666 3.663 3.663 0 0 0-3.66-3.666h-3.66V42.5a3.665 3.665 0 0 0 3.66 3.666Zm0-9.78h9.758a3.663 3.663 0 0 0 3.66-3.666 3.663 3.663 0 0 0-3.658-3.667H32.38a3.663 3.663 0 0 0-3.66 3.666 3.662 3.662 0 0 0 3.659 3.667Z"/><path fill="#E01E5A" d="M9.204 32.722a3.663 3.663 0 0 0 3.66 3.666 3.663 3.663 0 0 0 3.66-3.666v-3.666h-3.66a3.663 3.663 0 0 0-3.66 3.666Zm9.758 0v9.777a3.663 3.663 0 0 0 3.659 3.668 3.663 3.663 0 0 0 3.66-3.666v-9.776a3.66 3.66 0 1 0-7.318-.003Z"/></g><defs><clipPath id="a"><path fill="#fff" d="M9.203 9.5h36.593v36.667H9.203z"/></clipPath></defs></svg>