<svg xmlns="http://www.w3.org/2000/svg" width="24" height="25" fill="none"><path fill="#683BFF" d="M12 15.883c1 0 1.85-.35 2.55-1.05.7-.7 1.05-1.55 1.05-2.55 0-1-.35-1.85-1.05-2.55-.7-.7-1.55-1.05-2.55-1.05-1 0-1.85.35-2.55 1.05-.7.7-1.05 1.55-1.05 2.55 0 1 .35 1.85 1.05 2.55.7.7 1.55 1.05 2.55 1.05Zm0-2.4c-.34 0-.625-.115-.855-.345a1.161 1.161 0 0 1-.345-.854c0-.34.115-.626.345-.856.23-.23.515-.345.855-.345.34 0 .625.115.855.345.23.23.345.515.345.855 0 .34-.115.626-.345.856-.23.23-.515.345-.855.345Zm-2.4 6.301c.78-.2 1.58-.3 2.4-.3.82 0 1.62.1 2.4.3.78.2 1.52.5 2.22.9h2.58v-1.2a11.88 11.88 0 0 0-7.2-2.4 11.88 11.88 0 0 0-7.2 2.4v1.2h2.58c.7-.4 1.44-.7 2.22-.9Z"/><path fill="#130738" d="M12 2.083c.54 0 1.02.161 1.44.481l7.2 5.4c.3.22.535.5.705.84.17.34.256.7.256 1.08v10.8c0 .659-.236 1.224-.706 1.694s-1.035.706-1.695.706H4.8a2.31 2.31 0 0 1-1.695-.706 2.312 2.312 0 0 1-.705-1.695v-10.8a2.384 2.384 0 0 1 .96-1.92l7.2-5.399c.42-.32.9-.48 1.44-.48Zm-7.2 7.8v10.8h14.4v-10.8l-7.2-5.4-7.2 5.4Z"/></svg>