<svg xmlns="http://www.w3.org/2000/svg" width="44" height="45" fill="none"><path fill="#130738" d="M8.744 38.55v-7.232a.298.298 0 0 1 .044-.043H11.4v12.559H8.744l-4.142-7.276-.015 7.276H1.96l.015-12.56h2.598l4.171 7.276Zm12.533-7.232v2.426a.294.294 0 0 1-.043.043h-5.038v2.367h4.677v2.511h-4.677v2.657h5.081v2.511h-7.795l.015-12.558h7.737a.25.25 0 0 1 .043.043Zm3.964-.044c1.478-.084 2.996.04 4.474.033.835.088 1.749 1.011 1.749 1.86v1.86h-2.685v-1.11c0-.036-.1-.151-.157-.131l-2.642.016-.073.072-.014 1.774.084.117c1.3.462 2.705.72 4.014 1.154 1.08.358 1.505.828 1.56 1.99.04.845.046 1.933 0 2.775-.057 1.077-.718 2.028-1.848 2.15H24.97c-.895-.078-1.848-1.007-1.848-1.92V40.08h2.685v1.11c0 .036.1.152.157.132.861-.057 1.809.07 2.66 0 .159-.014.173-.027.187-.188.048-.578-.034-1.228-.008-1.814-.043-.087-.135-.124-.219-.156-1.265-.489-2.8-.68-4.084-1.17-.704-.27-1.232-.72-1.32-1.51.055-1.084-.076-2.245-.002-3.32.075-1.099 1.009-1.83 2.064-1.891Zm10.178.033c1.467.015 3.07-.132 4.528-.033.844.057 1.584.55 1.884 1.35.03.077.123.362.123.425v1.978h-2.642a.293.293 0 0 1-.043-.043v-1.097c0-.017-.115-.12-.158-.102-.81.058-1.716-.073-2.514 0-.182.017-.201.069-.216.245-.033.393-.033 1.11 0 1.504.016.191.053.226.225.294 1.25.392 2.568.664 3.811 1.068.867.282 1.53.684 1.623 1.683v3.406c-.05.178-.077.36-.143.535a2.137 2.137 0 0 1-1.108 1.145l-.597.168h-4.734c-.785-.046-1.82-.978-1.82-1.776V40.08h2.686v1.14c0 .01.045.08.058.087h2.858c.056-.027.08-.142.087-.202.037-.35.043-1.36-.008-1.696-.021-.143-.073-.184-.2-.233-1.105-.416-2.454-.66-3.603-1.016-.967-.3-1.76-.646-1.847-1.79.161-1.805-.725-4.574 1.75-5.063Zm-21.882-2.605h-2.656l-.015-6.526-1.991 4.593-2.281-.03-1.978-4.562v6.525H1.96v-12.53l2.651-.024 3.137 7.502 3.176-7.507h2.57l.043 12.559Zm12.563 0h-2.801l-.782-2.48-3.824-.006-.793 2.486h-2.77V28.7l4.073-12.513.097-.047h2.63L26.1 28.7Zm8.152-12.559c1.062 0 2.011 1.077 1.978 2.121-.023 2.885.043 5.777-.033 8.658a2.086 2.086 0 0 1-1.475 1.7l-.34.08h-6.727l.043-12.559h6.554ZM30.397 26.19h2.989c.047 0 .115-.19.102-.244v-7.047c.002-.08-.046-.23-.13-.244h-2.96v7.535Zm-10.909-2.396h2.223l-1.111-4.13-1.112 4.13ZM39.923.866a2.113 2.113 0 0 1 1.642 1.747l.005 8.918c-.146 1.096-.972 1.799-2.064 1.863-1.609.094-3.344-.044-4.96-.038-.864-.136-1.525-.787-1.711-1.637a213.71 213.71 0 0 1-.005-9.188c.134-.846.927-1.606 1.781-1.698h5.139l.173.033ZM19.486.833c.913.15 1.635.832 1.787 1.751.051 3.012.06 6.043-.004 9.053-.188 1.055-1 1.695-2.055 1.757-1.5.088-3.084-.07-4.593 0-1.2-.037-2.047-.87-2.122-2.064.027-2.923-.048-5.853.038-8.77.135-.856.91-1.633 1.781-1.727h5.168Zm11.346 10.41c-.006 1.047-.735 1.957-1.78 2.117-1.324-.002-2.75.112-4.069.034-.74-.044-1.399-.37-1.786-1.015-.127-.212-.305-.664-.305-.907V9.28c0-.003.038-.043.043-.044h2.641v1.516c0 .065.144.15.215.131.673-.055 1.45.07 2.11 0 .079-.009.14-.018.15-.108l.008-9.94h2.772l.001 10.409ZM8.716.833c.19.054.385.09.568.168a2.11 2.11 0 0 1 1.218 1.554c.075 2.94.01 5.889.033 8.831-.066 1.005-.78 1.821-1.78 1.974-2.202 0-4.433.11-6.638.033-.055-.002-.11.003-.157-.03V.833h6.756Zm29.866 2.483c-.887-.074-1.875.058-2.773 0-.118.002-.268.051-.276.187l.015 7.264c.028.088.117.118.202.115.937-.06 1.963.076 2.89 0 .044-.003.118-.005.15-.037l.031-7.422c-.025-.084-.163-.1-.239-.107Zm-23.145.008c-.084.016-.152.052-.181.135l-.015 7.177c.013.153.04.25.217.246l2.991-.014c.1-.033.107-.142.114-.232L18.55 3.46c-.038-.103-.131-.131-.233-.142l-2.88.007ZM4.703 3.36v7.52h2.96c.065 0 .15-.144.131-.215V3.56c.022-.1-.096-.244-.189-.244H4.746a.294.294 0 0 0-.044.044Z"/><path fill="#130738" d="m8.744 38.55-.217.125.467.814v-.939h-.25Zm0-7.232-.237-.08-.013.039v.04h.25Zm.044-.043v-.25h-.04l-.037.012.077.238Zm2.612 0h.25v-.25h-.25v.25Zm0 12.559v.25h.25v-.25h-.25Zm-2.656 0-.217.123.072.127h.145v-.25Zm-4.142-7.276.217-.124-.466-.817-.001.94.25.001Zm-.015 7.276v.25h.25v-.25h-.25Zm-2.627 0h-.25v.25h.25v-.25Zm.015-12.56v-.25h-.25v.25h.25Zm2.598 0 .217-.123-.072-.126h-.145v.25Zm16.704.044h.25v-.059l-.026-.052-.224.11Zm0 2.426.224.112.026-.053v-.06h-.25Zm-.043.043v.25h.01l.01-.001-.02-.25Zm-5.038 0v-.25h-.25v.25h.25Zm0 2.367h-.25v.25h.25v-.25Zm4.677 0h.25v-.25h-.25v.25Zm0 2.511v.25h.25v-.25h-.25Zm-4.677 0v-.25h-.25v.25h.25Zm0 2.657h-.25v.25h.25v-.25Zm5.081 0h.25v-.25h-.25v.25Zm0 2.511v.25h.25v-.25h-.25Zm-7.795 0h-.25v.25h.25v-.25Zm.015-12.558v-.25h-.25v.25h.25Zm7.737 0 .016-.25h-.016v.25Zm4.007-.001-.014-.25.014.25Zm4.474.033.026-.248-.014-.002h-.013v.25Zm1.749 3.72v.25h.25v-.25h-.25Zm-2.685 0h-.25v.25h.25v-.25Zm0-1.11h.25v-.004l-.25.004Zm-.157-.131.002.25h.042l.04-.015-.084-.235Zm-2.642.016-.002-.25h-.103l-.072.074.177.176Zm-.073.072-.177-.176-.072.072v.102l.25.002Zm-.014 1.774-.25-.002-.001.082.048.067.203-.147Zm.084.117-.202.147.046.063.073.026.084-.236Zm4.014 1.154.079-.237-.079.237Zm1.56 1.99.25-.011-.25.012Zm0 2.775.25.013-.25-.013Zm-1.848 2.15v.25h.014l.013-.002-.027-.248Zm-4.734 0-.022.249h.022v-.25Zm-1.848-1.92h-.25.25Zm0-1.833v-.25h-.25v.25h.25Zm2.685 0h.25v-.25h-.25v.25Zm0 1.11h-.25v.004l.25-.003Zm.157.132-.017-.25-.034.002-.032.012.083.236Zm2.66 0-.022-.25.021.25Zm.187-.188.249.021-.25-.02Zm-.008-1.814.25.01.002-.064-.028-.058-.224.112Zm-.219-.156-.09.233.09-.233Zm-4.084-1.17-.09.233.09-.233Zm-1.32-1.51-.25-.012-.001.02.002.02.249-.027Zm-.002-3.32.25.017-.25-.017Zm12.242-1.858.003-.25h-.026l-.026.005.049.245Zm4.528-.033.017-.25-.017.25Zm1.884 1.35-.234.087.234-.087Zm.123.425h.25-.25Zm0 1.978v.25h.25v-.25h-.25Zm-2.642 0-.068.24.034.01h.035v-.25Zm-.043-.043h-.25V35l.002.015.248-.031Zm-.158-1.2.018.25.043-.003.04-.017-.1-.23Zm-2.514 0-.023-.248.023.249Zm-.216.246.249.02-.25-.02Zm0 1.504.249-.02v-.001l-.25.02Zm.225.294-.091.232.008.003.008.003.075-.238Zm3.811 1.068-.077.238.077-.238Zm1.623 1.683h.25v-.012l-.001-.011-.249.023Zm0 3.406.24.068.01-.034v-.034h-.25Zm-.143.535.233.088-.233-.088Zm-1.108 1.145.068.24.015-.004.014-.006-.097-.23Zm-.597.168v.25h.035l.033-.01-.068-.24Zm-4.734 0-.014.25h.014v-.25Zm-1.82-1.776h-.25.25Zm0-1.977v-.25h-.25v.25h.25Zm2.686 0h.25v-.25h-.25v.25Zm0 1.14h-.25v.02l.25-.02Zm.058.087-.132.213.06.037h.072v-.25Zm2.858 0v.25h.058l.052-.025-.11-.225Zm.087-.202.249.027v-.001l-.249-.026Zm-.008-1.696.247-.038-.247.038Zm-.2-.233.087-.234-.088.234Zm-3.603-1.016.074-.24-.074.24Zm-1.847-1.79-.25-.023v.043l.25-.02Zm-20.132-7.668v.25h.251V28.7h-.25Zm-2.656 0h-.25v.25h.25v-.25Zm-.015-6.526h.25l-.48-.1.23.1ZM8.875 26.77l-.003.25.166.002.066-.152-.229-.1Zm-2.281-.03-.23.1.065.148.161.002.004-.25Zm-1.978-4.562.23-.1-.48.1h.25Zm0 6.525v.25h.25v-.25h-.25Zm-2.656 0h-.25v.25h.25v-.25Zm0-12.53-.002-.25-.248.003v.247h.25Zm2.651-.024.231-.096-.065-.156-.168.002.002.25Zm3.137 7.502-.23.096.229.549.231-.548-.23-.097Zm3.176-7.507v-.25h-.166l-.064.153.23.097Zm2.57 0h.25l-.002-.25h-.249v.25ZM26.1 28.702v.25h.346l-.11-.33-.236.08Zm-2.801 0-.239.075.056.175h.183v-.25Zm-.782-2.48.238-.076-.055-.175h-.183v.25Zm-3.824-.006v-.25h-.182l-.056.174.238.076Zm-.793 2.486v.25h.183l.056-.174-.239-.076Zm-2.771 0h-.25v.25h.25v-.25Zm0-.001-.238-.078-.012.038v.04h.25Zm4.073-12.513-.109-.225-.096.046-.033.102.238.077Zm.097-.047v-.25h-.058l-.051.025.109.225Zm2.63 0 .237-.079-.057-.17h-.18v.25Zm12.323.002v-.25.25Zm1.978 2.121-.25-.008v.006l.25.002Zm-.033 8.658.248.037.002-.015v-.015l-.25-.007Zm-1.475 1.7.056.244.008-.002.007-.002-.071-.24Zm-.34.08v.25h.029l.027-.007-.056-.243Zm-6.727 0-.25-.001v.25h.25v-.25Zm.043-12.559v-.25h-.249v.25h.25Zm2.7 10.047h-.25v.25h.25v-.25Zm3.09-.244h-.25v.029l.007.028.243-.057Zm0-7.047-.25-.006v.006h.25Zm-.13-.244.043-.246-.022-.004h-.022v.25Zm-2.96 0v-.25h-.25v.25h.25Zm-10.91 5.139-.241-.066-.085.316h.326v-.25Zm2.223 0v.25h.326l-.085-.316-.241.066Zm-1.111-4.13.241-.064-.241-.897-.242.897.242.065ZM39.923.867l.055-.244-.01-.002-.045.246Zm1.642 1.747h.25v-.02l-.002-.018-.248.038Zm.005 8.918.248.033.002-.017v-.016h-.25Zm-2.064 1.863.014.25-.014-.25Zm-4.96-.038-.038.247.02.003h.02l-.001-.25Zm-1.711-1.637-.25.006v.024l.006.024.244-.054Zm-.005-9.188-.247-.04-.002.018v.017l.25.005ZM34.611.833v-.25h-.013l-.013.002.026.248Zm5.139 0 .046-.245-.023-.005h-.023v.25Zm-20.264 0 .04-.246-.02-.004h-.02v.25Zm1.787 1.751.25-.004v-.018l-.004-.018-.246.04Zm-.004 9.053.246.044.003-.02v-.018l-.25-.006Zm-2.055 1.757.015.25-.015-.25Zm-4.593 0-.008.25h.02l-.012-.25ZM12.5 11.33l-.25-.003v.018l.25-.015Zm.038-8.77-.247-.039-.002.016v.016l.25.007Zm1.78-1.727v-.25h-.013l-.013.002.026.248Zm16.514 10.41.25.001v-.001h-.25Zm-1.78 2.117v.25h.019l.018-.003-.037-.247Zm-4.069.034-.014.25.014-.25Zm-1.786-1.015-.214.129.214-.129Zm-.262-3.144v-.25h-.037l-.035.01.072.24Zm2.641 0h.25v-.25h-.25v.25Zm.215 1.647-.02-.249-.024.002-.022.006.066.241Zm2.11 0-.027-.25.026.25Zm.15-.108.249.03.002-.014v-.016h-.25Zm.008-9.94v-.25h-.25v.25h.25Zm2.772 0h.25v-.25h-.25v.25Zm-22.115 0 .068-.241-.034-.01h-.034v.25ZM9.284 1l.098-.23-.098.23Zm1.218 1.554.25-.006v-.017l-.003-.017-.247.04Zm.033 8.831.25.017v-.019l-.25.002Zm-1.78 1.974v.25h.02l.019-.003-.038-.247Zm-6.638.033-.009.25.01-.25Zm-.157-.03h-.25v.131l.108.075.142-.206Zm0-12.53v-.25h-.25v.25h.25Zm36.622 2.483.02-.25-.02.25Zm-2.773 0 .016-.25h-.02l.004.25Zm-.276.187-.25-.014v.015h.25Zm.015 7.264h-.25v.04l.012.038.238-.078Zm.202.115.008.25h.008l-.016-.25Zm2.89 0 .02.25-.02-.25Zm.15-.037.175.179.075-.073v-.105h-.25Zm.031-7.422.25.001v-.037l-.01-.036-.24.072Zm-23.383-.1-.001-.25h-.023l-.023.005.046.246Zm-.182.136-.236-.083-.014.04v.043h.25Zm-.015 7.177h-.25v.01l.001.011.25-.02Zm.217.246-.001-.25h-.005l.006.25Zm2.991-.014.001.25h.04l.038-.013-.079-.237Zm.114-.232.25.02v-.02h-.25ZM18.55 3.46h.25v-.044l-.015-.04-.235.084Zm-.233-.142.027-.249-.014-.001h-.013v.25ZM4.702 10.88h-.25v.25h.25v-.25Zm2.96 0v.25h.002l-.002-.25Zm.131-.215h-.25v.035l.01.033.24-.068Zm0-7.105-.244-.053-.006.026v.027h.25Zm-.189-.244.002-.25h-.002v.25Zm-2.858 0v-.25H4.72l-.026.005.052.245ZM8.744 38.55h.25v-7.232h-.5v7.232h.25Zm0-7.232.237.08a.253.253 0 0 1-.032.062l-.01.014-.004.005-.001.001.002-.002a.247.247 0 0 1 .004-.004l.004-.004.001-.001-.005.004-.013.01a.26.26 0 0 1-.062.03l-.077-.238-.077-.238a.25.25 0 0 0-.064.031l-.017.013a.401.401 0 0 0-.04.035.652.652 0 0 0-.05.057c0 .002-.02.028-.033.065l.237.08Zm.044-.043v.25H11.4v-.5H8.788v.25Zm2.612 0h-.25v12.559h.5v-12.56h-.25Zm0 12.559v-.25H8.744v.5H11.4v-.25Zm-2.656 0 .217-.124-4.142-7.276-.217.124-.218.124 4.143 7.275.217-.123Zm-4.142-7.276h-.25l-.015 7.275h.25l.25.001.015-7.275h-.25Zm-.015 7.276v-.25H1.96v.5h2.627v-.25Zm-2.627 0h.25l.015-12.559h-.5L1.71 43.833h.25Zm.015-12.56v.25h2.598v-.5H1.975v.25Zm2.598 0-.217.125 4.171 7.276.217-.125.217-.124-4.17-7.275-.218.124Zm16.704.044h-.25v2.426h.5v-2.426h-.25Zm0 2.426-.223-.113c.01-.018.02-.031.02-.034a.191.191 0 0 1 .011-.013l-.006.007a.105.105 0 0 1-.005.005l.002-.002.006-.005.019-.014a.262.262 0 0 1 .113-.038l.02.25.02.249a.248.248 0 0 0 .156-.07.549.549 0 0 0 .09-.11l-.223-.112Zm-.043.043v-.25h-5.038v.5h5.038v-.25Zm-5.038 0h-.25v2.367h.5v-2.367h-.25Zm0 2.367v.25h4.677v-.5h-4.677v.25Zm4.677 0h-.25v2.511h.5v-2.511h-.25Zm0 2.511v-.25h-4.677v.5h4.677v-.25Zm-4.677 0h-.25v2.657h.5v-2.657h-.25Zm0 2.657v.25h5.081v-.5h-5.08v.25Zm5.081 0h-.25v2.511h.5v-2.511h-.25Zm0 2.511v-.25h-7.795v.5h7.795v-.25Zm-7.795 0h.25l.015-12.558h-.5l-.015 12.558h.25Zm.015-12.558v.25h7.737v-.5h-7.737v.25Zm7.737 0-.016.25a.25.25 0 0 1-.116-.038l-.02-.014a.237.237 0 0 1-.006-.005l-.002-.002a.235.235 0 0 1 .008.008.246.246 0 0 1-.029-.045l.224-.111.224-.11a.198.198 0 0 0-.023-.039l-.01-.014-.014-.015a.67.67 0 0 0-.062-.06l-.023-.016c-.005-.003-.015-.01-.029-.016-.009-.004-.043-.02-.09-.023l-.016.25Zm4.007-.001.014.25a26.806 26.806 0 0 1 2.217-.012c.744.02 1.5.049 2.244.045l-.001-.25-.001-.25c-.734.004-1.476-.025-2.23-.045a27.4 27.4 0 0 0-2.257.012l.014.25Zm4.474.033-.026.249c.342.036.728.25 1.033.568.305.32.492.704.492 1.042h.5c0-.509-.27-1.01-.631-1.387-.361-.378-.85-.669-1.342-.72l-.026.248Zm1.749 1.86h-.25v1.86h.5v-1.86h-.25Zm0 1.86v-.25h-2.685v.5h2.685v-.25Zm-2.685 0h.25v-1.11h-.5v1.11h.25Zm0-1.11.25-.004a.292.292 0 0 0-.026-.115.544.544 0 0 0-.222-.23.311.311 0 0 0-.243-.018l.084.236.084.235a.19.19 0 0 1-.146-.004c-.013-.007-.016-.011-.011-.006l.006.006-.009-.015c-.002-.005-.016-.036-.017-.082l.25-.004Zm-.157-.131-.002-.25-2.642.016.002.25.001.25 2.643-.016-.002-.25Zm-2.642.016-.177-.176-.073.072.177.176.177.177.072-.072-.176-.177Zm-.073.072-.25-.002-.014 1.774.25.002.25.002.014-1.773-.25-.003Zm-.014 1.774-.203.147.085.117.203-.147.202-.147-.085-.117-.202.147Zm.084.117-.083.236c.661.235 1.347.417 2.024.594.68.177 1.35.348 1.995.562l.078-.238.079-.237c-.664-.22-1.352-.395-2.026-.571a24.553 24.553 0 0 1-1.983-.581l-.084.235Zm4.014 1.154-.078.238c.523.173.844.36 1.048.613.201.249.315.596.341 1.152l.25-.012.25-.012c-.03-.608-.157-1.077-.452-1.443-.293-.362-.724-.588-1.28-.773l-.079.237Zm1.56 1.99-.249.013c.04.837.044 1.916 0 2.749l.25.013.25.013a30.5 30.5 0 0 0 0-2.8l-.25.013Zm0 2.775-.249-.013c-.053.99-.65 1.809-1.626 1.914l.027.248.027.25c1.284-.14 2.01-1.222 2.071-2.386l-.25-.013Zm-1.848 2.15v-.25H24.97v.5h4.734v-.25Zm-4.734 0 .021-.25c-.374-.032-.783-.248-1.102-.573-.32-.324-.517-.725-.517-1.098h-.5c0 .542.28 1.062.66 1.449.381.388.896.675 1.416.72l.022-.248Zm-1.848-1.92h.25V40.08h-.5v1.833h.25Zm0-1.833v.25h2.685v-.5H23.12v.25Zm2.685 0h-.25v1.11h.5v-1.11h-.25Zm0 1.11-.25.004a.28.28 0 0 0 .026.115.544.544 0 0 0 .222.23c.041.02.134.056.241.019l-.082-.236-.083-.236a.183.183 0 0 1 .145.005c.013.006.016.01.011.005l-.006-.006.009.016c.002.005.016.036.017.082l-.25.003Zm.157.132.016.25c.416-.028.854-.011 1.309.005.448.016.913.03 1.355-.006l-.02-.25-.022-.248c-.408.034-.843.02-1.296.004-.447-.016-.913-.034-1.359-.005l.017.25Zm2.66 0 .02.249a.931.931 0 0 0 .13-.018.356.356 0 0 0 .174-.092.355.355 0 0 0 .093-.173.917.917 0 0 0 .019-.133l-.25-.02-.249-.022a.877.877 0 0 1-.004.044l-.002.011v.004l.001-.006a.15.15 0 0 1 .04-.06.171.171 0 0 1 .065-.04h-.004a1.254 1.254 0 0 1-.055.006l.021.25Zm.187-.188.249.02c.025-.305.016-.626.005-.933-.012-.313-.025-.61-.012-.89l-.25-.011-.25-.011c-.014.305.001.626.012.93a7.49 7.49 0 0 1-.004.875l.25.02Zm-.008-1.814.224-.112c-.093-.186-.284-.251-.353-.278l-.09.234-.09.233a1.121 1.121 0 0 1 .083.036c.012.008.007.008.002-.002l.224-.111Zm-.219-.156.09-.234c-.65-.25-1.367-.424-2.066-.593-.706-.171-1.395-.338-2.019-.577l-.089.234-.09.233c.66.252 1.38.426 2.08.596.706.17 1.39.337 2.004.574l.09-.233Zm-4.084-1.17.09-.234c-.656-.25-1.088-.641-1.162-1.303l-.248.028-.249.028c.103.917.726 1.426 1.48 1.714l.089-.233Zm-1.32-1.51.25.014c.028-.555.009-1.127-.008-1.685-.017-.561-.03-1.108.005-1.632l-.25-.017-.249-.017a17.365 17.365 0 0 0-.006 1.681c.017.563.035 1.114.008 1.644l.25.013Zm-.002-3.32.25.017c.064-.947.87-1.604 1.829-1.659l-.015-.25-.014-.249c-1.153.066-2.214.873-2.3 2.123l.25.018Zm12.242-1.858-.003.25c.74.008 1.516-.026 2.278-.048.765-.023 1.52-.034 2.236.014l.017-.25.017-.248c-.742-.051-1.518-.039-2.285-.016-.772.023-1.53.056-2.258.048l-.002.25Zm4.528-.033-.017.25c.757.05 1.405.49 1.667 1.188l.234-.089.234-.087c-.339-.901-1.17-1.448-2.1-1.512l-.018.25Zm1.884 1.35-.234.088a4.214 4.214 0 0 1 .107.35c.002.011 0 .004 0-.012h.25l.25-.002a.643.643 0 0 0-.023-.142 4.493 4.493 0 0 0-.116-.37l-.234.087Zm.123.425h-.25v1.978h.5v-1.978h-.25Zm0 1.978v-.25h-2.642v.5h2.642v-.25Zm-2.642 0 .069-.24a.239.239 0 0 1 .05.02l.019.011c.007.005.012.01.014.01l.005.004v.001h.001l-.002-.002-.004-.004a.075.075 0 0 1-.004-.004l-.002-.001.002.001.004.006.014.018a.246.246 0 0 1 .039.105l-.248.032-.248.031a.25.25 0 0 0 .04.108l.015.021a.35.35 0 0 0 .038.041.565.565 0 0 0 .059.05s.03.02.071.032l.069-.24Zm-.043-.043h.25v-1.097h-.5v1.097h.25Zm0-1.097h.25a.258.258 0 0 0-.052-.156.638.638 0 0 0-.212-.17.346.346 0 0 0-.087-.025.284.284 0 0 0-.157.02l.1.229.1.229a.217.217 0 0 1-.118.016.159.159 0 0 1-.04-.01c-.008-.004-.007-.005.002.002a.142.142 0 0 1 .015.012l-.01-.011a.217.217 0 0 1-.03-.064.244.244 0 0 1-.011-.072h.25Zm-.158-.102-.018-.25c-.388.028-.802.011-1.234-.005-.425-.017-.867-.032-1.285.006l.023.249.022.249c.38-.035.79-.021 1.221-.005.424.016.868.035 1.29.005l-.019-.25Zm-2.514 0-.023-.25c-.096.01-.245.032-.344.158a.422.422 0 0 0-.079.172c-.01.048-.016.1-.02.144l.25.02.249.022a1.175 1.175 0 0 1 .01-.077c0-.004 0-.003-.002.003a.134.134 0 0 1-.064.064l.008-.002a.39.39 0 0 1 .038-.005l-.023-.25Zm-.216.245-.25-.021a11.773 11.773 0 0 0 0 1.545l.25-.02.249-.021a11.291 11.291 0 0 1 0-1.462l-.25-.021Zm0 1.504-.25.02a.58.58 0 0 0 .109.33c.08.1.196.145.275.176l.091-.232.092-.233a.638.638 0 0 1-.075-.033c-.01-.005-.002-.003.007.009.01.012.012.021.01.015a.457.457 0 0 1-.01-.073l-.25.02Zm.225.294-.075.238c.633.199 1.281.366 1.92.533.642.168 1.275.335 1.889.535l.077-.238.077-.238a33.797 33.797 0 0 0-1.916-.543c-.643-.167-1.279-.332-1.897-.526l-.075.239Zm3.811 1.068-.077.238c.422.137.764.295 1.01.52.238.216.4.507.441.948l.249-.023.249-.023c-.052-.558-.267-.967-.602-1.272-.325-.297-.749-.481-1.193-.626l-.077.238Zm1.623 1.683h-.25v3.406h.5v-3.406h-.25Zm0 3.406-.24-.068a5.92 5.92 0 0 0-.069.279c-.02.087-.041.163-.068.236l.234.088.233.088c.04-.103.065-.204.087-.296.023-.097.04-.177.064-.26l-.241-.067Zm-.143.535-.234-.088c-.16.42-.554.827-.97 1.002l.096.23.097.231a2.386 2.386 0 0 0 1.244-1.287l-.233-.088Zm-1.108 1.145-.068-.241-.596.168.067.24.068.241.597-.168-.068-.24Zm-.597.168v-.25h-4.734v.5h4.734v-.25Zm-4.734 0 .015-.25c-.313-.018-.715-.222-1.047-.538-.334-.317-.537-.688-.537-.988h-.5c0 .498.314.991.693 1.351.381.362.89.647 1.361.674l.015-.25Zm-1.82-1.776h.25V40.08h-.5v1.977h.25Zm0-1.977v.25h2.686v-.5H33.64v.25Zm2.686 0h-.25v1.14h.5v-1.14h-.25Zm0 1.14-.25.02a.285.285 0 0 0 .038.119.803.803 0 0 0 .078.11c.005.005.027.03.06.05l.132-.212.132-.212a.23.23 0 0 1 .052.045.204.204 0 0 1-.016-.025l.003.006a.177.177 0 0 1 .013.037.232.232 0 0 1 .008.043l-.25.02Zm.058.087v.25h2.858v-.5h-2.858v.25Zm2.858 0 .11.225a.343.343 0 0 0 .135-.122.496.496 0 0 0 .053-.109.776.776 0 0 0 .038-.17l-.249-.026-.248-.027a.317.317 0 0 1-.013.057c-.003.008-.003.007.002 0a.177.177 0 0 1 .063-.053l.11.225Zm.087-.202.249.026c.02-.189.03-.54.03-.88 0-.336-.01-.69-.04-.88l-.247.038-.247.037c.022.147.034.465.034.806 0 .337-.01.666-.028.827l.25.026Zm-.008-1.696.247-.038a.517.517 0 0 0-.124-.283.592.592 0 0 0-.236-.146l-.088.234-.088.234c.027.01.041.017.048.021.007.004.003.003-.003-.004a.065.065 0 0 1-.008-.01l-.002-.005c0 .001.004.01.007.034l.247-.037Zm-.2-.233.087-.234c-.566-.213-1.191-.382-1.81-.54-.624-.158-1.24-.306-1.806-.481l-.074.239-.074.239c.582.18 1.216.332 1.83.488.619.158 1.22.32 1.758.523l.088-.234Zm-3.603-1.016.074-.24c-.484-.149-.882-.299-1.17-.533-.275-.222-.464-.53-.502-1.036l-.25.019-.248.019c.048.637.299 1.074.685 1.387.371.3.854.473 1.337.622l.074-.238Zm-1.847-1.79.249.022c.042-.471.016-1.002-.006-1.516-.022-.524-.039-1.036.013-1.504.051-.467.17-.865.399-1.172.225-.3.575-.536 1.143-.648l-.048-.245-.048-.245c-.67.132-1.137.425-1.447.838-.305.407-.44.906-.496 1.418-.057.51-.037 1.06-.015 1.578.022.528.046 1.02.007 1.451l.249.023Zm-20.132-7.668v-.25h-2.656v.5h2.656v-.25Zm-2.656 0h.25l-.015-6.526h-.5l.015 6.526h.25Zm-.015-6.526-.23-.1-1.99 4.594.229.099.23.1 1.99-4.593-.229-.1ZM8.875 26.77l.003-.25-2.28-.03-.004.25-.004.25 2.282.03.003-.25Zm-2.281-.03.23-.1-1.978-4.561-.23.1-.23.099 1.978 4.561.23-.1Zm-1.978-4.562h-.25v6.525h.5v-6.525h-.25Zm0 6.525v-.25H1.96v.5h2.656v-.25Zm-2.656 0h.25v-12.53h-.5v12.53h.25Zm0-12.53.002.25 2.652-.024-.003-.25-.002-.25-2.651.024.002.25Zm2.651-.024-.23.096 3.136 7.502.231-.096.23-.096-3.136-7.502-.23.096Zm3.137 7.502.23.097 3.176-7.506-.23-.098-.23-.097-3.176 7.506.23.098Zm3.176-7.507v.25h2.57v-.5h-2.57v.25Zm2.57 0h-.25l.043 12.56.25-.001.25-.001-.044-12.559-.25.001ZM26.1 28.702v-.25h-2.801v.5h2.8v-.25Zm-2.801 0 .238-.076-.782-2.48-.238.075-.239.075.782 2.48.239-.074Zm-.782-2.48v-.25l-3.823-.006v.25l-.001.25 3.823.005v-.25Zm-3.824-.006-.238-.076-.793 2.486.238.076.239.076.793-2.486-.239-.076Zm-.793 2.486v-.25h-2.77v.5h2.77v-.25Zm-2.771 0h.25V28.7h-.5.25Zm0-.001.238.077 4.073-12.513-.238-.077-.238-.077-4.073 12.512.238.078Zm4.073-12.513.11.225.096-.047-.11-.225-.108-.225-.097.047.11.225Zm.097-.047v.25h2.63v-.5h-2.63v.25Zm2.63 0-.238.079 4.171 12.56.238-.078.237-.08-4.171-12.56-.237.08Zm12.323.002v.25c.446 0 .886.228 1.215.588.33.36.528.83.514 1.275l.25.008.25.008c.018-.598-.243-1.19-.645-1.629-.402-.44-.968-.75-1.584-.75v.25Zm1.978 2.121-.25-.002c-.023 2.898.043 5.773-.033 8.654l.25.006.25.007c.075-2.882.01-5.79.033-8.663l-.25-.002Zm-.033 8.658-.247-.036a1.836 1.836 0 0 1-1.3 1.497l.072.24.071.24a2.336 2.336 0 0 0 1.652-1.904l-.248-.037Zm-1.475 1.7-.057-.243-.34.08.057.243.056.243.34-.079-.056-.243Zm-.34.08v-.25h-6.727v.5h6.727v-.25Zm-6.727 0h.25l.043-12.558h-.25l-.25-.002-.043 12.559h.25Zm.043-12.559v.25h6.554v-.5h-6.554v.25Zm2.7 10.047v.25h2.988v-.5h-2.989v.25Zm2.988 0v.25a.28.28 0 0 0 .179-.067.361.361 0 0 0 .065-.073.785.785 0 0 0 .1-.242.397.397 0 0 0 .002-.17l-.244.058-.243.057a.166.166 0 0 1-.005-.05v.002a.293.293 0 0 1-.013.042l-.01.021s.009-.013.026-.028a.221.221 0 0 1 .143-.05v.25Zm.102-.244h.25v-7.047h-.5v7.047h.25Zm0-7.047.25.005a.615.615 0 0 0-.055-.255c-.029-.063-.11-.21-.282-.24l-.044.246-.043.246a.149.149 0 0 1-.082-.041c-.008-.009-.008-.012-.004-.004a.14.14 0 0 1 .008.027l.002.01.25.006Zm-.13-.244v-.25h-2.96v.5h2.96v-.25Zm-2.96 0h-.25v7.535h.5v-7.535h-.25Zm-10.91 5.139v.25h2.223v-.5h-2.223v.25Zm2.223 0 .241-.066-1.111-4.128-.241.065-.242.065 1.111 4.128.242-.064Zm-1.111-4.13-.242-.064-1.111 4.128.241.066.242.064 1.111-4.128-.241-.065ZM39.923.867l-.055.244c.756.17 1.331.764 1.45 1.54l.247-.037.248-.038A2.363 2.363 0 0 0 39.977.622l-.055.244Zm1.642 1.747h-.25l.005 8.918h.5l-.005-8.918h-.25Zm.005 8.918-.248-.033c-.129.968-.849 1.589-1.83 1.647l.014.249.014.25c1.202-.07 2.134-.856 2.298-2.08l-.248-.033Zm-2.064 1.863-.015-.25c-.793.047-1.62.036-2.456.014-.832-.022-1.676-.055-2.489-.052v.25l.002.25c.802-.003 1.633.03 2.474.052.838.022 1.683.033 2.498-.014l-.014-.25Zm-4.96-.038.04-.247c-.76-.12-1.341-.69-1.507-1.443l-.244.053-.244.054c.207.946.945 1.677 1.917 1.83l.039-.247Zm-1.711-1.637.25-.006a214.315 214.315 0 0 1-.005-9.177l-.25-.005-.25-.005c-.06 3.057-.067 6.141.005 9.2l.25-.007Zm-.005-9.188.247.039c.117-.735.82-1.408 1.561-1.488l-.027-.249-.026-.248c-.967.104-1.85.95-2.002 1.907l.247.039ZM34.611.833v.25h5.139v-.5h-5.139v.25Zm5.139 0-.046.246.173.032.046-.245.046-.246-.173-.032-.046.245Zm-20.264 0-.04.247c.813.133 1.447.737 1.58 1.545l.247-.04.246-.041c-.17-1.031-.98-1.792-1.992-1.957l-.04.246Zm1.787 1.751-.25.005c.051 3.009.06 6.036-.004 9.043l.25.005.25.005c.063-3.014.055-6.048.003-9.062l-.25.004Zm-.004 9.053-.247-.044c-.165.93-.87 1.495-1.823 1.552l.015.249.015.25c1.156-.069 2.075-.781 2.286-1.963l-.246-.044Zm-2.055 1.757-.015-.25c-.738.044-1.498.027-2.272.007-.77-.02-1.552-.042-2.317-.007l.011.25.012.25c.743-.034 1.507-.013 2.282.007.77.02 1.552.037 2.314-.007l-.015-.25Zm-4.593 0 .008-.25c-1.07-.033-1.813-.763-1.88-1.83l-.25.016-.25.015c.084 1.322 1.034 2.258 2.364 2.299l.008-.25ZM12.5 11.33l.25.002c.027-2.936-.048-5.848.038-8.765l-.25-.007-.25-.007c-.086 2.918-.011 5.866-.038 8.774l.25.003Zm.038-8.77.247.04c.119-.752.808-1.437 1.561-1.518l-.027-.249-.026-.248c-.99.106-1.85.974-2.002 1.936l.247.04Zm1.78-1.727v.25h5.168v-.5h-5.168v.25Zm16.514 10.41-.25-.002c-.005.934-.653 1.732-1.568 1.872l.038.247.037.247c1.176-.18 1.987-1.201 1.993-2.363l-.25-.001Zm-1.78 2.117v-.25c-1.357-.002-2.74.112-4.054.035l-.015.249-.014.25c1.324.078 2.791-.036 4.082-.034v-.25Zm-4.069.034.015-.25c-.675-.04-1.25-.333-1.586-.893l-.215.128-.214.13c.438.728 1.18 1.087 1.986 1.135l.014-.25Zm-1.786-1.015.215-.128a2.433 2.433 0 0 1-.18-.398 1.352 1.352 0 0 1-.09-.38h-.5c0 .166.057.373.12.548.064.18.146.363.22.487l.215-.129Zm-.305-.907h.25V9.28h-.5v2.193h.25Zm0-2.193h.25a.246.246 0 0 1-.037.13l-.014.02a.144.144 0 0 1-.005.006l-.001.002.001-.002.004-.004.004-.004.002-.002-.006.005-.014.01a.25.25 0 0 1-.07.035l-.071-.24-.072-.24a.276.276 0 0 0-.108.064.74.74 0 0 0-.06.064l-.016.024a.254.254 0 0 0-.037.132h.25Zm.043-.044v.25h2.641v-.5h-2.641v.25Zm2.641 0h-.25v1.516h.5V9.235h-.25Zm0 1.516h-.25a.33.33 0 0 0 .085.214.529.529 0 0 0 .252.156.37.37 0 0 0 .194.002l-.066-.24-.066-.242a.163.163 0 0 1 .051-.006c.01 0 .016.002.017.003.002 0 0 0-.006-.004-.006-.003-.004-.004.002.004a.136.136 0 0 1 .02.03.192.192 0 0 1 .017.083h-.25Zm.215.131.02.25c.318-.027.663-.01 1.029.005.358.016.736.03 1.087-.007l-.027-.249-.026-.248c-.308.033-.649.02-1.013.005-.356-.015-.735-.034-1.09-.005l.02.25Zm2.11 0 .026.248c.027-.003.116-.01.195-.052a.35.35 0 0 0 .178-.273l-.248-.031-.248-.031c0-.004.003-.024.019-.048a.163.163 0 0 1 .059-.056c.017-.01.029-.011.025-.01a.478.478 0 0 1-.033.004l.026.248Zm.15-.108h.25l.008-9.94h-.5l-.007 9.94h.25Zm.008-9.94v.25h2.772v-.5H28.06v.25Zm2.772 0h-.25l.001 10.409h.5V.833h-.25Zm-22.115 0-.068.24c.22.062.374.088.538.157l.098-.23.098-.23C9.18.685 8.944.638 8.784.593l-.068.24ZM9.284 1l-.098.23c.544.232.974.78 1.07 1.364l.246-.04.247-.04A2.36 2.36 0 0 0 9.382.772l-.098.23Zm1.218 1.554-.25.007c.075 2.938.01 5.871.033 8.826l.25-.002.25-.002c-.023-2.93.042-5.896-.033-8.835l-.25.006Zm.033 8.831-.25-.016c-.058.893-.69 1.608-1.567 1.743l.038.247.038.247c1.12-.171 1.917-1.088 1.99-2.204l-.249-.017Zm-1.78 1.974v-.25c-2.221 0-4.428.11-6.63.033l-.008.25-.009.25c2.209.077 4.464-.033 6.648-.033v-.25Zm-6.638.033.01-.25h-.044l-.017-.002.01.003a.105.105 0 0 1 .025.013l-.141.206-.142.206c.124.085.28.073.29.074l.01-.25Zm-.157-.03h.25V.833h-.5v12.53h.25Zm0-12.53v.25h6.756v-.5H1.96v.25Zm36.622 2.483.02-.25c-.46-.038-.943-.022-1.411-.006-.474.017-.932.035-1.366.006l-.016.25-.017.25c.464.03.95.01 1.416-.006.473-.017.927-.03 1.353.005l.021-.25Zm-2.773 0-.005-.25a.643.643 0 0 0-.296.075.422.422 0 0 0-.224.348l.25.014.249.015a.09.09 0 0 1-.016.045c-.01.012-.017.016-.016.015a.09.09 0 0 1 .022-.007.199.199 0 0 1 .04-.005l-.004-.25Zm-.276.187h-.25l.015 7.265h.25l.25-.001-.015-7.264h-.25Zm.015 7.264-.238.078c.08.245.318.291.448.287l-.008-.25-.008-.25c-.013 0-.013-.002-.002.003a.098.098 0 0 1 .046.054l-.238.078Zm.202.115.016.25c.454-.03.931-.011 1.424.006.488.017.99.033 1.47-.006l-.02-.25-.02-.249c-.447.036-.921.022-1.412.005-.487-.017-.99-.036-1.474-.005l.016.25Zm2.89 0 .02.25c.01-.001.06-.004.102-.011a.381.381 0 0 0 .203-.097l-.175-.179-.175-.179a.181.181 0 0 1 .054-.036l.008-.002a.263.263 0 0 1-.038.004l-.02.001.02.25Zm.15-.037.25.001.031-7.422h-.25l-.25-.002-.031 7.422.25.001Zm.031-7.422.24-.072c-.05-.165-.197-.227-.263-.248a.87.87 0 0 0-.195-.036l-.021.249-.02.249a.681.681 0 0 1 .08.013c.008.002.002.002-.01-.008a.149.149 0 0 1-.05-.075l.24-.072Zm-23.383-.1-.047-.245a.462.462 0 0 0-.37.298l.235.083.236.084a.068.068 0 0 1-.023.03l-.004.001a.119.119 0 0 1 .019-.005l-.046-.245Zm-.182.136h-.25l-.015 7.177h.5l.015-7.176h-.25Zm-.015 7.177-.249.021c.006.07.017.2.092.306.097.135.244.172.38.17l-.006-.25-.006-.25c-.022 0-.021-.003-.008.002a.115.115 0 0 1 .048.039c.01.014.01.021.007.009a.828.828 0 0 1-.009-.068l-.249.021Zm.217.246.001.25 2.991-.014v-.25l-.002-.25-2.991.014.001.25Zm2.991-.014.08.237a.392.392 0 0 0 .247-.247c.029-.08.034-.166.037-.201l-.25-.02-.249-.021a.93.93 0 0 1-.005.055c-.002.014-.004.019-.004.018a.121.121 0 0 1 .065-.059l.08.238Zm.114-.232h.25L18.8 3.459h-.25l-.25.001.014 7.177h.25ZM18.55 3.46l.235-.085c-.09-.25-.326-.294-.441-.306l-.027.249-.026.249a.32.32 0 0 1 .041.006l.01.003a.06.06 0 0 1-.016-.013.058.058 0 0 1-.011-.017l.235-.086Zm-.233-.142v-.25l-2.88.007v.25l.001.25 2.88-.007v-.25ZM4.702 3.36h-.25v7.52h.5V3.36h-.25Zm0 7.52v.25h2.96v-.5h-2.96v.25Zm2.96 0 .002.25a.33.33 0 0 0 .213-.085.53.53 0 0 0 .155-.252.372.372 0 0 0 .002-.195l-.241.067-.24.068a.16.16 0 0 1-.005-.069l-.003.006c-.003.006-.004.004.004-.002a.13.13 0 0 1 .03-.02.19.19 0 0 1 .081-.018l.002.25Zm.131-.215h.25V3.56h-.5v7.105h.25Zm0-7.105.244.054a.452.452 0 0 0-.1-.369.52.52 0 0 0-.127-.116.387.387 0 0 0-.204-.063l-.002.25v.25a.14.14 0 0 1-.045-.007.08.08 0 0 1-.017-.008c-.003-.002 0 0 .004.005s.004.007.003.004a.103.103 0 0 1 0-.053l.244.053Zm-.189-.244v-.25H4.746v.5h2.858v-.25Zm-2.858 0-.052-.245a.252.252 0 0 0-.125.067.701.701 0 0 0-.078.087.256.256 0 0 0-.017.031c-.003.008-.022.049-.022.104h.5a.25.25 0 0 1-.057.158l-.001.002.001-.002a.358.358 0 0 1 .009-.008l.001-.002a.166.166 0 0 1-.021.016.243.243 0 0 1-.086.036l-.052-.244Z"/></svg>