<svg xmlns="http://www.w3.org/2000/svg" width="110" height="38" fill="none"><g fill="#130738" clip-path="url(#a)"><path d="M12.651 0c-.589 0-1.162.123-1.681.348-.522.22-.941.487-1.333.87a4.581 4.581 0 0 0-.928 1.39 4.037 4.037 0 0 0-.348 1.624c0 .589.128 1.162.348 1.681.225.513.543.95.928 1.333.392.388.811.703 1.333.928.52.22 1.092.348 1.681.348.594 0 1.162-.128 1.681-.348.515-.225.951-.54 1.334-.928.385-.382.702-.82.927-1.333.22-.52.348-1.092.348-1.681 0-.59-.128-1.104-.348-1.623a4.581 4.581 0 0 0-.927-1.392c-.383-.382-.819-.649-1.334-.87A4.22 4.22 0 0 0 12.652 0Zm-8.58 11.13c-.588 0-1.103.065-1.623.29a4.512 4.512 0 0 0-1.391.928c-.385.385-.65.872-.87 1.391a3.945 3.945 0 0 0-.347 1.623v9.392h19.652v2.608H-.16v1.682c0 .59.125 1.161.347 1.68.22.52.487.947.87 1.334.387.383.872.705 1.391.928.52.224 1.034.347 1.623.347h17.16a3.96 3.96 0 0 0 1.623-.347 4.47 4.47 0 0 0 1.391-.928c.388-.387.703-.814.928-1.333.225-.52.29-1.09.29-1.681v-9.392H5.81v-2.55h19.652v-1.74c0-.589-.063-1.108-.29-1.623a4.446 4.446 0 0 0-.928-1.391 4.431 4.431 0 0 0-1.39-.928c-.52-.225-1.035-.29-1.624-.29H4.07Zm29.422 17.578.486-1.38c.577.302 2.068.677 3.096.677 2.234 0 2.627-1.063 2.627-1.967 0-.954-.736-1.488-1.574-1.815-1.23-.502-2.093-.703-3.03-1.323-1.03-.71-1.28-1.581-1.28-2.468 0-2.083 1.625-3.289 4.217-3.289 1.389 0 2.502.368 2.811.443V19.1a8.92 8.92 0 0 0-2.962-.536c-1.498 0-2.367.635-2.367 1.783s1.113 1.531 2.694 2.093c1.74.644 3.322 1.297 3.322 3.581s-1.581 3.448-4.25 3.448c-1.975 0-3.323-.536-3.791-.761h.001Zm10.216-8.117h1.59l.033 1.264c.426-.871 1.464-1.439 2.486-1.439 2.702 0 3.48 2.226 3.48 4.393 0 2.929-1.314 4.62-3.732 4.62-.98 0-1.682-.268-2.192-.696v3.992H43.71V20.591Zm5.808 4.251c0-2.093-.786-3.02-2.042-3.02-1.348 0-2.1 1.34-2.1 3.221v2.227c.5.501 1.087.81 1.848.81 1.942 0 2.292-1.722 2.292-3.238h.002Zm3.599 1.967c0-1.315.611-2.15 1.783-2.62.845-.334 1.891-.41 3.364-.41v-.468c0-1.28-.728-1.624-2.025-1.624-.937 0-1.707.217-2.435.476v-1.355c1.146-.31 1.64-.393 2.76-.393 2.31 0 3.34.87 3.34 2.878v5.967h-1.574l-.033-.736c-.46.46-1.489.904-2.501.904-1.456 0-2.678-.72-2.678-2.62h-.001Zm5.145.536v-2.352h-.619c-1.932 0-2.861.443-2.861 1.748 0 .887.519 1.406 1.473 1.406 1.038 0 1.765-.536 2.008-.804v.002Zm4.403-6.753h1.59l.032 1.64c.577-1.221 1.632-1.715 2.451-1.69.285 0 .502.017.653.05v1.574a2.67 2.67 0 0 0-.595-.05c-1.665 0-2.468 1.372-2.468 2.45v4.695h-1.665v-8.669h.002Zm6.36-3.924h1.664v7.28l3.239-3.356h2l-3.65 3.748c1.44 1.265 2.904 3.18 4.043 4.92h-2.083a36.49 36.49 0 0 0-1.18-1.582 25.085 25.085 0 0 0-1.254-1.506c-.401-.451-.77-.846-1.113-1.18v4.268h-1.665V16.667l-.002.001Zm8.1 10.142c0-1.314.61-2.15 1.782-2.619.846-.335 1.891-.41 3.364-.41v-.469c0-1.28-.727-1.624-2.025-1.624-.937 0-1.707.217-2.435.477v-1.356c1.146-.31 1.64-.393 2.76-.393 2.31 0 3.34.871 3.34 2.879v5.966h-1.574l-.033-.735c-.46.46-1.488.904-2.5.904-1.457 0-2.678-.72-2.678-2.62h-.002Zm5.145.537v-2.353h-.62c-1.932 0-2.861.444-2.861 1.749 0 .887.519 1.405 1.473 1.405 1.038 0 1.766-.536 2.008-.803v.002ZM86 28.834l.444-1.254c.803.327 1.548.519 2.536.519 1.548 0 1.924-.57 1.924-1.189 0-.62-.519-.945-1.222-1.163-1.866-.587-3.422-.98-3.422-2.796 0-1.64 1.28-2.536 3.204-2.536 1.138 0 1.95.151 2.586.343v1.373a7.637 7.637 0 0 0-2.486-.394c-1.146 0-1.682.351-1.682 1.08 0 .73.796.97 2.093 1.373 1.992.61 2.627 1.315 2.627 2.62 0 1.773-1.398 2.619-3.514 2.619-1.556 0-2.627-.378-3.088-.595Zm8.108 0 .443-1.254c.804.327 1.549.519 2.536.519 1.549 0 1.925-.57 1.925-1.189 0-.62-.52-.945-1.222-1.163-1.866-.587-3.423-.98-3.423-2.796 0-1.64 1.28-2.536 3.205-2.536 1.138 0 1.949.151 2.586.343v1.373a7.64 7.64 0 0 0-2.486-.394c-1.146 0-1.682.351-1.682 1.08 0 .73.795.97 2.093 1.373 1.991.61 2.627 1.315 2.627 2.62 0 1.773-1.398 2.619-3.514 2.619-1.557 0-2.627-.378-3.088-.595Zm8.45-3.89c0-2.711 1.356-4.562 3.841-4.562 2.31 0 3.489 1.439 3.489 4.042 0 .386-.008.72-.033 1.013h-5.531c.134 1.748.954 2.71 2.619 2.71a7.75 7.75 0 0 0 2.076-.276l.327 1.271c-.728.227-1.532.328-2.645.328-2.636 0-4.143-1.758-4.143-4.527Zm5.582-.704v-.393c0-1.43-.552-2.242-1.783-2.242-1.297 0-1.967.97-2.068 2.635h3.851Z"/></g><defs><clipPath id="a"><path fill="#fff" d="M0 0h110v37.5H0z"/></clipPath></defs></svg>