<svg xmlns="http://www.w3.org/2000/svg" width="32" height="33" fill="none"><path fill="#683BFF" d="M14.41 4.263c.579-1.429 2.601-1.429 3.18 0l2.166 5.357a1.714 1.714 0 0 0 1.469 1.067l5.763.405c1.538.108 2.163 2.032.983 3.023l-4.425 3.715a1.714 1.714 0 0 0-.561 1.727l1.395 5.607c.373 1.496-1.264 2.685-2.571 1.868l-4.901-3.06a1.714 1.714 0 0 0-1.816 0l-4.901 3.06c-1.307.817-2.944-.372-2.571-1.868l1.396-5.607a1.714 1.714 0 0 0-.562-1.727L4.03 14.115c-1.18-.991-.555-2.915.983-3.023l5.763-.405a1.714 1.714 0 0 0 1.47-1.067l2.166-5.357Z"/></svg>