<svg xmlns="http://www.w3.org/2000/svg" width="81" height="24" fill="none"><path fill="#130738" d="M9.136 6.342a5.9 5.9 0 0 1 .884-.286 4.438 4.438 0 0 1 1.248-.182c.728 0 1.335.113 1.82.338.485.208.78.52.884.936.19.711.364 1.378.52 2.002.173.607.338 1.197.494 1.768.156.555.303 1.11.442 1.665.156.554.303 1.135.442 1.742H16c.156-1.058.295-2.063.416-3.016.121-.971.234-1.916.338-2.835.104-.936.208-1.854.312-2.756.104-.918.208-1.846.312-2.782a4.096 4.096 0 0 1 2.054-.546c.641 0 1.196.14 1.664.416.468.278.702.746.702 1.404 0 .382-.043.928-.13 1.638-.07.694-.173 1.474-.312 2.34a75.858 75.858 0 0 1-.988 5.46 35.63 35.63 0 0 1-.598 2.367c-.19.693-.373 1.23-.546 1.611-.26.243-.685.442-1.274.598a7.082 7.082 0 0 1-1.82.235c-.815 0-1.508-.104-2.08-.313-.555-.225-.893-.537-1.014-.936a54.648 54.648 0 0 1-.728-2.47c-.26-.953-.537-2.002-.832-3.146a134.437 134.437 0 0 1-.754 3.303 82.977 82.977 0 0 1-.702 2.73c-.26.242-.65.442-1.17.598a5.954 5.954 0 0 1-1.716.233c-.78 0-1.49-.103-2.132-.311-.624-.226-1.031-.538-1.222-.936-.156-.313-.33-.772-.52-1.378a70.288 70.288 0 0 1-.546-2.107c-.19-.797-.39-1.655-.598-2.574-.19-.918-.373-1.837-.546-2.756-.156-.918-.303-1.81-.442-2.678A40.505 40.505 0 0 1 .816 3.3c.243-.225.58-.433 1.014-.624.433-.19.901-.286 1.404-.286.659 0 1.196.148 1.612.442.433.278.702.754.806 1.43.277 1.768.503 3.242.676 4.42.19 1.18.338 2.15.442 2.912.121.746.208 1.327.26 1.742.052.416.104.746.156.989h.13c.156-.694.303-1.335.442-1.925l.416-1.768c.156-.606.312-1.248.468-1.924.156-.693.32-1.482.494-2.366Zm20.235 9.1c.295 0 .616-.026.962-.078.364-.069.633-.155.806-.26v-2.08l-1.872.157c-.485.034-.884.138-1.196.312-.312.173-.468.433-.468.78 0 .346.13.632.39.857.278.208.737.313 1.378.313Zm-.208-10.218c.936 0 1.786.096 2.548.286.78.191 1.439.486 1.976.884.555.382.98.876 1.274 1.482.295.59.442 1.292.442 2.106v5.825c0 .45-.13.823-.39 1.117-.242.278-.537.52-.884.729-1.126.675-2.712 1.014-4.758 1.014-.918 0-1.75-.087-2.496-.26-.728-.174-1.36-.434-1.898-.78a3.731 3.731 0 0 1-1.222-1.326c-.277-.538-.416-1.162-.416-1.872 0-1.197.356-2.115 1.066-2.757.711-.64 1.812-1.04 3.302-1.196l3.406-.364V9.93c0-.502-.225-.858-.676-1.066-.433-.225-1.066-.338-1.898-.338-.658 0-1.3.07-1.924.208-.624.14-1.187.312-1.69.52-.225-.156-.416-.39-.572-.702a2.344 2.344 0 0 1-.234-1.014c0-.45.104-.806.312-1.066.226-.277.564-.51 1.014-.702a7.8 7.8 0 0 1 1.768-.416 15.77 15.77 0 0 1 1.95-.13Zm13.44 13c-.19.035-.476.078-.857.13a5.91 5.91 0 0 1-1.118.105c-.381 0-.728-.026-1.04-.078a1.74 1.74 0 0 1-.754-.313 1.617 1.617 0 0 1-.494-.623c-.104-.278-.156-.633-.156-1.067V1.298c.19-.034.468-.078.832-.13a6.414 6.414 0 0 1 1.144-.104c.381 0 .72.026 1.014.078.312.052.572.156.78.312.208.156.364.373.468.65.121.26.182.607.182 1.04v15.08Zm7.288 0c-.19.035-.477.078-.858.13a5.91 5.91 0 0 1-1.118.105c-.381 0-.728-.026-1.04-.078a1.74 1.74 0 0 1-.754-.313 1.617 1.617 0 0 1-.494-.623c-.104-.278-.156-.633-.156-1.067V1.298c.19-.034.468-.078.832-.13a6.414 6.414 0 0 1 1.144-.104c.381 0 .72.026 1.014.078.312.052.572.156.78.312.208.156.364.373.468.65.121.26.182.607.182 1.04v15.08Zm9.471.442a9.508 9.508 0 0 1-2.86-.416 6.777 6.777 0 0 1-2.288-1.3c-.641-.572-1.152-1.29-1.534-2.157-.364-.867-.546-1.881-.546-3.042 0-1.144.182-2.124.546-2.939.382-.832.876-1.508 1.482-2.028a5.618 5.618 0 0 1 2.08-1.17 7.52 7.52 0 0 1 2.392-.39c.919 0 1.75.14 2.496.416.763.278 1.413.66 1.95 1.144a4.87 4.87 0 0 1 1.274 1.742 5.21 5.21 0 0 1 .468 2.21c0 .59-.165 1.04-.494 1.352-.33.313-.789.512-1.378.599l-6.422.962c.19.572.58 1.005 1.17 1.3.59.277 1.266.415 2.028.415.71 0 1.378-.086 2.002-.26.642-.19 1.161-.407 1.56-.65.278.174.512.416.702.728.19.313.286.642.286.989 0 .78-.364 1.36-1.092 1.742a5.787 5.787 0 0 1-1.872.598 13.17 13.17 0 0 1-1.95.155Zm-.728-10.218c-.416 0-.78.07-1.092.208a2.12 2.12 0 0 0-.728.546c-.19.208-.338.451-.442.728-.087.26-.139.53-.156.806l4.446-.728c-.052-.346-.242-.693-.572-1.04-.33-.346-.815-.52-1.456-.52Zm10.19 6.579a91.02 91.02 0 0 1-.624-1.457 60.953 60.953 0 0 1-.676-1.845 88.825 88.825 0 0 1-.728-2.367c-.243-.9-.503-1.932-.78-3.094.243-.242.563-.45.962-.624.416-.19.867-.286 1.352-.286.607 0 1.11.13 1.508.39.399.243.693.711.884 1.404l2.054 7.15h.104c.208-.589.407-1.23.598-1.924a62.79 62.79 0 0 0 .598-2.132c.19-.745.364-1.482.52-2.21.173-.745.32-1.473.442-2.184a4.332 4.332 0 0 1 2.054-.494c.607 0 1.11.13 1.508.39.399.26.598.711.598 1.352a8.73 8.73 0 0 1-.182 1.638 21.472 21.472 0 0 1-.494 1.95 25.9 25.9 0 0 1-.702 2.159A46.2 46.2 0 0 1 76.988 15a37.26 37.26 0 0 1-.91 2.028 28.998 28.998 0 0 1-.91 1.69c-.485.849-.936 1.542-1.352 2.08-.416.537-.815.953-1.196 1.248-.381.311-.763.52-1.144.623-.381.122-.78.182-1.196.182-.728 0-1.317-.216-1.768-.65-.45-.433-.72-.996-.806-1.69.555-.433 1.11-.918 1.664-1.456a16.313 16.313 0 0 0 1.508-1.611c-.295-.087-.615-.287-.962-.599-.33-.329-.693-.935-1.092-1.82Z"/></svg>