<svg xmlns="http://www.w3.org/2000/svg" width="84" height="14" fill="none"><g clip-path="url(#a)"><mask id="b" width="83" height="12" x=".583" y="0" fill="#000" maskUnits="userSpaceOnUse"><path fill="#fff" d="M.583 0h83v12h-83z"/><path d="M5.81 3.989H4.4V3.67c0-.323-.079-.6-.235-.83-.148-.24-.401-.36-.761-.36a.887.887 0 0 0-.47.111.927.927 0 0 0-.29.277c-.074.12-.125.258-.153.415a2.55 2.55 0 0 0-.041.47 7 7 0 0 0 .014.484c.018.129.055.244.11.346a.795.795 0 0 0 .235.262c.111.074.259.148.443.222l1.079.428c.313.12.567.263.76.429.194.157.346.341.456.553.102.221.171.475.208.76.037.277.055.595.055.955 0 .415-.041.802-.124 1.161-.083.35-.217.65-.401.9a1.99 1.99 0 0 1-.76.608c-.314.147-.697.221-1.149.221-.34 0-.659-.06-.954-.18a2.27 2.27 0 0 1-.76-.498 2.558 2.558 0 0 1-.512-.733 2.371 2.371 0 0 1-.18-.926V8.22h1.41v.443c0 .258.074.493.222.705.157.203.415.304.774.304.24 0 .424-.032.554-.096a.78.78 0 0 0 .318-.305c.073-.129.115-.28.124-.456.018-.184.028-.387.028-.608 0-.259-.01-.47-.028-.636a1.095 1.095 0 0 0-.11-.402.758.758 0 0 0-.263-.248 2.868 2.868 0 0 0-.415-.208l-1.01-.415c-.608-.249-1.018-.576-1.23-.982-.203-.414-.305-.93-.305-1.548 0-.37.051-.72.152-1.051a2.39 2.39 0 0 1 .457-.858c.193-.24.438-.428.733-.567.304-.147.663-.22 1.078-.22.35 0 .669.064.955.193.295.129.548.3.76.511.424.443.636.95.636 1.521v.692ZM7.321 11V1.154h1.41V11h-1.41Zm3.14 0V1.154h1.356l2.13 5.933h.027V1.154h1.41V11h-1.327L11.9 5.081h-.028V11h-1.41Zm6.56 0V1.154h1.355l2.13 5.933h.027V1.154h1.41V11h-1.327L18.46 5.081h-.028V11h-1.41Zm6.615 0V1.154h4.203v1.328h-2.793v2.89h2.434v1.327h-2.434v2.89h2.793V11h-4.203Zm6.943-8.518v3.07h.802c.25 0 .447-.033.595-.097a.855.855 0 0 0 .346-.304c.073-.13.124-.286.152-.47a4.73 4.73 0 0 0 .041-.664c0-.25-.014-.466-.041-.65a1.32 1.32 0 0 0-.166-.498c-.175-.258-.507-.387-.996-.387h-.733ZM29.17 11V1.154h2.267c1.66 0 2.49.963 2.49 2.89 0 .581-.093 1.074-.277 1.48-.175.406-.489.733-.94.982L34.229 11h-1.493l-1.313-4.204h-.844V11h-1.41Zm10.866-7.011h-1.41V3.67c0-.323-.079-.6-.236-.83-.147-.24-.4-.36-.76-.36a.887.887 0 0 0-.47.111.926.926 0 0 0-.29.277 1.17 1.17 0 0 0-.153.415 2.546 2.546 0 0 0-.041.47c0 .193.004.355.013.484.019.129.056.244.111.346a.794.794 0 0 0 .235.262c.11.074.258.148.443.222l1.078.428c.314.12.567.263.76.429.194.157.346.341.457.553.102.221.17.475.208.76.036.277.055.595.055.955 0 .415-.042.802-.125 1.161-.083.35-.216.65-.4.9-.194.257-.448.46-.761.608-.314.147-.696.221-1.148.221-.341 0-.66-.06-.954-.18a2.269 2.269 0 0 1-.76-.498 2.557 2.557 0 0 1-.512-.733 2.372 2.372 0 0 1-.18-.926V8.22h1.41v.443c0 .258.074.493.222.705.156.203.415.304.774.304.24 0 .424-.032.553-.096a.78.78 0 0 0 .318-.305c.074-.129.115-.28.125-.456.018-.184.027-.387.027-.608 0-.259-.009-.47-.027-.636a1.094 1.094 0 0 0-.111-.402.757.757 0 0 0-.263-.248 2.866 2.866 0 0 0-.415-.208L36.8 6.298c-.608-.249-1.019-.576-1.23-.982-.204-.414-.305-.93-.305-1.548 0-.37.05-.72.152-1.051a2.39 2.39 0 0 1 .456-.858c.194-.24.438-.428.733-.567.305-.147.664-.22 1.079-.22.35 0 .668.064.954.193.295.129.549.3.76.511.425.443.637.95.637 1.521v.692Zm5.95 4.204V8.8c0 .304-.06.595-.18.871-.11.268-.267.508-.47.72a2.373 2.373 0 0 1-.72.511c-.267.12-.557.18-.87.18-.268 0-.54-.037-.816-.11a1.93 1.93 0 0 1-.747-.388 2.24 2.24 0 0 1-.553-.705c-.139-.295-.208-.669-.208-1.12v-5.42c0-.323.056-.622.166-.899a2.105 2.105 0 0 1 1.19-1.189 2.4 2.4 0 0 1 .94-.18c.663 0 1.203.217 1.618.65a2.2 2.2 0 0 1 .47.76c.12.286.18.6.18.94v.554h-1.41v-.47c0-.277-.08-.516-.236-.72a.762.762 0 0 0-.636-.303c-.35 0-.586.11-.705.331-.111.213-.166.484-.166.816v5.034c0 .286.06.525.18.72.129.193.354.29.677.29.092 0 .189-.014.29-.042a.979.979 0 0 0 .305-.166.844.844 0 0 0 .207-.304c.055-.13.083-.29.083-.484v-.484h1.41ZM47.55 11V1.154h1.41v4.218h1.743V1.154h1.41V11h-1.41V6.616h-1.742V11h-1.41Zm7.714-8.518v3.07h.802c.249 0 .447-.033.594-.097a.855.855 0 0 0 .346-.304c.074-.13.124-.286.152-.47.028-.194.042-.416.042-.664 0-.25-.014-.466-.042-.65a1.322 1.322 0 0 0-.166-.498c-.175-.258-.507-.387-.995-.387h-.733ZM53.854 11V1.154h2.267c1.66 0 2.49.963 2.49 2.89 0 .581-.093 1.074-.277 1.48-.176.406-.489.733-.94.982L58.913 11H57.42l-1.314-4.204h-.843V11h-1.41Zm9.15-3.443-.69-3.568h-.028l-.692 3.568h1.41ZM59.52 11l2.199-9.846h1.175L65.093 11h-1.41l-.416-2.116h-1.922L60.93 11h-1.41Zm6.682 0V1.154h2.088c.812 0 1.425.221 1.84.664.424.442.636 1.07.636 1.88v4.605c0 .922-.226 1.605-.678 2.047-.442.433-1.083.65-1.922.65h-1.964Zm1.41-8.518v7.19h.65c.397 0 .678-.096.844-.29.166-.203.25-.516.25-.94V3.699c0-.388-.08-.687-.236-.9-.157-.211-.443-.317-.857-.317h-.65ZM72.506 11V1.154h4.204v1.328h-2.794v2.89h2.434v1.327h-2.434v2.89h2.794V11h-4.204Zm6.944-8.518v3.07h.802c.248 0 .447-.033.594-.097a.855.855 0 0 0 .346-.304c.074-.13.124-.286.152-.47.028-.194.041-.416.041-.664a4.45 4.45 0 0 0-.04-.65 1.322 1.322 0 0 0-.167-.498c-.175-.258-.507-.387-.996-.387h-.733ZM78.037 11V1.154h2.268c1.66 0 2.49.963 2.49 2.89 0 .581-.093 1.074-.278 1.48-.175.406-.488.733-.94.982L83.1 11h-1.493l-1.314-4.204h-.844V11h-1.41Z"/></mask><path fill="#130738" d="M5.81 3.989H4.4V3.67c0-.323-.079-.6-.235-.83-.148-.24-.401-.36-.761-.36a.887.887 0 0 0-.47.111.927.927 0 0 0-.29.277c-.074.12-.125.258-.153.415a2.55 2.55 0 0 0-.041.47 7 7 0 0 0 .014.484c.018.129.055.244.11.346a.795.795 0 0 0 .235.262c.111.074.259.148.443.222l1.079.428c.313.12.567.263.76.429.194.157.346.341.456.553.102.221.171.475.208.76.037.277.055.595.055.955 0 .415-.041.802-.124 1.161-.083.35-.217.65-.401.9a1.99 1.99 0 0 1-.76.608c-.314.147-.697.221-1.149.221-.34 0-.659-.06-.954-.18a2.27 2.27 0 0 1-.76-.498 2.558 2.558 0 0 1-.512-.733 2.371 2.371 0 0 1-.18-.926V8.22h1.41v.443c0 .258.074.493.222.705.157.203.415.304.774.304.24 0 .424-.032.554-.096a.78.78 0 0 0 .318-.305c.073-.129.115-.28.124-.456.018-.184.028-.387.028-.608 0-.259-.01-.47-.028-.636a1.095 1.095 0 0 0-.11-.402.758.758 0 0 0-.263-.248 2.868 2.868 0 0 0-.415-.208l-1.01-.415c-.608-.249-1.018-.576-1.23-.982-.203-.414-.305-.93-.305-1.548 0-.37.051-.72.152-1.051a2.39 2.39 0 0 1 .457-.858c.193-.24.438-.428.733-.567.304-.147.663-.22 1.078-.22.35 0 .669.064.955.193.295.129.548.3.76.511.424.443.636.95.636 1.521v.692ZM7.321 11V1.154h1.41V11h-1.41Zm3.14 0V1.154h1.356l2.13 5.933h.027V1.154h1.41V11h-1.327L11.9 5.081h-.028V11h-1.41Zm6.56 0V1.154h1.355l2.13 5.933h.027V1.154h1.41V11h-1.327L18.46 5.081h-.028V11h-1.41Zm6.615 0V1.154h4.203v1.328h-2.793v2.89h2.434v1.327h-2.434v2.89h2.793V11h-4.203Zm6.943-8.518v3.07h.802c.25 0 .447-.033.595-.097a.855.855 0 0 0 .346-.304c.073-.13.124-.286.152-.47a4.73 4.73 0 0 0 .041-.664c0-.25-.014-.466-.041-.65a1.32 1.32 0 0 0-.166-.498c-.175-.258-.507-.387-.996-.387h-.733ZM29.17 11V1.154h2.267c1.66 0 2.49.963 2.49 2.89 0 .581-.093 1.074-.277 1.48-.175.406-.489.733-.94.982L34.229 11h-1.493l-1.313-4.204h-.844V11h-1.41Zm10.866-7.011h-1.41V3.67c0-.323-.079-.6-.236-.83-.147-.24-.4-.36-.76-.36a.887.887 0 0 0-.47.111.926.926 0 0 0-.29.277 1.17 1.17 0 0 0-.153.415 2.546 2.546 0 0 0-.041.47c0 .193.004.355.013.484.019.129.056.244.111.346a.794.794 0 0 0 .235.262c.11.074.258.148.443.222l1.078.428c.314.12.567.263.76.429.194.157.346.341.457.553.102.221.17.475.208.76.036.277.055.595.055.955 0 .415-.042.802-.125 1.161-.083.35-.216.65-.4.9-.194.257-.448.46-.761.608-.314.147-.696.221-1.148.221-.341 0-.66-.06-.954-.18a2.269 2.269 0 0 1-.76-.498 2.557 2.557 0 0 1-.512-.733 2.372 2.372 0 0 1-.18-.926V8.22h1.41v.443c0 .258.074.493.222.705.156.203.415.304.774.304.24 0 .424-.032.553-.096a.78.78 0 0 0 .318-.305c.074-.129.115-.28.125-.456.018-.184.027-.387.027-.608 0-.259-.009-.47-.027-.636a1.094 1.094 0 0 0-.111-.402.757.757 0 0 0-.263-.248 2.866 2.866 0 0 0-.415-.208L36.8 6.298c-.608-.249-1.019-.576-1.23-.982-.204-.414-.305-.93-.305-1.548 0-.37.05-.72.152-1.051a2.39 2.39 0 0 1 .456-.858c.194-.24.438-.428.733-.567.305-.147.664-.22 1.079-.22.35 0 .668.064.954.193.295.129.549.3.76.511.425.443.637.95.637 1.521v.692Zm5.95 4.204V8.8c0 .304-.06.595-.18.871-.11.268-.267.508-.47.72a2.373 2.373 0 0 1-.72.511c-.267.12-.557.18-.87.18-.268 0-.54-.037-.816-.11a1.93 1.93 0 0 1-.747-.388 2.24 2.24 0 0 1-.553-.705c-.139-.295-.208-.669-.208-1.12v-5.42c0-.323.056-.622.166-.899a2.105 2.105 0 0 1 1.19-1.189 2.4 2.4 0 0 1 .94-.18c.663 0 1.203.217 1.618.65a2.2 2.2 0 0 1 .47.76c.12.286.18.6.18.94v.554h-1.41v-.47c0-.277-.08-.516-.236-.72a.762.762 0 0 0-.636-.303c-.35 0-.586.11-.705.331-.111.213-.166.484-.166.816v5.034c0 .286.06.525.18.72.129.193.354.29.677.29.092 0 .189-.014.29-.042a.979.979 0 0 0 .305-.166.844.844 0 0 0 .207-.304c.055-.13.083-.29.083-.484v-.484h1.41ZM47.55 11V1.154h1.41v4.218h1.743V1.154h1.41V11h-1.41V6.616h-1.742V11h-1.41Zm7.714-8.518v3.07h.802c.249 0 .447-.033.594-.097a.855.855 0 0 0 .346-.304c.074-.13.124-.286.152-.47.028-.194.042-.416.042-.664 0-.25-.014-.466-.042-.65a1.322 1.322 0 0 0-.166-.498c-.175-.258-.507-.387-.995-.387h-.733ZM53.854 11V1.154h2.267c1.66 0 2.49.963 2.49 2.89 0 .581-.093 1.074-.277 1.48-.176.406-.489.733-.94.982L58.913 11H57.42l-1.314-4.204h-.843V11h-1.41Zm9.15-3.443-.69-3.568h-.028l-.692 3.568h1.41ZM59.52 11l2.199-9.846h1.175L65.093 11h-1.41l-.416-2.116h-1.922L60.93 11h-1.41Zm6.682 0V1.154h2.088c.812 0 1.425.221 1.84.664.424.442.636 1.07.636 1.88v4.605c0 .922-.226 1.605-.678 2.047-.442.433-1.083.65-1.922.65h-1.964Zm1.41-8.518v7.19h.65c.397 0 .678-.096.844-.29.166-.203.25-.516.25-.94V3.699c0-.388-.08-.687-.236-.9-.157-.211-.443-.317-.857-.317h-.65ZM72.506 11V1.154h4.204v1.328h-2.794v2.89h2.434v1.327h-2.434v2.89h2.794V11h-4.204Zm6.944-8.518v3.07h.802c.248 0 .447-.033.594-.097a.855.855 0 0 0 .346-.304c.074-.13.124-.286.152-.47.028-.194.041-.416.041-.664a4.45 4.45 0 0 0-.04-.65 1.322 1.322 0 0 0-.167-.498c-.175-.258-.507-.387-.996-.387h-.733ZM78.037 11V1.154h2.268c1.66 0 2.49.963 2.49 2.89 0 .581-.093 1.074-.278 1.48-.175.406-.488.733-.94.982L83.1 11h-1.493l-1.314-4.204h-.844V11h-1.41Z"/><path fill="#000" d="M5.81 3.989v.115h.115V3.99H5.81Zm-1.41 0h-.116v.115H4.4V3.99ZM4.165 2.84l-.099.06.003.005.096-.065Zm-1.231-.249-.06-.098.06.098Zm-.29.277-.096-.064-.003.003.098.06Zm-.153.415.114.02-.114-.02Zm-.027.954-.116.008.002.008.114-.016Zm.11.346.101-.056-.1.056Zm.235.262-.067.094.003.002.064-.096Zm.443.222-.043.107.043-.107Zm1.079.428-.043.107h.001l.042-.107Zm.76.429-.075.087.003.002.072-.09Zm.456.553.105-.048-.002-.005-.103.053Zm.208.76-.114.015.114-.014Zm-.07 2.116.113.027-.112-.027Zm-.4.9.092.068-.092-.069Zm-.76.608.048.104-.049-.104Zm-2.103.041-.043.107.043-.107Zm-.76-.498-.082.082.082-.082Zm-.512-.733-.106.045.002.004.104-.049ZM.97 8.22v-.115H.855v.115H.97Zm1.41 0h.116v-.115h-.115v.115Zm.222 1.148-.095.066.004.005.091-.07Zm1.328.208.051.103.003-.002-.054-.101Zm.318-.305.1.058-.1-.058Zm.124-.456-.115-.011v.005l.115.006Zm0-1.244.115-.013-.115.013Zm-.11-.402.1-.055-.003-.006-.098.061Zm-.263-.248-.062.097.004.002.058-.1Zm-.415-.208.045-.106h-.001l-.044.106Zm-1.01-.415.044-.106-.044.106Zm-1.23-.982-.104.051.001.003.103-.054Zm-.153-2.6.11.034-.11-.033Zm.457-.857.088.075.001-.002-.09-.073Zm.733-.567.049.105.001-.001-.05-.104Zm2.033-.027-.048.105h.001l.047-.105Zm.76.511.083-.08-.001-.001-.082.081ZM5.81 3.99v-.115H4.4v.23h1.41V3.99Zm-1.41 0h.115v-.32h-.231v.318H4.4Zm0-.318h.115c0-.342-.083-.642-.255-.895l-.095.065-.096.065c.142.208.215.462.215.765H4.4Zm-.235-.83.098-.06c-.175-.284-.472-.415-.859-.415v.231c.332 0 .542.108.662.305l.099-.06Zm-.761-.36v-.115a1 1 0 0 0-.53.128l.06.098.06.098a.775.775 0 0 1 .41-.093v-.115Zm-.47.111-.06-.098a1.042 1.042 0 0 0-.326.31l.095.065.096.064a.812.812 0 0 1 .255-.243l-.06-.098Zm-.29.277-.099-.06a1.287 1.287 0 0 0-.167.455l.113.02.114.02c.025-.145.071-.269.137-.375l-.099-.06Zm-.153.415-.113-.022a2.69 2.69 0 0 0-.043.492h.23c0-.16.013-.31.04-.45l-.114-.02Zm-.041.47h-.115c0 .195.004.36.014.492l.115-.008.115-.008a6.884 6.884 0 0 1-.014-.476H2.45Zm.014.484-.114.016c.02.141.06.27.123.385l.101-.055.101-.056a.9.9 0 0 1-.097-.306l-.114.016Zm.11.346-.1.055a.91.91 0 0 0 .268.3l.067-.093.068-.093a.68.68 0 0 1-.202-.225l-.1.056Zm.235.262-.064.096c.12.08.276.157.464.233l.043-.107.043-.107a2.344 2.344 0 0 1-.422-.21l-.064.095Zm.443.222-.043.107 1.079.428.043-.107.042-.107-1.079-.429-.042.108Zm1.079.428-.042.108c.305.116.546.253.727.408l.075-.087.075-.088a2.686 2.686 0 0 0-.794-.448l-.041.107Zm.76.429-.072.09c.181.147.323.319.426.516l.102-.053.103-.053a1.861 1.861 0 0 0-.486-.59l-.073.09Zm.456.553-.104.048c.095.21.162.451.198.727l.114-.014.114-.015a2.739 2.739 0 0 0-.217-.794l-.105.048Zm.208.76-.114.016c.036.27.054.583.054.939h.23c0-.363-.018-.687-.056-.97l-.114.016Zm.055.955h-.115c0 .407-.04.785-.122 1.135l.113.026.112.026c.085-.369.127-.765.127-1.187H5.81Zm-.124 1.161-.112-.026c-.08.337-.208.622-.382.857l.093.068.092.069a2.53 2.53 0 0 0 .42-.941l-.111-.027Zm-.401.9-.092-.07c-.182.242-.42.433-.718.573l.05.105.048.104c.33-.155.598-.37.804-.644l-.092-.069Zm-.76.608-.05-.105c-.294.139-.659.21-1.099.21v.231c.464 0 .865-.075 1.197-.232l-.049-.104Zm-1.149.221v-.115a2.39 2.39 0 0 1-.91-.172l-.044.107-.043.107c.31.126.642.188.997.188v-.115Zm-.954-.18.044-.107a2.154 2.154 0 0 1-.723-.472l-.081.081-.082.082c.224.223.49.398.799.523l.043-.107Zm-.76-.498.081-.081a2.442 2.442 0 0 1-.489-.7l-.104.048-.104.05c.134.288.312.543.534.765l.082-.082Zm-.512-.733.106-.044a2.256 2.256 0 0 1-.17-.882H.854c0 .346.063.67.189.971l.106-.045Zm-.18-.926h.115V8.22h-.23v.526H.97Zm0-.526v.116h1.41v-.231H.97v.115Zm1.41 0h-.115v.443h.231V8.22h-.115Zm0 .443h-.115c0 .282.081.54.242.771l.095-.066.095-.066a1.092 1.092 0 0 1-.201-.639h-.115Zm.222.705-.091.07c.186.242.485.35.865.35v-.231c-.339 0-.556-.095-.683-.26l-.091.071Zm.774.304v.116c.248 0 .453-.033.605-.11l-.051-.102-.052-.103c-.106.052-.27.084-.502.084v.115Zm.554-.096.054.101a.894.894 0 0 0 .364-.348l-.1-.058-.1-.057a.664.664 0 0 1-.273.26l.055.102Zm.318-.305.1.058a1.13 1.13 0 0 0 .14-.508l-.116-.006-.115-.006a.9.9 0 0 1-.11.405l.1.057Zm.124-.456.115.012c.019-.19.028-.396.028-.62h-.231c0 .218-.009.417-.027.597l.115.011Zm.028-.608h.115c0-.26-.01-.477-.028-.65l-.115.014-.114.012c.017.16.026.368.026.624H4.4Zm-.028-.636.115-.013a1.207 1.207 0 0 0-.124-.444l-.102.055-.1.056c.045.083.079.201.097.358l.114-.012Zm-.11-.402.097-.061a.873.873 0 0 0-.302-.287l-.058.1-.058.1c.095.055.17.125.223.21l.097-.062Zm-.263-.248.062-.098a2.975 2.975 0 0 0-.432-.216l-.045.106-.045.106c.172.073.304.14.398.199l.062-.097Zm-.415-.208.044-.106-1.01-.415-.044.106-.043.107 1.009.415.044-.107Zm-1.01-.415.044-.106c-.594-.243-.977-.556-1.172-.929l-.102.053-.103.054c.23.438.667.78 1.29 1.035l.043-.107Zm-1.23-.982.103-.05c-.193-.395-.292-.893-.292-1.498H.924c0 .63.103 1.164.316 1.6l.104-.052Zm-.305-1.548h.116c0-.358.049-.697.147-1.018l-.11-.033-.11-.034a3.692 3.692 0 0 0-.158 1.085h.115Zm.152-1.051.11.033a2.28 2.28 0 0 1 .435-.816l-.088-.075-.088-.074a2.505 2.505 0 0 0-.479.898l.11.034Zm.457-.858.09.073c.181-.226.412-.404.692-.535l-.05-.105-.048-.104a2.15 2.15 0 0 0-.774.599l.09.072Zm.733-.567.05.104c.285-.138.627-.21 1.028-.21v-.23c-.428 0-.805.076-1.129.233l.05.103Zm1.078-.22v.114c.336 0 .638.062.907.184l.048-.105.047-.105A2.407 2.407 0 0 0 3.459.956v.115Zm.955.193-.047.105c.283.124.524.287.726.488l.081-.082.082-.081a2.568 2.568 0 0 0-.796-.536l-.046.106Zm.76.511-.083.08c.405.423.604.902.604 1.441h.23c0-.603-.225-1.138-.668-1.6l-.083.08Zm.636 1.521h-.115v.692h.23v-.692H5.81ZM7.321 11h-.115v.115h.115V11Zm0-9.846V1.04h-.115v.115h.115Zm1.41 0h.116V1.04H8.73v.115Zm0 9.846v.115h.116V11H8.73Zm-1.41 0h.115V1.154h-.23V11h.115Zm0-9.846v.115h1.41v-.23h-1.41v.115Zm1.41 0h-.115V11h.231V1.154H8.73Zm0 9.846v-.115h-1.41v.23h1.41V11Zm1.73 0h-.115v.115h.115V11Zm0-9.846V1.04h-.115v.115h.115Zm1.356 0 .108-.039-.027-.076h-.081v.115Zm2.13 5.933-.11.038.028.077h.081v-.115Zm.027 0v.115h.115v-.115h-.115Zm0-5.933V1.04h-.115v.115h.115Zm1.41 0h.116V1.04h-.116v.115Zm0 9.846v.115h.116V11h-.116Zm-1.327 0-.108.04.027.075h.08V11ZM11.9 5.081l.108-.04-.028-.075h-.08v.115Zm-.028 0v-.115h-.115v.115h.115Zm0 5.919v.115h.115V11h-.115Zm-1.41 0h.115V1.154h-.231V11h.115Zm0-9.846v.115h1.355v-.23H10.46v.115Zm1.355 0-.109.039 2.13 5.932.108-.038.109-.04-2.13-5.932-.108.04Zm2.13 5.933v.115h.027V6.97h-.028v.116Zm.027 0h.115V1.154h-.23v5.933h.115Zm0-5.933v.115h1.41v-.23h-1.41v.115Zm1.41 0h-.115V11h.231V1.154h-.116Zm0 9.846v-.115h-1.327v.23h1.327V11Zm-1.327 0 .108-.04-2.157-5.918-.108.04-.109.039 2.158 5.918.108-.039ZM11.9 5.081v-.115h-.028v.231h.028V5.08Zm-.028 0h-.115V11h.23V5.081h-.115Zm0 5.919v-.115h-1.41v.23h1.41V11Zm5.149 0h-.115v.115h.115V11Zm0-9.846V1.04h-.115v.115h.115Zm1.355 0 .108-.039-.027-.076h-.08v.115Zm2.13 5.933-.109.038.028.077h.08v-.115Zm.027 0v.115h.116v-.115h-.116Zm0-5.933V1.04h-.115v.115h.115Zm1.41 0h.116V1.04h-.115v.115Zm0 9.846v.115h.116V11h-.115Zm-1.327 0-.108.04.028.075h.08V11ZM18.46 5.081l.108-.04-.027-.075h-.081v.115Zm-.028 0v-.115h-.115v.115h.115Zm0 5.919v.115h.116V11h-.116Zm-1.41 0h.115V1.154h-.23V11h.115Zm0-9.846v.115h1.355v-.23h-1.355v.115Zm1.355 0-.108.039 2.13 5.932.108-.038.108-.04-2.13-5.932-.108.04Zm2.13 5.933v.115h.027V6.97h-.027v.116Zm.027 0h.116V1.154h-.231v5.933h.115Zm0-5.933v.115h1.41v-.23h-1.41v.115Zm1.41 0h-.114V11h.23V1.154h-.115Zm0 9.846v-.115h-1.327v.23h1.328V11Zm-1.327 0 .109-.04-2.158-5.918-.108.04-.108.039 2.157 5.918.108-.039ZM18.46 5.081v-.115h-.028v.231h.028V5.08Zm-.028 0h-.115V11h.231V5.081h-.116Zm0 5.919v-.115h-1.41v.23h1.41V11Zm5.205 0h-.116v.115h.116V11Zm0-9.846V1.04h-.116v.115h.116Zm4.203 0h.116V1.04h-.116v.115Zm0 1.328v.115h.116v-.115h-.116Zm-2.793 0v-.116h-.115v.116h.115Zm0 2.89h-.115v.115h.115v-.115Zm2.434 0h.115v-.115h-.115v.115Zm0 1.327v.116h.115v-.116h-.115Zm-2.434 0v-.115h-.115V6.7h.115Zm0 2.89h-.115v.116h.115v-.116Zm2.793 0h.116v-.115h-.116v.115Zm0 1.411v.115h.116V11h-.116Zm-4.203 0h.115V1.154h-.231V11h.116Zm0-9.846v.115h4.203v-.23h-4.203v.115Zm4.203 0h-.115v1.328h.231V1.154h-.116Zm0 1.328v-.116h-2.793v.231h2.793v-.115Zm-2.793 0h-.115v2.89h.23v-2.89h-.115Zm0 2.89v.115h2.434v-.23h-2.434v.115Zm2.434 0h-.115v1.327h.23V5.372h-.115Zm0 1.327v-.115h-2.434v.231h2.434v-.116Zm-2.434 0h-.115v2.89h.23V6.7h-.115Zm0 2.89v.116h2.793v-.231h-2.793v.115Zm2.793 0h-.115V11h.231V9.59h-.116Zm0 1.411v-.115h-4.203v.23h4.203V11Zm2.74-8.518v-.116h-.115v.116h.115Zm0 3.07h-.115v.115h.115v-.115Zm1.397-.097.046.105.005-.002-.051-.103Zm.346-.304.097.062.003-.005-.1-.057Zm.152-.47.114.016-.114-.017Zm0-1.314-.114.016.114-.016Zm-.166-.498.099-.06-.004-.005-.095.065ZM29.168 11h-.115v.115h.116V11Zm0-9.846V1.04h-.115v.115h.116Zm4.481 4.37-.105-.048v.002l.105.046Zm-.94.982-.056-.101-.084.046.03.092.11-.037ZM34.229 11v.115h.162l-.052-.152-.11.037Zm-1.493 0-.11.034.026.081h.084V11Zm-1.313-4.204.11-.034-.026-.081h-.084v.115Zm-.844 0v-.115h-.115v.115h.115Zm0 4.204v.115h.115V11h-.115Zm0-8.518h-.115v3.07h.23v-3.07h-.115Zm0 3.07v.115h.802v-.231h-.802v.116Zm.802 0v.115c.257 0 .473-.033.641-.107l-.046-.105-.046-.106c-.128.056-.308.087-.549.087v.116Zm.595-.097.051.103a.97.97 0 0 0 .392-.345l-.097-.062-.097-.063a.74.74 0 0 1-.3.264l.05.103Zm.346-.304.1.057c.082-.144.136-.316.166-.51l-.114-.018-.114-.017a1.231 1.231 0 0 1-.139.43l.1.058Zm.152-.47.114.016c.028-.2.042-.427.042-.68h-.23c0 .244-.014.46-.04.647l.114.016Zm.041-.664h.115a4.66 4.66 0 0 0-.042-.667l-.114.017-.114.017c.026.177.04.388.04.633h.115Zm-.041-.65.114-.017a1.436 1.436 0 0 0-.181-.54l-.1.059-.098.06c.073.122.125.272.15.454l.115-.016Zm-.166-.498.095-.065c-.207-.305-.587-.438-1.091-.438v.231c.473 0 .757.125.9.337l.096-.065Zm-.996-.387v-.116h-.733v.231h.733v-.115ZM29.169 11h.115V1.154h-.231V11h.116Zm0-9.846v.115h2.267v-.23H29.17v.115Zm2.267 0v.115c.808 0 1.393.234 1.78.683.39.452.594 1.143.594 2.092h.231c0-.977-.21-1.732-.65-2.243-.443-.514-1.102-.762-1.954-.762v.115Zm2.49 2.89h-.116c0 .57-.09 1.045-.266 1.432l.105.048.105.048c.193-.425.287-.935.287-1.528h-.115Zm-.277 1.48-.106-.046c-.163.379-.457.688-.89.927l.056.1.055.102c.47-.26.804-.605.99-1.037l-.105-.046Zm-.94.982-.11.037 1.522 4.494.109-.037.109-.037-1.521-4.494-.11.037ZM34.229 11v-.115h-1.493v.23h1.494V11Zm-1.493 0 .11-.034-1.313-4.204-.11.034-.11.034 1.313 4.204.11-.034Zm-1.313-4.204v-.115h-.844v.23h.844v-.115Zm-.844 0h-.115V11h.23V6.796h-.115Zm0 4.204v-.115h-1.41v.23h1.41V11Zm9.456-7.011v.115h.115V3.99h-.115Zm-1.41 0h-.116v.115h.115V3.99Zm-.236-1.148-.098.06.003.005.095-.065Zm-1.23-.249-.06-.098.06.098Zm-.29.277-.097-.064-.002.003.098.06Zm-.153.415.113.02-.113-.02Zm-.028.954-.115.008.001.008.114-.016Zm.111.346.101-.056-.101.056Zm.235.262-.068.094.004.002.064-.096Zm.443.222-.043.107.043-.107Zm1.078.428-.042.107h.001l.041-.107Zm.76.429-.074.087.002.002.073-.09Zm.457.553.105-.048-.003-.005-.102.053Zm.208.76-.115.015.114-.014Zm-.07 2.116.113.027-.113-.027Zm-.4.9.092.068-.093-.069Zm-.761.608.049.104-.05-.104Zm-2.102.041-.044.107.044-.107Zm-.76-.498-.082.082.081-.082Zm-.512-.733-.107.045.002.004.105-.049Zm-.18-1.452v-.115h-.115v.115h.115Zm1.41 0h.116v-.115h-.116v.115Zm.222 1.148-.095.066.003.005.092-.07Zm1.327.208.052.103.002-.002-.054-.101Zm.318-.305.1.058-.1-.058Zm.125-.456-.115-.011v.005l.115.006Zm0-1.244.114-.013-.114.013Zm-.111-.402.101-.055-.004-.006-.097.061Zm-.263-.248-.062.097.004.002.058-.1Zm-.415-.208.045-.106-.045.106ZM36.8 6.298l.044-.106-.044.106Zm-1.23-.982-.104.051.001.003.102-.054Zm-.153-2.6.11.034-.11-.033Zm.456-.857.088.075.002-.002-.09-.073Zm.733-.567.05.105v-.001l-.05-.104Zm2.033-.027-.047.105h.001l.046-.105Zm.76.511.084-.08-.002-.001-.081.081Zm.637 2.213v-.115h-1.41v.23h1.41V3.99Zm-1.41 0h.115V3.67h-.231v.318h.115Zm0-.318h.115c0-.342-.084-.642-.256-.895l-.095.065-.095.065c.142.208.215.462.215.765h.115Zm-.236-.83.098-.06c-.174-.284-.471-.415-.858-.415v.231c.332 0 .541.108.662.305l.098-.06Zm-.76-.36v-.115a1 1 0 0 0-.53.128l.06.098.06.098a.775.775 0 0 1 .41-.093v-.115Zm-.47.111-.06-.098a1.042 1.042 0 0 0-.327.31l.096.065.096.064a.813.813 0 0 1 .255-.243l-.06-.098Zm-.29.277-.099-.06a1.288 1.288 0 0 0-.168.455l.114.02.114.02a1.05 1.05 0 0 1 .136-.375l-.098-.06Zm-.153.415-.113-.022c-.03.156-.044.32-.044.492h.231c0-.16.013-.31.04-.45l-.114-.02Zm-.041.47h-.116c0 .195.005.36.014.492l.115-.008.115-.008a6.853 6.853 0 0 1-.013-.476h-.115Zm.013.484-.114.016c.02.141.061.27.124.385l.101-.055.101-.056a.9.9 0 0 1-.098-.306l-.114.016Zm.111.346-.101.055a.909.909 0 0 0 .268.3l.068-.093.068-.093a.68.68 0 0 1-.202-.225l-.101.056Zm.235.262-.064.096c.12.08.275.157.464.233l.043-.107.042-.107a2.341 2.341 0 0 1-.421-.21l-.064.095Zm.443.222-.043.107 1.079.428.042-.107.043-.107-1.079-.429-.042.108Zm1.078.428-.041.108c.305.116.546.253.727.408l.075-.087.075-.088a2.686 2.686 0 0 0-.795-.448l-.04.107Zm.76.429-.072.09c.182.147.324.319.427.516l.102-.053.102-.053a1.863 1.863 0 0 0-.486-.59l-.072.09Zm.457.553-.105.048c.096.21.163.451.198.727l.114-.014.115-.015a2.74 2.74 0 0 0-.217-.794l-.105.048Zm.208.76-.115.016c.036.27.055.583.055.939h.23c0-.363-.018-.687-.056-.97l-.114.016Zm.055.955h-.115c0 .407-.041.785-.122 1.135l.112.026.113.026c.085-.369.127-.765.127-1.187h-.115Zm-.125 1.161-.112-.026c-.08.337-.208.622-.381.857l.092.068.093.069a2.55 2.55 0 0 0 .42-.941l-.112-.027Zm-.4.9-.093-.07c-.181.242-.42.433-.717.573l.049.105.049.104c.329-.155.598-.37.803-.644l-.092-.069Zm-.761.608-.05-.105c-.293.139-.658.21-1.098.21v.231c.464 0 .864-.075 1.197-.232l-.05-.104Zm-1.148.221v-.115a2.39 2.39 0 0 1-.91-.172l-.044.107-.044.107c.31.126.643.188.998.188v-.115Zm-.954-.18.043-.107a2.153 2.153 0 0 1-.722-.472l-.082.081-.081.082c.223.223.49.398.798.523l.044-.107Zm-.76-.498.08-.081a2.442 2.442 0 0 1-.488-.7l-.104.048-.105.05c.135.288.313.543.535.765l.081-.082Zm-.512-.733.106-.044a2.257 2.257 0 0 1-.17-.882h-.231c0 .346.062.67.188.971l.107-.045Zm-.18-.926h.115V8.22h-.23v.526h.115Zm0-.526v.116h1.41v-.231h-1.41v.115Zm1.41 0h-.115v.443h.231V8.22h-.116Zm0 .443h-.115c0 .282.081.54.242.771l.095-.066.094-.066a1.092 1.092 0 0 1-.2-.639h-.116Zm.222.705-.092.07c.187.242.486.35.866.35v-.231c-.34 0-.556-.095-.683-.26l-.091.071Zm.774.304v.116c.247 0 .452-.033.605-.11l-.052-.102-.051-.103c-.106.052-.27.084-.502.084v.115Zm.553-.096.054.101a.895.895 0 0 0 .364-.348l-.1-.058-.1-.057a.664.664 0 0 1-.272.26l.054.102Zm.318-.305.1.058c.084-.148.13-.318.14-.508l-.115-.006-.115-.006a.901.901 0 0 1-.11.405l.1.057Zm.125-.456.114.012c.02-.19.029-.396.029-.62h-.231c0 .218-.009.417-.027.597l.115.011Zm.027-.608h.116c0-.26-.01-.477-.029-.65l-.114.014-.115.012c.018.16.027.368.027.624h.115Zm-.027-.636.114-.013a1.207 1.207 0 0 0-.124-.444l-.101.055-.101.056c.046.083.08.201.097.358l.115-.012Zm-.111-.402.097-.061a.873.873 0 0 0-.302-.287l-.058.1-.058.1a.63.63 0 0 1 .224.21l.097-.062Zm-.263-.248.062-.098a2.979 2.979 0 0 0-.432-.216l-.045.106-.044.106c.172.073.304.14.397.199l.062-.097Zm-.415-.208.044-.106-1.01-.415-.043.106-.044.107 1.01.415.043-.107ZM36.8 6.298l.044-.106c-.595-.243-.978-.556-1.173-.929l-.102.053-.102.054c.23.438.666.78 1.29 1.035l.043-.107Zm-1.23-.982.103-.05c-.193-.395-.293-.893-.293-1.498h-.23c0 .63.103 1.164.316 1.6l.103-.052Zm-.305-1.548h.115c0-.358.05-.697.147-1.018l-.11-.033-.11-.034a3.69 3.69 0 0 0-.157 1.085h.115Zm.152-1.051.11.033c.098-.318.243-.59.434-.816l-.088-.075-.087-.074a2.505 2.505 0 0 0-.48.898l.111.034Zm.456-.858.09.073c.182-.226.412-.404.692-.535l-.049-.105-.049-.104c-.31.145-.568.345-.773.599l.09.072Zm.733-.567.05.104c.286-.138.628-.21 1.029-.21v-.23c-.428 0-.806.076-1.129.233l.05.103Zm1.079-.22v.114c.336 0 .638.062.907.184l.047-.105.048-.105a2.407 2.407 0 0 0-1.002-.204v.115Zm.954.193-.046.105c.283.124.524.287.725.488l.082-.082.081-.081a2.568 2.568 0 0 0-.796-.536l-.046.106Zm.76.511-.083.08c.406.423.605.902.605 1.441h.23c0-.603-.225-1.138-.668-1.6l-.083.08Zm.637 1.521h-.115v.692h.23v-.692h-.115Zm5.95 4.896h.115v-.115h-.115v.115Zm-.18 1.48-.106-.046v.001l.106.044Zm-.47.719.083.08-.083-.08Zm-.72.511.048.105h.001l-.048-.105Zm-1.687.07-.03.11.03-.11Zm-.746-.388-.074.089.074-.089Zm-.553-.705-.105.049.002.004.103-.053Zm-.042-7.44.107.043-.107-.043Zm.47-.719.082.082-.082-.082Zm.72-.47.042.107h.002l-.045-.107Zm2.558.47.083-.08-.083.08Zm.47.76-.108.041.002.004.106-.044Zm.18 1.494v.115h.115v-.115h-.115Zm-1.41 0h-.116v.115h.115v-.115Zm-.236-1.19.091-.07-.091.07Zm-1.341.028-.102-.054v.001l.102.053Zm.013 6.57-.098.06.003.003.095-.064Zm.968.248.03.111.007-.002-.037-.109Zm.305-.166.072.09.004-.004-.076-.086Zm.207-.304-.106-.046.106.046Zm.083-.968v-.115h-.115v.115h.115Zm1.41 0h-.115V8.8h.231v-.608h-.115Zm0 .608h-.115c0 .289-.056.564-.17.826l.106.045.105.046c.127-.29.19-.597.19-.917h-.115Zm-.18.871-.106-.044a2.195 2.195 0 0 1-.447.684l.084.08.083.08a2.45 2.45 0 0 0 .493-.755l-.106-.045Zm-.47.72-.083-.08c-.192.201-.42.364-.684.487l.049.104.048.105c.29-.135.54-.314.754-.537l-.083-.08Zm-.718.511-.048-.105c-.251.113-.525.17-.824.17v.23c.329 0 .636-.063.919-.19l-.047-.105Zm-.872.18v-.115c-.256 0-.518-.036-.786-.107l-.03.111-.03.112c.286.076.568.114.846.114v-.115Zm-.816-.11.03-.112c-.26-.07-.494-.19-.703-.364l-.073.088-.074.089c.234.195.498.332.79.41l.03-.112Zm-.746-.388.073-.088a2.127 2.127 0 0 1-.524-.67l-.102.053-.103.053c.154.298.348.545.582.74l.074-.088Zm-.553-.705.104-.049c-.129-.275-.197-.63-.197-1.071h-.23c0 .462.07.854.218 1.169l.105-.05Zm-.208-1.12h.115V3.339h-.23v5.42h.115Zm0-5.421h.115c0-.31.053-.594.158-.856l-.107-.043-.107-.043a2.513 2.513 0 0 0-.174.942h.115Zm.166-.899.107.043a2 2 0 0 1 .445-.68l-.082-.082-.081-.081a2.23 2.23 0 0 0-.496.757l.107.043Zm.47-.719.082.082a2 2 0 0 1 .68-.445l-.043-.107-.042-.107c-.29.116-.544.281-.758.496l.081.081Zm.72-.47.044.106c.27-.113.568-.17.896-.17V.955a2.51 2.51 0 0 0-.985.189l.044.106Zm.94-.18v.115c.636 0 1.144.207 1.534.615l.084-.08.083-.08c-.44-.458-1.01-.685-1.701-.685v.115Zm1.618.65-.084.08c.192.2.34.44.446.721l.108-.04.108-.04a2.32 2.32 0 0 0-.495-.8l-.083.079Zm.47.76-.106.045c.113.27.17.569.17.896h.231c0-.355-.063-.684-.189-.985l-.106.045Zm.18.94h-.116v.554h.231v-.553h-.115Zm0 .554V3.86h-1.41v.23h1.41v-.115Zm-1.41 0h.114v-.47h-.23v.47h.115Zm0-.47h.114c0-.3-.085-.565-.259-.79l-.091.07-.091.071c.14.181.21.396.21.649h.116Zm-.236-.72.091-.07a.876.876 0 0 0-.727-.349v.231c.233 0 .411.086.545.26l.091-.071Zm-.636-.303v-.116c-.374 0-.66.12-.807.393l.102.054.1.055c.093-.17.278-.271.605-.271v-.115Zm-.705.331-.103-.053c-.121.234-.179.526-.179.87h.231c0-.32.053-.573.153-.763l-.102-.054Zm-.166.816h-.116v5.034h.231V3.629h-.115Zm0 5.034h-.116c0 .302.064.564.197.78l.098-.06.098-.062c-.106-.17-.162-.388-.162-.658h-.115Zm.18.72-.096.063c.158.237.428.342.773.342v-.231c-.3 0-.482-.089-.582-.239l-.096.064Zm.677.29v.115c.104 0 .21-.016.32-.046l-.03-.111-.03-.111a.988.988 0 0 1-.26.037v.115Zm.29-.042.037.11c.124-.042.237-.104.34-.186l-.072-.09-.072-.09a.864.864 0 0 1-.269.147l.036.109Zm.305-.166.076.086a.957.957 0 0 0 .237-.345l-.106-.045-.106-.046a.73.73 0 0 1-.178.264l.077.086Zm.207-.304.106.045c.063-.148.092-.326.092-.53h-.23c0 .184-.027.329-.074.44l.106.045Zm.083-.484h.115v-.484h-.23v.484h.115Zm0-.484v.115h1.41v-.23h-1.41v.115ZM47.55 11h-.115v.115h.115V11Zm0-9.846V1.04h-.115v.115h.115Zm1.41 0h.116V1.04h-.115v.115Zm0 4.218h-.114v.115h.115v-.115Zm1.743 0v.115h.115v-.115h-.115Zm0-4.218V1.04h-.115v.115h.115Zm1.41 0h.116V1.04h-.115v.115Zm0 9.846v.115h.116V11h-.115Zm-1.41 0h-.115v.115h.115V11Zm0-4.384h.115v-.115h-.115v.115Zm-1.742 0v-.115h-.115v.115h.115Zm0 4.384v.115h.115V11h-.115Zm-1.41 0h.115V1.154h-.231V11h.115Zm0-9.846v.115h1.41v-.23h-1.41v.115Zm1.41 0h-.115v4.218h.23V1.154h-.115Zm0 4.218v.115h1.742v-.23h-1.742v.115Zm1.742 0h.115V1.154h-.23v4.218h.115Zm0-4.218v.115h1.41v-.23h-1.41v.115Zm1.41 0H52V11h.23V1.154h-.115Zm0 9.846v-.115h-1.41v.23h1.41V11Zm-1.41 0h.115V6.616h-.23V11h.115Zm0-4.384v-.115h-1.742v.231h1.742v-.116Zm-1.742 0h-.115V11h.23V6.616h-.115Zm0 4.384v-.115h-1.41v.23h1.41V11Zm6.303-8.518v-.116h-.116v.116h.116Zm0 3.07h-.116v.115h.116v-.115Zm1.396-.097.047.105.005-.002-.052-.103Zm.346-.304.097.062.003-.005-.1-.057Zm.152-.47.114.016-.114-.017Zm0-1.314-.114.016.114-.016Zm-.166-.498.1-.06-.004-.005-.096.065ZM53.853 11h-.115v.115h.115V11Zm0-9.846V1.04h-.115v.115h.115Zm4.48 4.37-.104-.048-.001.002.106.046Zm-.94.982-.055-.101-.085.046.031.092.11-.037ZM58.914 11v.115h.161l-.051-.152-.11.037Zm-1.493 0-.11.034.025.081h.085V11Zm-1.314-4.204.11-.034-.025-.081h-.085v.115Zm-.843 0v-.115h-.116v.115h.116Zm0 4.204v.115h.115V11h-.115Zm0-8.518h-.116v3.07h.231v-3.07h-.115Zm0 3.07v.115h.802v-.231h-.802v.116Zm.802 0v.115c.257 0 .473-.033.64-.107l-.046-.105-.046-.106c-.127.056-.307.087-.548.087v.116Zm.594-.097.052.103a.97.97 0 0 0 .391-.345l-.097-.062-.097-.063a.74.74 0 0 1-.3.264l.051.103Zm.346-.304.1.057c.082-.144.137-.316.166-.51l-.114-.018-.114-.017a1.23 1.23 0 0 1-.138.43l.1.058Zm.152-.47.114.016c.029-.2.043-.427.043-.68h-.231c0 .244-.013.46-.04.647l.114.016Zm.042-.664h.115c0-.253-.014-.476-.043-.667l-.114.017-.114.017c.027.177.04.388.04.633h.116Zm-.042-.65.114-.017a1.436 1.436 0 0 0-.181-.54l-.099.059-.099.06c.074.122.125.272.151.454l.114-.016Zm-.166-.498.096-.065c-.207-.305-.587-.438-1.091-.438v.231c.472 0 .756.125.9.337l.095-.065Zm-.995-.387v-.116h-.733v.231h.733v-.115ZM53.853 11h.115V1.154h-.23V11h.115Zm0-9.846v.115h2.268v-.23h-2.268v.115Zm2.268 0v.115c.807 0 1.393.234 1.78.683.39.452.594 1.143.594 2.092h.23c0-.977-.21-1.732-.65-2.243-.443-.514-1.102-.762-1.954-.762v.115Zm2.49 2.89h-.116c0 .57-.09 1.045-.266 1.432l.105.048.104.048c.193-.425.287-.935.287-1.528h-.115Zm-.277 1.48-.106-.046c-.164.379-.457.688-.89.927l.055.1.056.102c.47-.26.803-.605.99-1.037l-.105-.046Zm-.94.982-.11.037 1.521 4.494.11-.037.109-.037-1.522-4.494-.109.037ZM58.913 11v-.115H57.42v.23h1.493V11Zm-1.493 0 .11-.034-1.314-4.204-.11.034-.11.034 1.314 4.204.11-.034Zm-1.314-4.204v-.115h-.843v.23h.843v-.115Zm-.843 0h-.116V11h.231V6.796h-.115Zm0 4.204v-.115h-1.41v.23h1.41V11Zm7.74-3.443v.115h.14l-.026-.137-.113.022Zm-.69-3.568.112-.022-.018-.093h-.095v.115Zm-.028 0v-.115h-.096l-.018.093.114.022Zm-.692 3.568-.113-.022-.027.137h.14v-.115ZM59.52 11l-.113-.025-.031.14h.144V11Zm2.199-9.846V1.04h-.093l-.02.09.113.025Zm1.175 0 .113-.025-.02-.09h-.093v.115ZM65.093 11v.115h.144l-.032-.14-.112.025Zm-1.41 0-.114.022.018.093h.095V11Zm-.416-2.116.113-.022-.018-.093h-.095v.115Zm-1.922 0V8.77h-.095l-.018.093.113.022ZM60.93 11v.115h.095l.018-.093L60.93 11Zm2.075-3.443.113-.022-.692-3.568-.113.022-.113.022.691 3.568.114-.022Zm-.692-3.568v-.115h-.027v.23h.027V3.99Zm-.027 0-.114-.022-.691 3.568.113.022.113.022.692-3.568-.113-.022Zm-.692 3.568v.115h1.41V7.44h-1.41v.116ZM59.52 11l.112.025 2.199-9.846-.112-.025-.113-.025-2.199 9.846.113.025Zm2.199-9.846v.115h1.175v-.23h-1.175v.115Zm1.175 0-.112.025 2.198 9.846.113-.025.112-.025-2.198-9.846-.113.025ZM65.093 11v-.115h-1.41v.23h1.41V11Zm-1.41 0 .112-.022-.415-2.116-.113.022-.113.022.415 2.116.113-.022Zm-.416-2.116V8.77h-1.922V9h1.922v-.115Zm-1.922 0-.113-.022-.415 2.116.113.022.113.022.415-2.116-.113-.022ZM60.93 11v-.115h-1.41v.23h1.41V11Zm5.272 0h-.115v.115h.115V11Zm0-9.846V1.04h-.115v.115h.115Zm3.927.664-.084.079h.001l.083-.08Zm-.041 8.532.08.082-.08-.082Zm-2.475-7.868v-.116h-.116v.116h.116Zm0 7.19h-.116v.116h.116v-.116Zm1.493-.29.088.075.001-.002-.089-.073ZM69.12 2.8l-.093.068.093-.068ZM66.202 11h.115V1.154h-.23V11h.115Zm0-9.846v.115h2.088v-.23h-2.088v.115Zm2.088 0v.115c.79 0 1.369.215 1.755.628l.084-.08.085-.078c-.444-.473-1.092-.7-1.924-.7v.115Zm1.84.664-.084.08c.398.414.604 1.01.604 1.8h.231c0-.83-.218-1.49-.668-1.96l-.084.08Zm.636 1.88h-.116v4.605h.231V3.7h-.115Zm0 4.605h-.116c0 .906-.222 1.552-.643 1.965l.081.082.08.082c.483-.472.713-1.19.713-2.129h-.115Zm-.678 2.047-.08-.082c-.415.405-1.022.617-1.842.617v.23c.858 0 1.532-.222 2.003-.683l-.081-.082Zm-1.922.65v-.115h-1.964v.23h1.964V11Zm-.553-8.518h-.116v7.19h.231v-7.19h-.115Zm0 7.19v.116h.65v-.231h-.65v.115Zm.65 0v.116c.411 0 .733-.1.93-.33l-.087-.076-.087-.075c-.135.157-.375.25-.756.25v.115Zm.843-.29.09.073c.19-.233.274-.578.274-1.013h-.23c0 .413-.082.694-.223.867l.09.073Zm.25-.94h.114V3.699h-.23v4.743h.115Zm0-4.743h.114c0-.401-.08-.729-.257-.968l-.093.069-.093.068c.137.185.213.457.213.83h.115Zm-.236-.9.093-.068c-.189-.255-.52-.365-.95-.365v.231c.4 0 .64.102.764.271l.093-.068Zm-.857-.317v-.116h-.65v.231h.65v-.115ZM72.505 11h-.115v.115h.115V11Zm0-9.846V1.04h-.115v.115h.115Zm4.204 0h.115V1.04h-.115v.115Zm0 1.328v.115h.115v-.115h-.115Zm-2.794 0v-.116H73.8v.116h.115Zm0 2.89H73.8v.115h.115v-.115Zm2.434 0h.116v-.115h-.116v.115Zm0 1.327v.116h.116v-.116h-.116Zm-2.434 0v-.115H73.8V6.7h.115Zm0 2.89H73.8v.116h.115v-.116Zm2.794 0h.115v-.115h-.115v.115Zm0 1.411v.115h.115V11h-.115Zm-4.204 0h.115V1.154h-.23V11h.115Zm0-9.846v.115h4.204v-.23h-4.204v.115Zm4.204 0h-.115v1.328h.23V1.154h-.115Zm0 1.328v-.116h-2.794v.231h2.794v-.115Zm-2.794 0H73.8v2.89h.231v-2.89h-.116Zm0 2.89v.115h2.434v-.23h-2.434v.115Zm2.434 0h-.115v1.327h.231V5.372h-.116Zm0 1.327v-.115h-2.434v.231h2.434v-.116Zm-2.434 0H73.8v2.89h.231V6.7h-.116Zm0 2.89v.116h2.794v-.231h-2.794v.115Zm2.794 0h-.115V11h.23V9.59h-.115Zm0 1.411v-.115h-4.204v.23h4.204V11Zm2.74-8.518v-.116h-.116v.116h.115Zm0 3.07h-.116v.115h.115v-.115Zm1.396-.097.046.105.006-.002-.052-.103Zm.346-.304.097.062.003-.005-.1-.057Zm.152-.47.114.016-.114-.017Zm0-1.314-.114.016.114-.016Zm-.166-.498.1-.06-.005-.005-.095.065ZM78.038 11h-.115v.115h.115V11Zm0-9.846V1.04h-.115v.115h.115Zm4.48 4.37-.104-.048-.001.002.106.046Zm-.94.982-.056-.101-.084.046.031.092.11-.037ZM83.1 11v.115h.16l-.05-.152-.11.037Zm-1.493 0-.11.034.025.081h.085V11Zm-1.314-4.204.11-.034-.025-.081h-.085v.115Zm-.844 0v-.115h-.115v.115h.115Zm0 4.204v.115h.116V11h-.115Zm0-8.518h-.115v3.07h.231v-3.07h-.115Zm0 3.07v.115h.803v-.231h-.803v.116Zm.803 0v.115c.257 0 .473-.033.64-.107l-.046-.105-.046-.106c-.127.056-.308.087-.548.087v.116Zm.594-.097.052.103a.971.971 0 0 0 .39-.345l-.096-.062-.097-.063a.74.74 0 0 1-.3.264l.051.103Zm.346-.304.1.057c.082-.144.137-.316.166-.51l-.114-.018-.114-.017a1.231 1.231 0 0 1-.138.43l.1.058Zm.152-.47.114.016c.029-.2.043-.427.043-.68h-.231c0 .244-.013.46-.04.647l.114.016Zm.041-.664h.116c0-.253-.014-.476-.043-.667l-.114.017-.114.017c.027.177.04.388.04.633h.115Zm-.04-.65.113-.017a1.434 1.434 0 0 0-.181-.54l-.099.059-.099.06c.074.122.125.272.151.454l.114-.016Zm-.167-.498.095-.065c-.206-.305-.586-.438-1.09-.438v.231c.472 0 .756.125.9.337l.095-.065Zm-.996-.387v-.116h-.733v.231h.734v-.115ZM78.038 11h.115V1.154h-.23V11h.115Zm0-9.846v.115h2.268v-.23h-2.268v.115Zm2.268 0v.115c.807 0 1.393.234 1.78.683.389.452.594 1.143.594 2.092h.23c0-.977-.21-1.732-.65-2.243-.443-.514-1.102-.762-1.954-.762v.115Zm2.49 2.89h-.116c0 .57-.09 1.045-.266 1.432l.105.048.104.048c.193-.425.287-.935.287-1.528h-.115Zm-.278 1.48-.105-.046c-.164.379-.457.688-.89.927l.055.1.056.102c.47-.26.803-.605.99-1.037l-.105-.046Zm-.94.982-.109.037 1.521 4.494.11-.037.108-.037-1.52-4.494-.11.037ZM83.1 11v-.115h-1.493v.23H83.1V11Zm-1.493 0 .11-.034-1.314-4.204-.11.034-.11.034 1.314 4.204.11-.034Zm-1.314-4.204v-.115h-.844v.23h.844v-.115Zm-.844 0h-.115V11h.231V6.796h-.115Zm0 4.204v-.115h-1.41v.23h1.41V11Z" mask="url(#b)"/></g><defs><clipPath id="a"><path fill="#fff" d="M.583.083h83v13h-83z"/></clipPath></defs></svg>