<svg xmlns="http://www.w3.org/2000/svg" width="24" height="25" fill="none"><path fill="#683BFF" d="M17.242 20.244c.779 0 1.437-.269 1.975-.806.537-.538.806-1.196.806-1.975 0-.779-.269-1.437-.806-1.974-.538-.538-1.196-.807-1.975-.807-.779 0-1.437.269-1.974.807-.538.537-.807 1.195-.807 1.974 0 .779.269 1.437.807 1.975.537.537 1.195.806 1.974.806Zm0 2.225c-1.39 0-2.572-.487-3.546-1.46-.973-.973-1.46-2.155-1.46-3.546 0-1.39.487-2.572 1.46-3.546.974-.973 2.156-1.46 3.546-1.46 1.39 0 2.572.487 3.546 1.46.973.974 1.46 2.156 1.46 3.546 0 .482-.065.946-.195 1.39-.13.446-.324.872-.584 1.28l2.225 2.225c.204.204.306.463.306.778 0 .316-.102.575-.306.78a1.055 1.055 0 0 1-.779.305c-.315 0-.574-.102-.778-.306l-2.225-2.225c-.408.26-.834.454-1.28.584a4.94 4.94 0 0 1-1.39.195Z"/><path fill="#130738" d="M8.9 18.02c-.316 0-.58-.107-.793-.32a1.076 1.076 0 0 1-.32-.793c0-.315.106-.58.32-.793.213-.213.477-.32.792-.32h1.113c.315 0 .579.107.792.32.213.214.32.478.32.793 0 .315-.107.58-.32.793-.213.213-.477.32-.792.32H8.899Zm-1.114 5.56c-1.539 0-2.85-.542-3.935-1.626-1.085-1.085-1.627-2.397-1.627-3.935V8.008a2.142 2.142 0 0 1-1.571-.654A2.142 2.142 0 0 1 0 5.784V3.557c0-.612.218-1.135.654-1.571a2.139 2.139 0 0 1 1.57-.654H13.35c.612 0 1.135.218 1.571.654.436.436.654.96.654 1.571v2.225a2.14 2.14 0 0 1-.654 1.571c-.436.436-.96.654-1.571.654v3.337a2.14 2.14 0 0 1-.654 1.571c-.435.436-.96.654-1.571.654H8.899c-.315 0-.58-.107-.792-.32a1.076 1.076 0 0 1-.32-.793c0-.315.106-.579.32-.792.213-.213.477-.32.792-.32h2.225V8.008H4.45V18.02c0 .927.324 1.714.973 2.363.649.65 1.437.974 2.364.974a3.366 3.366 0 0 0 1.808-.528.957.957 0 0 1 .778-.112c.278.074.491.241.64.5.167.26.213.543.139.849a1.128 1.128 0 0 1-.5.709c-.427.26-.877.459-1.35.598a5.349 5.349 0 0 1-1.515.208ZM2.225 5.784h11.124V3.558H2.225v2.225Z"/></svg>