<svg xmlns="http://www.w3.org/2000/svg" width="126" height="31" fill="none"><path fill="#130738" fill-rule="evenodd" d="M82.94 9.573a2.318 2.318 0 0 1 2.323 2.327 2.318 2.318 0 0 1-2.324 2.327 2.33 2.33 0 0 1-2.338-2.327 2.33 2.33 0 0 1 2.338-2.327Zm31.403 8.572c.12-3.918 6.401-4.279 10.044-2.072l-1.349 2.657c-1.26-.87-2.339-1.276-3.718-1.17-1.319.105-1.454 1.53.675 1.486 3.312-.09 5.111 1.666 4.931 3.903-.284 3.618-5.981 5.105-10.972 1.937l1.843-2.703c1.394.811 2.774 1.517 4.168 1.352 1.454-.166 2.173-1.337-.405-1.607-3.523-.375-5.277-1.501-5.217-3.783Zm-27.386 8.467V15.458h4.062v1.561c1.574-2.612 7.69-2.657 7.69 1.426l.015 8.152h-4.048l-.045-5.6c-.015-2.251-.84-2.462-1.933-2.326-.915.105-1.724.435-1.724 2.326v5.6h-4.017v.015Zm-1.92-11.35v11.35h-4.212v-11.35h4.213ZM60.29 26.612V15.458h4.062v1.561c1.215-2.027 5.892-3.017 7.24.12 1.92-2.852 7.496-2.732 7.496 1.156v8.302h-4.303v-6.08c0-1.636-.284-1.787-1.663-1.726-1.125.045-1.38.99-1.38 2.041l-.03 5.795H67.68l-.045-5.6c-.03-2.251-.51-2.432-1.619-2.326-1.079.105-1.559.255-1.559 2.326v5.6H60.29v-.015Zm-7.315-11.98a5.973 5.973 0 0 1 5.981 5.99 5.973 5.973 0 0 1-5.981 5.99 5.983 5.983 0 0 1-5.981-5.99c.015-3.303 2.683-5.99 5.98-5.99Zm0 3.858a2.13 2.13 0 0 1 2.129 2.132 2.129 2.129 0 1 1-4.258 0c.015-1.17.96-2.132 2.129-2.132Zm-22.41 8.122V10.82h4.692c1.484 0 2.758.09 3.807.24 1.05.165 1.919.42 2.578.75 1.395.706 2.459 1.667 3.208 2.853.75 1.186 1.125 2.537 1.125 4.053 0 1.517-.375 2.853-1.11 4.039-.75 1.186-1.813 2.132-3.223 2.852-.69.346-1.544.601-2.593.751-1.05.165-2.458.24-4.212.24h-4.272v.015Zm4.677-4.158v-7.447h1.918a9.15 9.15 0 0 1 1.56.12c.434.075.779.196 1.049.36.57.346 1.004.796 1.319 1.352.3.555.45 1.2.45 1.907 0 .705-.15 1.35-.45 1.906a3.454 3.454 0 0 1-1.32 1.351c-.284.166-.629.286-1.064.36-.434.076-1.004.106-1.724.106h-1.738v-.015Zm70.558-7.822a5.983 5.983 0 0 1 5.981 5.99 5.983 5.983 0 0 1-5.981 5.99 5.983 5.983 0 0 1-5.981-5.99c0-3.303 2.683-5.99 5.981-5.99Zm0 3.858a2.13 2.13 0 0 1 2.129 2.132 2.12 2.12 0 0 1-2.129 2.132 2.13 2.13 0 0 1-2.129-2.132 2.13 2.13 0 0 1 2.129-2.132Zm7.225-8.887c.93 0 1.724.555 2.069 1.35.27.616.3 1.382.12 2.043-.24 1.005-1.094 1.981-2.863 2.897l-.495-.66c.345-.286.705-.601.839-.811.27-.39-.075-.3-.359-.39a2.265 2.265 0 0 1-1.589-2.162c.015-1.246 1.034-2.267 2.278-2.267Z" clip-rule="evenodd"/><path fill="#130738" fill-rule="evenodd" d="m9.342 9.013 8.035-8.01a.866.866 0 0 1 1.222 0l7.584 7.608a.866.866 0 0 1 0 1.222l-8.043 8.01-8.798-8.83Zm7.207-1.419a2.153 2.153 0 0 1 3.05.009 2.153 2.153 0 0 1-.008 3.05 2.153 2.153 0 0 1-3.05-.008 2.153 2.153 0 0 1 .008-3.05Z" clip-rule="evenodd" opacity=".3"/><path fill="#130738" fill-rule="evenodd" d="M10.473 16.777a2.16 2.16 0 0 1 3.05.009 2.153 2.153 0 0 1-.008 3.05 2.16 2.16 0 0 1-3.05-.008 2.16 2.16 0 0 1 .008-3.05Zm-6.314.025a2.153 2.153 0 0 1 3.05.008 2.16 2.16 0 0 1-.008 3.05 2.16 2.16 0 0 1-3.05-.008 2.16 2.16 0 0 1 .008-3.05Zm-3.435.804 8.035-8.011 8.806 8.839-8.035 8.01a.859.859 0 0 1-1.222-.008L.724 18.827a.866.866 0 0 1 0-1.221Z" clip-rule="evenodd"/></svg>