<svg xmlns="http://www.w3.org/2000/svg" width="472" height="141" fill="none"><mask id="b" width="472" height="141" x="0" y="0" maskUnits="userSpaceOnUse" style="mask-type:alpha"><path fill="url(#a)" d="M0 .833h472v140H0z"/></mask><g mask="url(#b)"><path fill="#130738" d="M147.582 79.622V58.963h2.821l8.375 13.4h-1.616l8.346-13.4h2.821v20.66h-3.967V65.81l.764.236-5.819 9.345h-2.703l-5.819-9.345.793-.236v13.812h-3.996Zm30.991 0-8.14-20.659h4.32l6.289 16.721h-1.675l6.347-16.72h4.262l-8.229 20.658h-3.174Zm16.459-7.67V68.69h4.79c.627 0 1.195-.127 1.705-.382a2.945 2.945 0 0 0 1.205-1.087c.294-.49.441-1.077.441-1.763 0-.666-.147-1.244-.441-1.734a2.884 2.884 0 0 0-1.205-1.117 3.763 3.763 0 0 0-1.705-.382h-4.79v-3.262h5.202c1.312 0 2.488.265 3.526.794a6.066 6.066 0 0 1 2.498 2.263c.607.96.911 2.106.911 3.438 0 1.332-.304 2.488-.911 3.468-.607.96-1.44 1.704-2.498 2.233-1.038.529-2.214.793-3.526.793h-5.202Zm-2.938 7.67V58.963h3.996v20.66h-3.996Z"/><rect width="96.638" height="96.638" x="108.005" y="68.666" stroke="#683BFF" stroke-width="4" rx="20" transform="rotate(-45 108.005 68.666)"/><g opacity=".3"><path stroke="#683BFF" stroke-width="4" d="M1.142 85.809c-7.81-7.81-7.81-20.474 0-28.285l40.049-40.048c7.81-7.81 20.474-7.81 28.284 0l40.049 40.048c7.81 7.81 7.81 20.474 0 28.285l-40.049 40.048c-7.81 7.811-20.474 7.811-28.284 0L1.142 85.809Z"/><path stroke="#130738" stroke-linecap="round" stroke-linejoin="round" stroke-width="3" d="M50.785 79.816c0-2.83-.59-4.42-2.063-6.288-1.506-1.908-2.947-4.238-2.947-6.973 0-5.371 4.354-9.725 9.725-9.725 5.37 0 9.725 4.354 9.725 9.725 0 2.635-.917 4.715-2.751 6.778-1.835 2.063-1.964 4.597-1.964 6.483m0 1.12H50.49m10.02 5H50.49m7.51 5h-5M36 65.385h2.836m.596 12.123 2.324-1.626m29.57 2.193-2.168-1.828M75 65.385h-2.836m-.94-10.108L68.9 56.903m-6.814-8.653-.974 2.665M50.57 47.73l.729 2.741M39.995 54.74l2.169 1.829" opacity=".8"/></g><path fill="#130738" d="m276.672 79.622-6.26-14.194h4.232l4.496 11.696h-2.086l4.525-11.695h4.085l-6.23 14.193h-2.762Zm13.207 0V58.963h3.938v20.66h-3.938Zm-4.055-17.191v-3.468h7.699v3.468h-7.699ZM299.7 79.916c-.705 0-1.283-.235-1.734-.705-.45-.47-.676-1.048-.676-1.734 0-.686.226-1.264.676-1.734.451-.47 1.029-.705 1.734-.705.686 0 1.254.235 1.705.705.45.47.675 1.048.675 1.734 0 .686-.225 1.264-.675 1.734-.451.47-1.019.705-1.705.705Zm12.855 0c-1.626 0-3.095-.44-4.408-1.322-1.313-.882-2.361-2.126-3.144-3.732-.764-1.607-1.146-3.478-1.146-5.613 0-2.136.382-3.997 1.146-5.584.764-1.587 1.792-2.82 3.085-3.703 1.313-.881 2.772-1.322 4.379-1.322 1.646 0 3.115.44 4.408 1.322 1.313.882 2.351 2.126 3.115 3.733.764 1.586 1.146 3.458 1.146 5.613 0 2.135-.382 4.006-1.146 5.612-.764 1.587-1.793 2.822-3.086 3.703-1.293.862-2.742 1.293-4.349 1.293Zm-.059-3.614c.941 0 1.754-.265 2.439-.794.686-.529 1.215-1.313 1.587-2.35.392-1.04.588-2.332.588-3.88s-.196-2.84-.588-3.879c-.372-1.038-.911-1.812-1.616-2.322-.686-.528-1.499-.793-2.439-.793-.921 0-1.724.265-2.41.794-.686.509-1.224 1.283-1.616 2.321-.372 1.019-.558 2.302-.558 3.85 0 1.567.186 2.87.558 3.908.392 1.038.93 1.822 1.616 2.351.686.53 1.499.794 2.439.794Z"/><rect width="96.638" height="96.638" x="228.005" y="68.666" stroke="#683BFF" stroke-width="4" rx="20" transform="rotate(-45 228.005 68.666)"/><g opacity=".3"><path fill="#130738" d="m401.766 79.627-6.26-14.194h4.232l4.496 11.696h-2.086l4.525-11.696h4.085l-6.23 14.194h-2.762Zm13.207 0V58.968h3.938v20.66h-3.938Zm-4.055-17.191v-3.468h7.699v3.468h-7.699Zm13.876 17.485c-.705 0-1.283-.235-1.734-.705-.45-.47-.676-1.048-.676-1.734 0-.686.226-1.264.676-1.734.451-.47 1.029-.705 1.734-.705.686 0 1.254.235 1.704.705.451.47.676 1.048.676 1.734 0 .686-.225 1.264-.676 1.734-.45.47-1.018.705-1.704.705Zm6.251-.294V58.968h3.938v20.66h-3.938Zm-4.055-17.191v-3.468h7.699v3.468h-7.699Z" opacity=".7"/><rect width="96.638" height="96.638" x="348.005" y="68.671" stroke="#683BFF" stroke-dasharray="4 12" stroke-linecap="round" stroke-width="4" rx="20" transform="rotate(-45 348.005 68.671)"/></g><circle cx="236" cy="68.334" r="11" fill="#130738" stroke="#fff" stroke-width="10"/><circle cx="116" cy="68.334" r="11" fill="#130738" stroke="#fff" stroke-width="10"/><circle cx="357" cy="68.334" r="11" fill="#130738" stroke="#fff" stroke-width="10"/><rect width="29" height="29" x="100.5" y="53.834" fill="#683BFF" stroke="#fff" stroke-width="5" rx="14.5"/><path stroke="#fff" stroke-linecap="round" stroke-linejoin="round" stroke-width="3" d="m109.75 68.521 3.375 3.375 7.5-7.5"/><rect width="29" height="29" x="221.5" y="53.834" fill="#683BFF" stroke="#fff" stroke-width="5" rx="14.5"/><path stroke="#fff" stroke-linecap="round" stroke-linejoin="round" stroke-width="3" d="m230.75 68.521 3.375 3.375 7.5-7.5"/><rect width="29" height="29" x="342.5" y="53.834" fill="#683BFF" stroke="#fff" stroke-width="5" rx="14.5"/><path stroke="#fff" stroke-linecap="round" stroke-linejoin="round" stroke-width="3" d="m351.75 68.521 3.375 3.375 7.5-7.5"/></g><defs><linearGradient id="a" x1="472" x2="0" y1="70.834" y2="70.834" gradientUnits="userSpaceOnUse"><stop stop-color="red" stop-opacity="0"/><stop offset=".246" stop-color="red"/><stop offset=".75" stop-color="red"/><stop offset="1" stop-color="red" stop-opacity="0"/></linearGradient></defs></svg>