<svg xmlns="http://www.w3.org/2000/svg" width="44" height="45" fill="none"><mask id="a" width="28" height="30" x="16.5" y="2.157" fill="#000" maskUnits="userSpaceOnUse"><path fill="#fff" d="M16.5 2.157h28v30h-28z"/><path d="M41.877 3.364a.499.499 0 0 1 .892.183l.04.187a4.861 4.861 0 0 1-1.517 4.647c-4.535 4.021-7.893 6.626-11.385 9.028C35.262 24.25 38.091 27.5 40.434 28.47c.17.07.223.294.087.42-.881.81-1.677 1.214-2.607 1.504-.7.218-1.454-.047-1.93-.605l-8.932-10.476a374.804 374.804 0 0 1-5.354 3.395 142.501 142.501 0 0 0-1.821 6.67 1.21 1.21 0 0 1-1.59.85 1.204 1.204 0 0 1-.735-1.477c2.749-9.124 4.12-14.574 6.196-23.74a.481.481 0 0 1 .589-.365 8.16 8.16 0 0 1 1.713.665c.6.31.864 1.023.665 1.67-1.635 5.302-3.08 9.45-4.425 13.78 9.939-6.696 14.87-10.88 19.587-17.398Z"/></mask><path fill="#130738" d="M41.877 3.364a.499.499 0 0 1 .892.183l.04.187a4.861 4.861 0 0 1-1.517 4.647c-4.535 4.021-7.893 6.626-11.385 9.028C35.262 24.25 38.091 27.5 40.434 28.47c.17.07.223.294.087.42-.881.81-1.677 1.214-2.607 1.504-.7.218-1.454-.047-1.93-.605l-8.932-10.476a374.804 374.804 0 0 1-5.354 3.395 142.501 142.501 0 0 0-1.821 6.67 1.21 1.21 0 0 1-1.59.85 1.204 1.204 0 0 1-.735-1.477c2.749-9.124 4.12-14.574 6.196-23.74a.481.481 0 0 1 .589-.365 8.16 8.16 0 0 1 1.713.665c.6.31.864 1.023.665 1.67-1.635 5.302-3.08 9.45-4.425 13.78 9.939-6.696 14.87-10.88 19.587-17.398Z"/><path fill="#130738" d="m41.877 3.364-.648-.47.648.47Zm.892.183.784-.164-.001-.002-.782.166Zm.04.187-.783.164V3.9l.782-.166ZM41.291 8.38l.53.599-.53-.599Zm-11.384 9.03-.453-.66-.701.483.524.67.63-.493Zm10.527 11.06-.305.74.306-.74Zm.087.42.542.588-.542-.589Zm-2.607 1.504.238.764-.238-.764Zm-1.93-.605.61-.52h-.001l-.609.52Zm-8.932-10.476.608-.52-.455-.534-.59.383.437.67Zm-5.354 3.395-.424-.679-.256.16-.087.29.767.229Zm-1.821 6.67.777.192-.777-.192Zm-1.59.85-.277.752.276-.751Zm-.735-1.477-.766-.23.766.23Zm6.196-23.74-.78-.177.78.177Zm.589-.365.209-.772-.21.772Zm1.713.665.367-.71-.367.71Zm.665 1.67.764.236-.764-.236Zm-4.425 13.78-.764-.237-.674 2.17 1.885-1.27-.447-.663ZM41.877 3.364l.648.469a.3.3 0 0 1-.538-.12l.782-.166.783-.166c-.237-1.117-1.675-1.38-2.323-.486l.648.469Zm.892.183-.783.164.04.187.782-.164.784-.164-.04-.187-.782.164Zm.04.187-.783.166a4.062 4.062 0 0 1-1.265 3.883l.53.598.532.599a5.662 5.662 0 0 0 1.768-5.412l-.782.166ZM41.291 8.38l-.53-.598c-4.515 4.002-7.846 6.586-11.308 8.967l.453.659.453.659c3.523-2.423 6.906-5.049 11.463-9.088l-.531-.599Zm-11.384 9.03-.63.493c2.677 3.42 4.742 5.968 6.438 7.786 1.684 1.804 3.074 2.968 4.414 3.522l.306-.739.305-.739c-1.004-.416-2.2-1.362-3.855-3.136-1.643-1.76-3.67-4.258-6.348-7.68l-.63.493Zm10.527 11.06-.305.74a.534.534 0 0 1-.318-.381.561.561 0 0 1 .169-.529l.541.59.542.588c.62-.57.318-1.482-.323-1.747l-.306.74Zm.087.42-.541-.59c-.785.722-1.474 1.071-2.304 1.33l.238.764.238.764c1.03-.322 1.933-.781 2.91-1.68l-.54-.589Zm-2.607 1.504-.238-.764c-.356.111-.787-.013-1.083-.36l-.609.518-.608.52c.656.769 1.731 1.176 2.776.85l-.238-.764Zm-1.93-.605.609-.52-8.933-10.475-.608.519-.61.519 8.934 10.476.608-.52Zm-8.932-10.476-.436-.67a374.076 374.076 0 0 1-5.342 3.386l.424.678.425.679a375.616 375.616 0 0 0 5.365-3.402l-.436-.671Zm-5.354 3.395-.767-.23a143.367 143.367 0 0 0-1.83 6.709l.776.191.777.192c.59-2.39 1.19-4.554 1.81-6.634l-.766-.229Zm-1.821 6.67-.777-.192a.412.412 0 0 1-.537.292l-.277.75-.277.752a2.012 2.012 0 0 0 2.645-1.41l-.777-.192Zm-1.59.85.276-.75a.405.405 0 0 1-.245-.496l-.766-.23-.766-.231a2.005 2.005 0 0 0 1.223 2.459l.277-.751Zm-.735-1.477.766.231c2.755-9.146 4.131-14.615 6.21-23.794l-.78-.177-.78-.177c-2.073 9.152-3.44 14.584-6.182 23.687l.766.23Zm6.196-23.74.78.177a.319.319 0 0 1-.4.23l.209-.772.209-.772c-.729-.197-1.424.279-1.578.96l.78.177Zm.589-.365-.21.772a7.365 7.365 0 0 1 1.555.604l.368-.711.367-.71a8.963 8.963 0 0 0-1.871-.727l-.21.772Zm1.713.665-.368.71c.226.117.364.413.268.724l.765.236.764.235c.303-.982-.085-2.11-1.062-2.616l-.367.711Zm.665 1.67-.765-.236a423.578 423.578 0 0 1-2.317 7.242c-.733 2.239-1.432 4.365-2.107 6.537l.764.237.764.237c.67-2.157 1.365-4.27 2.1-6.513.734-2.242 1.506-4.61 2.325-7.268l-.764-.236Zm-4.425 13.78.447.664c9.97-6.717 14.99-10.962 19.788-17.593l-.648-.47-.648-.468c-4.636 6.407-9.477 10.528-19.386 17.204l.447.663Z" mask="url(#a)"/><g opacity=".3"><mask id="b" fill="#fff"><path d="M14.524 2.716c7.719 0 13.976 6.257 13.976 13.975 0 7.72-6.257 13.977-13.976 13.977C6.805 30.668.548 24.41.548 16.691c0-7.718 6.258-13.975 13.976-13.975Zm0 9.975a4 4 0 1 0 0 8.001 4 4 0 0 0 0-8Z"/></mask><path fill="#130738" d="M14.524 2.716c7.719 0 13.976 6.257 13.976 13.975 0 7.72-6.257 13.977-13.976 13.977C6.805 30.668.548 24.41.548 16.691c0-7.718 6.258-13.975 13.976-13.975Zm0 9.975a4 4 0 1 0 0 8.001 4 4 0 0 0 0-8Z"/><path fill="#130738" d="M14.524 2.716V2.47v.246ZM28.5 16.69h.246-.245ZM14.524 30.668v.246-.246ZM.548 16.691H.303h.245Zm13.976-4v-.245.245Zm-4 4h-.246.246Zm4 4v.246-.246Zm4-4h.246-.246Zm-4-13.975v.246c7.583 0 13.73 6.147 13.73 13.73h.492c0-7.855-6.368-14.222-14.222-14.222v.246ZM28.5 16.69h-.245c0 7.583-6.148 13.731-13.731 13.731v.492c7.854 0 14.222-6.368 14.222-14.223h-.245ZM14.524 30.668v-.246c-7.583 0-13.73-6.148-13.73-13.73H.303c0 7.854 6.367 14.221 14.22 14.222v-.246ZM.548 16.691h.246c0-7.582 6.147-13.73 13.73-13.73V2.47C6.67 2.47.303 8.837.303 16.691h.245Zm13.976-4v-.245a4.246 4.246 0 0 0-4.246 4.245h.492a3.755 3.755 0 0 1 3.754-3.754v-.246Zm-4 4h-.246a4.246 4.246 0 0 0 4.246 4.246v-.491a3.754 3.754 0 0 1-3.754-3.755h-.246Zm4 4v.246c2.345 0 4.246-1.9 4.246-4.246h-.492a3.754 3.754 0 0 1-3.754 3.755v.245Zm4-4h.246a4.246 4.246 0 0 0-4.246-4.245v.491a3.754 3.754 0 0 1 3.754 3.754h.246Z" mask="url(#b)"/></g><path fill="#130738" d="m2.573 41.834-2.27-7.06h1.56l1.66 5.43h-.61l1.62-5.43h1.23l1.62 5.43h-.6l1.65-5.43h1.55l-2.27 7.06h-1.23l-1.63-5.43h.58l-1.63 5.43h-1.23Zm10.195.11a3.03 3.03 0 0 1-1.41-.32 2.472 2.472 0 0 1-.96-.91 2.485 2.485 0 0 1-.35-1.31c0-.487.113-.92.34-1.3.233-.387.546-.69.94-.91.393-.22.836-.33 1.33-.33.48 0 .903.103 1.27.31.366.206.653.493.86.86a2.46 2.46 0 0 1 .3 1.54 2.517 2.517 0 0 1-.05.33l-4.19.01v-1.05l3.54-.01-.66.44c-.007-.28-.05-.51-.13-.69a.862.862 0 0 0-.36-.42c-.154-.1-.344-.15-.57-.15a1.104 1.104 0 0 0-1.04.63c-.094.2-.14.443-.14.73 0 .286.05.533.15.74.106.2.253.356.44.47.193.106.42.16.68.16.24 0 .456-.04.65-.12.193-.087.363-.214.51-.38l.84.84c-.24.28-.53.49-.87.63-.34.14-.714.21-1.12.21Zm3.378-.11v-4.86h1.53v4.86h-1.53Zm1.53-2.67-.64-.5c.127-.567.34-1.007.64-1.32.3-.314.717-.47 1.25-.47.234 0 .437.036.61.11.18.066.337.173.47.32l-.91 1.15a.667.667 0 0 0-.25-.17.91.91 0 0 0-.34-.06.807.807 0 0 0-.61.24c-.146.153-.22.386-.22.7Zm5.73 2.77c-.326 0-.626-.067-.9-.2a1.945 1.945 0 0 1-.67-.55 1.522 1.522 0 0 1-.3-.78v-2.05c.027-.287.127-.54.3-.76.174-.227.397-.404.67-.53.274-.127.574-.19.9-.19a2.276 2.276 0 0 1 2.06 1.23c.207.38.31.813.31 1.3 0 .486-.103.92-.31 1.3a2.276 2.276 0 0 1-2.06 1.23Zm-2.8-.1v-7.26h1.53v3.59l-.25 1.18.23 1.18v1.31h-1.51Zm2.53-1.28c.214 0 .4-.05.56-.15.167-.1.297-.237.39-.41.094-.174.14-.37.14-.59 0-.227-.046-.427-.14-.6a.98.98 0 0 0-.39-.4c-.16-.1-.346-.15-.56-.15-.213 0-.403.05-.57.15a.981.981 0 0 0-.39.4c-.086.173-.13.373-.13.6 0 .226.047.426.14.6.094.173.22.31.38.41.167.093.357.14.57.14Zm5.878 1.39c-.447 0-.844-.09-1.19-.27a2.09 2.09 0 0 1-.8-.76c-.194-.327-.29-.7-.29-1.12v-2.82h1.53v2.8c0 .166.026.31.08.43a.66.66 0 0 0 .26.28.8.8 0 0 0 .41.1c.226 0 .406-.07.54-.21.133-.147.2-.347.2-.6v-2.8h1.53v2.81c0 .426-.097.803-.29 1.13a2.09 2.09 0 0 1-.8.76c-.34.18-.734.27-1.18.27Zm6.74-.11v-2.77c0-.254-.08-.457-.24-.61a.781.781 0 0 0-.59-.24.863.863 0 0 0-.44.11.723.723 0 0 0-.3.3.863.863 0 0 0-.11.44l-.59-.29c0-.38.084-.714.25-1 .167-.287.397-.507.69-.66.3-.16.637-.24 1.01-.24.36 0 .677.086.95.26a1.822 1.822 0 0 1 .9 1.59v3.11h-1.53Zm-3.21 0v-4.86h1.53v4.86h-1.53Zm8.083 2.18c-.533 0-1.003-.094-1.41-.28-.4-.18-.717-.437-.95-.77l.94-.94c.173.206.367.363.58.47.22.106.483.16.79.16.38 0 .677-.094.89-.28.22-.187.33-.45.33-.79v-1.24l.26-1.06-.23-1.06v-1.25h1.5v4.57c0 .5-.117.933-.35 1.3a2.403 2.403 0 0 1-.96.86c-.407.206-.87.31-1.39.31Zm-.07-2.33a2.224 2.224 0 0 1-2.01-1.19c-.2-.367-.3-.774-.3-1.22 0-.454.1-.86.3-1.22.2-.367.473-.654.82-.86.347-.214.743-.32 1.19-.32.333 0 .63.063.89.19.267.12.48.293.64.52.167.22.26.476.28.77v1.85c-.02.286-.113.543-.28.77-.16.22-.373.393-.64.52-.267.126-.563.19-.89.19Zm.29-1.36c.213 0 .397-.047.55-.14a.914.914 0 0 0 .36-.37c.087-.16.13-.34.13-.54s-.043-.38-.13-.54a.898.898 0 0 0-.36-.38 1.038 1.038 0 0 0-.55-.14c-.207 0-.39.046-.55.14a.965.965 0 0 0-.37.38c-.087.16-.13.34-.13.54 0 .186.043.363.13.53.087.16.207.286.36.38.16.093.347.14.56.14Z"/></svg>