<svg xmlns="http://www.w3.org/2000/svg" width="55" height="56" fill="none"><path fill="#fff" d="M0 .333h55v55H0z"/><path fill="url(#a)" d="M9.303 27.819c0-9.755 7.917-17.673 17.673-17.673v4.416c-7.317 0-13.257 5.942-13.257 13.257 0 7.316 5.94 13.256 13.257 13.256 7.316 0 13.257-5.94 13.257-13.256h4.416c0 9.755-7.919 17.673-17.673 17.673-9.756 0-17.673-7.917-17.673-17.673Z"/><path fill="url(#b)" d="m25.794 32.61-6.886-5.635 2.797-3.417 5.166 4.229 11.06-13.712 3.437 2.773L28.911 32.29a2.21 2.21 0 0 1-3.117.322Z"/><defs><linearGradient id="a" x1="12.905" x2="39.018" y1="17.406" y2="43.519" gradientUnits="userSpaceOnUse"><stop stop-color="#3097EF"/><stop offset="1" stop-color="#0A73D9"/></linearGradient><linearGradient id="b" x1="30.139" x2="30.139" y1="14.462" y2="47.093" gradientUnits="userSpaceOnUse"><stop stop-color="#FED100"/><stop offset="1" stop-color="#E36001"/></linearGradient></defs></svg>