<svg xmlns="http://www.w3.org/2000/svg" width="132" height="31" fill="none"><g clip-path="url(#a)"><circle cx="16.224" cy="15.75" r="11.763" fill="#fff"/><path fill="#130738" d="M14.884.75c1.104.059 2.209.103 3.31.184 1.302.096 2.584.325 3.844.667 1.938.524 3.732 1.329 5.285 2.577 1.745 1.4 3.076 3.09 3.835 5.164.33.903.504 1.841.572 2.795.264 3.785-.628 7.331-2.4 10.691a17.185 17.185 0 0 1-3.486 4.596c-1.008.94-2.116 1.745-3.392 2.323a11.112 11.112 0 0 1-3.43.932c-.462.046-.921.071-1.377.071-1.74 0-3.434-.345-5.097-.9-1.754-.587-3.424-1.339-4.978-2.32-2.038-1.288-3.718-2.907-4.907-4.971-.791-1.376-1.302-2.845-1.586-4.388-.316-1.717-.353-3.447-.204-5.183.23-2.661.86-5.24 1.69-7.776.174-.54.365-1.072.555-1.606.362-1.002 1.102-1.592 2.178-1.79a65.713 65.713 0 0 1 5.11-.753 45.938 45.938 0 0 1 4.332-.266h.142l.004-.047Zm2.39 5.394c-.498 0-1.001.034-1.508.1-1.806.235-3.46.862-4.956 1.865-1.367.916-2.442 2.078-3.14 3.546-.578 1.214-.733 2.503-.781 3.814-.016.742.045 1.481.19 2.21.346 1.746 1.124 3.274 2.429 4.54 1.063 1.029 2.336 1.73 3.754 2.193 1.16.379 2.354.578 3.572.65l.378.015.37.006c.813 0 1.617-.087 2.408-.31 1.903-.544 3.231-1.684 3.887-3.5.462-1.273.48-2.578.255-3.897a.38.38 0 0 1 .054-.249c.989-1.51 1.445-3.142 1.215-4.925-.261-2.05-1.314-3.64-3.14-4.717-1.556-.919-3.23-1.341-4.988-1.341Zm-1.199 1.655c1.696-.217 3.31.022 4.832.792 1.234.624 2.187 1.506 2.655 2.8.41 1.134.337 2.27-.025 3.401-.029.087-.062.17-.1.282-.03-.05-.052-.077-.068-.111-.452-.947-1.034-1.81-1.812-2.54-.84-.783-1.816-1.32-2.992-1.485-1.805-.251-3.433.516-4.293 2.078-.814 1.478-.901 3.009-.184 4.54.61 1.307 1.7 2.09 3.137 2.403 1.925.416 3.692.056 5.285-1.068l.125-.083c-.03 1.481-.395 2.792-1.64 3.74-.662.504-1.437.771-2.268.861-2.1.227-4.125-.068-6.028-.956-2.226-1.037-3.547-2.767-4.009-5.102-.255-1.286-.203-2.574.081-3.844.35-1.574 1.273-2.81 2.568-3.798 1.389-1.065 2.979-1.683 4.736-1.91Zm6.568 11.005-.008.004V18.8l.008.003Zm-6.788-5.251c.617-.904 1.616-1.261 2.76-.994.749.174 1.35.584 1.876 1.106.882.876 1.447 1.928 1.806 3.089.016.056 0 .146-.042.186-.956 1.022-2.135 1.581-3.495 1.587-.682-.01-1.267-.087-1.813-.329-.878-.388-1.401-1.059-1.598-1.953a3.342 3.342 0 0 1 .506-2.692Zm41.183-4.295c1.967 0 3.525.537 4.47 1.406.996.945 1.098 2.043 1.098 3.575v4.404c-.003 2.425-.014 3.67-.036 3.732-.028.074-.598.086-1.118.088l-.455.001c-1.481 0-2.478-.69-2.937-2.018-1.252 1.43-2.63 2.145-4.189 2.145-1.906 0-3.227-1.105-3.423-2.677l-.005-.036-.052.061c-1.445 1.64-3.928 2.623-5.997 2.652h-.095c-3.73 0-6.386-2.579-6.386-6.512 0-1.993.818-3.858 2.274-5.16a6.621 6.621 0 0 1 4.393-1.66c2.912 0 4.904 1.66 4.904 3.729 0 1.175-.869 2.094-2.069 2.095-1.073 0-1.839-.87-1.839-1.942 0-1.915-.128-2.937-1.481-2.937-1.252 0-1.916 1.098-1.916 3.218 0 3.959 2.036 6.44 4.484 6.44 1.915 0 3.074-.879 4.338-1.911l.008-.006c.337-.292.69-.57 1.017-.818l.175-.131c.604-.448 1.085-.764 1.146-.807l.08-.058c1.018-.718 2.416-1.47 4.403-2.486v-.76c0-1.788-.41-2.605-1.533-2.605-.894 0-1.532.614-1.532 1.38 0 .536.05.97.05 1.25 0 1.252-.766 2.02-1.838 2.02-1.022 0-1.686-.69-1.686-1.738 0-2.146 2.197-3.934 5.747-3.934Zm20.75 0c1.966 0 3.524.537 4.469 1.406.996.945 1.099 2.043 1.099 3.575-.137 1.296-.137 2.48 0 3.55.2 1.569 1.087 3.26 1.408 3.338l.022.003v.242c-.664.842-1.763 1.092-3.04 1.092-1.481 0-2.478-.69-2.937-2.018-1.252 1.43-2.63 2.145-4.189 2.145-2.069 0-3.448-1.302-3.448-3.09 0-2.492 2.357-3.768 7.192-5.638l.215-.083v-.895c0-1.787-.41-2.235-1.533-2.235-.567 0-1.589.299-1.853.675-.152.216-.573-1.442-.236-1.615.759-.388 1.755-.452 2.83-.452Zm-5.755 0c1.226 0 2.043.792 2.043 1.993 0 1.047-.664 1.737-1.71 1.737-1.201 0-1.636-1.124-2.147-1.124-.613 0-.766.817-.766 2.503v6.084c0 .571.335 1.173.799 1.517.083.062.16.199.16.264s.014.164-.102.18a2.342 2.342 0 0 1-.263.013h-5.442l-.15-.002-.154-.002c-.204-.003-.394-.008-.47-.008-.122 0-.146-.06-.146-.142 0-.082.068-.159.287-.338.196-.16.637-.739.676-1.39l.003-.092v-5.819c0-.669-.021-1.521-.406-2.013a8.463 8.463 0 0 0-.643-.875c-.022-.028-.17-.177-.164-.391.005-.214.643-.343.98-.467.34-.124 4.535-1.453 4.703-1.325.221.169.221.766 0 1.792.818-1.38 1.788-2.095 2.912-2.095Zm19.989.001c1.355-.017 2.541.328 3.558 1.036 1.016.709 1.525 1.448 1.525 2.217 0 .63-.348.936-1.044.918-.33-.018-.638-.196-.924-.537a6.387 6.387 0 0 1-.756-1.129c-.217-.41-.565-.79-1.043-1.14-.478-.35-1.056-.526-1.733-.526-1.078 0-1.965.442-2.66 1.325-.695.883-1.042 1.982-1.042 3.293 0 1.819.46 3.275 1.381 4.368.921 1.093 2.112 1.64 3.572 1.64.85 0 1.586-.232 2.203-.695a4.567 4.567 0 0 0 1.42-1.77c.104-.21.27-.29.496-.237.225.053.312.2.26.445-.208 1.067-.76 1.986-1.655 2.755-.895.77-2.046 1.154-3.454 1.154-1.825 0-3.367-.633-4.627-1.9-1.26-1.269-1.89-2.848-1.89-4.737 0-1.924.612-3.481 1.837-4.67 1.225-1.19 2.75-1.792 4.576-1.81Zm11.991 0c1.691 0 3.03.655 4.016 1.967V9.81c0-.21.075-.359.225-.446.15-.088.348-.088.595 0l1.558.472c.209.056.397.22.397.448v.061c0 .135-.185.313-.304.445-.119.131-.436.675-.437 1.145v8.344c0 .35.164.655.49.918.326.262.37.447.37.552v.078c0 .192-.124.289-.37.289h-2.127c-.282 0-.423-.14-.423-.42v-1.47c-.423.7-1 1.233-1.731 1.6-.73.368-1.783.551-2.628.552-1.674 0-2.846-.612-4.043-1.836-1.198-1.225-1.797-2.808-1.797-4.75 0-1.906.59-3.472 1.77-4.696 1.18-1.224 2.66-1.837 4.439-1.837Zm22.824 0c1.394-.017 2.539.285 3.435.906.897.62 1.344 1.482 1.344 2.584 0 .891-.389 1.683-1.167 2.374-.778.69-1.811 1.158-3.096 1.403-1.268.227-2.798.271-4.59.132.308 1.241.878 2.225 1.711 2.95.832.727 1.837 1.09 3.014 1.09.978 0 1.802-.21 2.472-.63.426-.259.704-.434.921-.39.217.043.307.093.431.356.125.262-.182.664-.782 1.175-.848.683-2.145 1.167-3.666 1.168-1.901 0-3.463-.617-4.685-1.85-1.222-1.233-1.833-2.838-1.833-4.814 0-1.888.606-3.432 1.819-4.63 1.213-1.199 2.771-1.806 4.672-1.824Zm-8.81 0c.78 0 1.393.193 1.837.58.444.387.666.871.666 1.451 0 .827-.362 1.242-1.088 1.242-.308 0-.554-.098-.735-.291a1.512 1.512 0 0 1-.367-.633 1.331 1.331 0 0 0-.422-.634c-.218-.193-.446-.29-.897-.29-.561 0-.905.347-1.313 1.042-.408.695-.612 1.562-.612 2.6v6.018c0 .352.191.647.572.885.381.237.501.418.501.541v.105c0 .212-.065.317-.342.317h-3.507c-.362 0-.473-.105-.473-.317v-.105c0-.123.097-.304.432-.541.336-.238.504-.533.504-.885V12.24c.001-.335-.006-.625-.342-.87-.362-.263-.457-.456-.458-.58v-.052c0-.176.05-.335.323-.476l1.865-.897c.472-.211.707-.088.707.37v2.111c.617-1.724 1.77-2.587 3.149-2.587Zm-14.085.739c-1.147 0-2.082.452-2.806 1.356-.724.904-1.095 2.094-1.113 3.568-.035 1.826.362 3.366 1.192 4.622.83 1.255 1.898 1.891 3.204 1.909.847 0 1.619-.338 2.316-1.014.698-.676 1.046-1.602 1.046-2.778v-3.977l-.001-.077c-.022-.85-.405-1.658-1.15-2.425-.768-.79-1.664-1.184-2.688-1.184Zm-46.112 4.7c-1.481.588-2.299 1.89-2.299 3.781 0 1.098.486 1.737 1.15 1.737 1.099 0 1.148-.978 1.15-3.005V14.7Zm20.75 0c-1.482.588-2.3 1.89-2.3 3.781 0 1.098.486 1.737 1.15 1.737 1.099 0 1.147-.978 1.15-3.005V14.7Zm47.909-4.516c-1.153 0-2.096.44-2.828 1.319-.732.878-1.098 1.955-1.099 3.23 0 .207.02.517.056.93 1.794.121 3.24.07 4.338-.154 1.647-.327 2.462-1.25 2.443-2.766-.018-.758-.298-1.374-.837-1.848-.54-.474-1.231-.71-2.073-.71Z"/></g><defs><clipPath id="a"><path fill="#fff" d="M.239.75h131.667v30H.239z"/></clipPath></defs></svg>