<svg xmlns="http://www.w3.org/2000/svg" width="73" height="33" fill="none"><g clip-path="url(#a)"><path fill="#130738" d="M50.485 6.272c.849 0 2.171.591 2.953 1.212l-.394 3.994c-.744-.486-1.617-.886-1.974-.905-.831-.043-1.059.358-1.206 1.047-.061.29-.191 1.415-.24 1.969l-.032.239h1.877l-.485 4.019h-1.828l-1.575 14.38h-4.11l1.586-14.38H42.72l.425-4.012 2.363-.007.21-2.085c.049-.553.128-1.077.227-1.526.51-2.412 2.264-3.944 4.54-3.945ZM21.047 10.68h-6.48l-1.174 10.343c-.327 2.96-.776 4.264-1.951 5.563-1.206 1.304-3.028 2.018-5.268 2.018-1.107 0-1.987-.13-2.996-.424l.486-4.288c1.243.227 1.403.257 2.018.257 2.314 0 2.966-.978 3.452-5.137l.942-8.332H7.4c-1.791 0-2.468.424-2.468 1.464 0 .88.714 2.178 1.883 3.446H1.867C.957 14.36.539 13.153.539 11.75c0-1.685.812-3.248 2.177-4.165 1.434-.973 2.8-1.232 6.314-1.232h12.504l-.487 4.327Zm47.788 10.774a21.57 21.57 0 0 0-.13 1.79c0 .69.326 1.04.88 1.04.35 0 .744-.16 1.593-.645l-.46 3.999c-.905.621-1.792.941-2.635.941-2.27 0-3.71-1.532-3.71-3.932 0-.455.037-.978.105-1.532L66.132 6.36H70.3l-1.465 15.094Zm-36.564.259c-.062.584-.062.75-.062.941 0 .492.229.781.646.781.591 0 1.631-1.101 2.702-2.922 1.04-1.76 1.563-3.354 2.148-6.67h4.165l-.94 8.195c-.13 1.04-.106 1.077-.106 1.305 0 .615.363 1.07.85 1.07.492 0 .978-.197 1.79-.72l-.486 4.043c-1.04.578-1.89.837-2.8.837-2.017 0-3.088-1.04-3.58-3.408-1.792 2.436-3.318 3.408-5.299 3.408-2.117 0-3.483-1.458-3.483-3.735 0-.455.031-.652.16-1.859l1.046-9.136h4.16l-.911 7.87Zm25.77-8.29c2.111 0 4.948 2.05 4.948 4.646 0 3.126-2.344 4.818-7.55 5.434.554.689 1.267.978 2.307.978 1.827 0 4.135-.842 6.283-2.276l-.517 4.522c-2.024 1.139-4.234 1.76-6.221 1.76-4.03 0-6.702-2.707-6.702-6.774 0-4.486 3.422-8.29 7.453-8.29Zm-36.489-.005c2.8 0 4.948 2.049 4.948 4.645 0 3.12-2.345 4.819-7.55 5.434.553.69 1.267.973 2.312.973 1.822 0 4.13-.838 6.278-2.278l-.524 4.53c-2.012 1.132-4.228 1.753-6.209 1.753-4.036 0-6.7-2.702-6.7-6.769 0-4.486 3.415-8.288 7.445-8.288Zm36.163 4.006c-.849 0-1.822 1.009-2.406 2.565 1.102-.098 3.12-1.034 3.12-1.92 0-.387-.295-.645-.714-.645Zm-36.489-.013c-.843 0-1.816 1.01-2.406 2.572 1.79-.16 3.126-.972 3.126-1.92 0-.387-.296-.652-.72-.652Z"/></g><defs><clipPath id="a"><path fill="#fff" d="M0 .917h72.5v31.667H0z"/></clipPath></defs></svg>