<svg xmlns="http://www.w3.org/2000/svg" width="55" height="56" fill="none"><path fill="#fff" d="M0 .333h55v55H0z"/><g clip-path="url(#a)"><path fill="#5059C9" d="M33.715 24.302h8.783c.83 0 1.502.673 1.502 1.503v8a5.521 5.521 0 0 1-5.522 5.52h-.026a5.521 5.521 0 0 1-5.522-5.52v-8.718c0-.433.352-.785.785-.785Zm5.936-1.582a3.558 3.558 0 1 0 0-7.115 3.558 3.558 0 0 0 0 7.116Z"/><path fill="#7B83EB" d="M28.581 22.72a5.14 5.14 0 1 0 0-10.278 5.14 5.14 0 0 0 0 10.279Zm6.853 1.582H20.938c-.82.02-1.469.701-1.45 1.52v9.125a8.918 8.918 0 0 0 8.698 9.123 8.918 8.918 0 0 0 8.698-9.123v-9.124c.019-.82-.63-1.5-1.45-1.52Z"/><path fill="#000" d="M28.977 24.302v12.786a1.455 1.455 0 0 1-1.447 1.447h-7.346a9.63 9.63 0 0 1-.696-3.59V25.82a1.484 1.484 0 0 1 1.447-1.518h8.042Z" opacity=".1"/><path fill="#000" d="M28.186 24.302V37.88a1.455 1.455 0 0 1-1.447 1.447h-6.183a10.521 10.521 0 0 1-.372-.791 7.84 7.84 0 0 1-.277-.79 9.63 9.63 0 0 1-.419-2.8V25.82a1.484 1.484 0 0 1 1.447-1.518h7.251Z" opacity=".2"/><path fill="#000" d="M28.186 24.302v11.995a1.458 1.458 0 0 1-1.447 1.447h-6.832a9.63 9.63 0 0 1-.419-2.799V25.82a1.484 1.484 0 0 1 1.447-1.518h7.251Z" opacity=".2"/><path fill="#000" d="M27.395 24.302v11.995a1.458 1.458 0 0 1-1.447 1.447h-6.04a9.63 9.63 0 0 1-.42-2.799V25.82a1.484 1.484 0 0 1 1.447-1.518h6.46Z" opacity=".2"/><path fill="#000" d="M28.977 20.214v2.491c-.135.008-.261.016-.396.016-.134 0-.26-.008-.395-.016a4.334 4.334 0 0 1-.79-.126 5.14 5.14 0 0 1-3.559-3.02 4.385 4.385 0 0 1-.253-.792h3.946a1.452 1.452 0 0 1 1.447 1.447Z" opacity=".1"/><path fill="#000" d="M28.186 21.005v1.7a4.343 4.343 0 0 1-.79-.126 5.14 5.14 0 0 1-3.559-3.02h2.902a1.45 1.45 0 0 1 1.447 1.446Z" opacity=".2"/><path fill="#000" d="M28.186 21.005v1.7a4.343 4.343 0 0 1-.79-.126 5.14 5.14 0 0 1-3.559-3.02h2.902a1.45 1.45 0 0 1 1.447 1.446Z" opacity=".2"/><path fill="#000" d="M27.395 21.005v1.574a5.14 5.14 0 0 1-3.558-3.02h2.111a1.45 1.45 0 0 1 1.447 1.446Z" opacity=".2"/><path fill="url(#b)" d="M11.45 19.558h14.496c.8 0 1.45.65 1.45 1.45v14.496c0 .8-.65 1.45-1.45 1.45H11.449c-.8 0-1.449-.65-1.449-1.45V21.008c0-.8.649-1.45 1.45-1.45Z"/><path fill="#fff" d="M22.512 25.076h-2.898v7.89h-1.846v-7.89h-2.885v-1.531h7.629v1.53Z"/></g><defs><linearGradient id="b" x1="13.022" x2="24.373" y1="18.426" y2="38.086" gradientUnits="userSpaceOnUse"><stop stop-color="#5A62C3"/><stop offset=".5" stop-color="#4D55BD"/><stop offset="1" stop-color="#3940AB"/></linearGradient><clipPath id="a"><path fill="#fff" d="M10 12.442h34V44.07H10z"/></clipPath></defs></svg>